<svg xmlns="http://www.w3.org/2000/svg" width="1525.087" height="1095.495" viewBox="0 0 1525.087 1095.495">
  <g id="Group_380" data-name="Group 380" transform="translate(101.503 263.495)">
    <path id="Path_27" data-name="Path 27" d="M687.55,157.332c14.734,73.168,31.612,115.05,86.559,132.009,71.255,21.993,71.961,157.407-27.338,170.228-51.922,6.7-87.251-5.861-115.62,29.346-50.592,62.8-89.313,15.345-96.5-13.744C508.055,367.625,445.333,396.794,398.174,337.4c-27.772-34.963-.611-74.959,51.067-84.266,78.921-14.2,97.467-60.239,103.776-82.326C568.253,117.485,672.816,84.15,687.55,157.332Z" transform="translate(101.908 183.912)" fill="none" stroke="#497ed9" stroke-miterlimit="10" stroke-width="1" opacity="0.5"/>
    <path id="Path_6" data-name="Path 6" d="M412.18,167.979c-.76,74.633,25.1,72.015,80.033,88.974,71.255,21.993,78.609,261.373-20.69,274.194-51.922,6.7-64.607-63.956-106.028-14.246-50.2,60.239-124.14,36.5-119.283-33.823,2.374-34.407,12.441-67.728-28.939-69.207-73.819-2.632-90.833-107.493,9.158-139.96,78.351-25.439,49.751-74.077,43.076-114.3C253.226,61.584,413.319,56.5,412.18,167.979Z" transform="translate(-257.639 132.265)" fill="none" stroke="#497ed9" stroke-miterlimit="10" stroke-width="1" opacity="0.5"/>
    <path id="Path_1" data-name="Path 1" d="M42.6,180.78s84.5-113.7,288.192-64.659,242.555,95.112,216.151,219.587-150.88,128.248,0,282.9,482.815,286.672,75.44,433.779-697.819,0-697.819-226.32S42.6,180.78,42.6,180.78Z" transform="matrix(-0.995, 0.105, -0.105, -0.995, 1359.412, 849.781)" fill="#497ed9" opacity="0.15"/>
    <circle id="Ellipse_5" data-name="Ellipse 5" cx="43.5" cy="43.5" r="43.5" transform="translate(118 607)" fill="#497ed9" opacity="0.22"/>
    <circle id="Ellipse_12" data-name="Ellipse 12" cx="43.5" cy="43.5" r="43.5" transform="translate(665 525)" fill="#27debf" opacity="0.06"/>
    <g id="Ellipse_10" data-name="Ellipse 10" transform="translate(1023 538)" fill="none" stroke="#27debf" stroke-width="9" opacity="0.41">
      <circle cx="19.5" cy="19.5" r="19.5" stroke="none"/>
      <circle cx="19.5" cy="19.5" r="15" fill="none"/>
    </g>
    <g id="Ellipse_13" data-name="Ellipse 13" transform="translate(1213 779)" fill="none" stroke="#497ed9" stroke-width="9" opacity="0.22">
      <circle cx="19.5" cy="19.5" r="19.5" stroke="none"/>
      <circle cx="19.5" cy="19.5" r="15" fill="none"/>
    </g>
    <g id="Ellipse_9" data-name="Ellipse 9" transform="translate(467 267)" fill="none" stroke="#27debf" stroke-width="9" opacity="0.22">
      <circle cx="19.5" cy="19.5" r="19.5" stroke="none"/>
      <circle cx="19.5" cy="19.5" r="15" fill="none"/>
    </g>
    <g id="Ellipse_11" data-name="Ellipse 11" transform="translate(1014 185)" fill="none" stroke="#27debf" stroke-width="9" opacity="0.22">
      <circle cx="19.5" cy="19.5" r="19.5" stroke="none"/>
      <circle cx="19.5" cy="19.5" r="15" fill="none"/>
    </g>
    <g id="Ellipse_14" data-name="Ellipse 14" transform="translate(1204 426)" fill="none" stroke="#27debf" stroke-width="9" opacity="0.22">
      <circle cx="19.5" cy="19.5" r="19.5" stroke="none"/>
      <circle cx="19.5" cy="19.5" r="15" fill="none"/>
    </g>
  </g>
</svg>
