<svg xmlns="http://www.w3.org/2000/svg" width="853.503" height="502.011" viewBox="0 0 853.503 502.011">
  <g id="Group_368" data-name="Group 368" transform="translate(-157.497 -4825.989)">
    <path id="Path_129" data-name="Path 129" d="M412.18,167.979c-.76,74.633,25.1,72.015,80.033,88.974,71.255,21.993,78.609,261.373-20.69,274.194-51.922,6.7-64.607-63.956-106.028-14.246-50.2,60.239-124.14,36.5-119.283-33.823,2.374-34.407,12.441-67.728-28.939-69.207-73.819-2.632-90.833-107.493,9.158-139.96,78.351-25.439,49.751-74.077,43.076-114.3C253.226,61.584,413.319,56.5,412.18,167.979Z" transform="translate(1.361 4741.265)" fill="none" stroke="#497ed9" stroke-miterlimit="10" stroke-width="1" opacity="0.5"/>
    <circle id="Ellipse_55" data-name="Ellipse 55" cx="43.5" cy="43.5" r="43.5" transform="translate(377 5216)" fill="#497ed9" opacity="0.22"/>
    <circle id="Ellipse_52" data-name="Ellipse 52" cx="43.5" cy="43.5" r="43.5" transform="translate(924 5134)" fill="#497ed9" opacity="0.06"/>
    <g id="Ellipse_51" data-name="Ellipse 51" transform="translate(735 5289)" fill="none" stroke="#497ed9" stroke-width="9" opacity="0.22">
      <circle cx="19.5" cy="19.5" r="19.5" stroke="none"/>
      <circle cx="19.5" cy="19.5" r="15" fill="none"/>
    </g>
    <g id="Ellipse_53" data-name="Ellipse 53" transform="translate(916 4855)" fill="none" stroke="#497ed9" stroke-width="9" opacity="0.22">
      <circle cx="19.5" cy="19.5" r="19.5" stroke="none"/>
      <circle cx="19.5" cy="19.5" r="15" fill="none"/>
    </g>
    <rect id="Rectangle_181" data-name="Rectangle 181" width="297" height="26" rx="13" transform="translate(523 4927)" fill="#497ed9" opacity="0.1"/>
  </g>
</svg>
