<?xml version="1.0" encoding="utf-8"?>
<!-- Generator: Adobe Illustrator 24.3.0, SVG Export Plug-In . SVG Version: 6.00 Build 0)  -->
<svg version="1.1" id="Layer_1" xmlns="http://www.w3.org/2000/svg" xmlns:xlink="http://www.w3.org/1999/xlink" x="0px" y="0px"
	 viewBox="0 0 113 37" style="enable-background:new 0 0 113 37;" xml:space="preserve">
<style type="text/css">
	.st0{clip-path:url(#SVGID_4_);fill:url(#SVGID_5_);}
	.st1{clip-path:url(#SVGID_4_);fill:url(#SVGID_6_);}
	.st2{clip-path:url(#SVGID_4_);fill:url(#SVGID_7_);}
	.st3{clip-path:url(#SVGID_4_);fill:url(#SVGID_8_);}
	.st4{fill:#F9F9F9;}
</style>
<g>
	
		<image style="overflow:visible;opacity:0.75;" width="127" height="49" xlink:href="56563A1E.png"  transform="matrix(1 0 0 1 -6.9478 -5.9478)">
	</image>
	<g>
		<g>
			<g id="PLAY_11_">
				<defs>
					<path id="SVGID_1_" d="M24.5,16.3l-5.1-2.9c0,0-9.3-5.3-9.8-5.7S8.5,7.6,8.5,8.2c0,1.1,0,11.4,0,11.4s0,11.2,0,11.6
						c0,0.5,0.4,0.7,0.9,0.4c0.5-0.3,10.1-5.8,10.1-5.8l5.1-2.9c0,0,4.3-2.5,4.9-2.8c0.6-0.3,0.5-0.8,0-1
						C28.9,18.9,24.5,16.3,24.5,16.3z"/>
				</defs>
				<clipPath id="SVGID_2_">
					<use xlink:href="#SVGID_1_"  style="overflow:visible;"/>
				</clipPath>
			</g>
		</g>
		<g>
			<path d="M113,32c0,2.8-2.2,5-5,5H5c-2.8,0-5-2.2-5-5V5c0-2.8,2.2-5,5-5h103c2.8,0,5,2.2,5,5V32z"/>
			<g id="PLAY_10_">
				<defs>
					<path id="SVGID_3_" d="M24.5,16.3l-5.1-2.9c0,0-9.3-5.3-9.8-5.7S8.5,7.6,8.5,8.2c0,1.1,0,11.4,0,11.4s0,11.2,0,11.6
						c0,0.5,0.4,0.7,0.9,0.4c0.5-0.3,10.1-5.8,10.1-5.8l5.1-2.9c0,0,4.3-2.5,4.9-2.8c0.6-0.3,0.5-0.8,0-1
						C28.9,18.9,24.5,16.3,24.5,16.3z"/>
				</defs>
				<clipPath id="SVGID_4_">
					<use xlink:href="#SVGID_3_"  style="overflow:visible;"/>
				</clipPath>
				<linearGradient id="SVGID_5_" gradientUnits="userSpaceOnUse" x1="14.7785" y1="7.1615" x2="14.7785" y2="32.1335">
					<stop  offset="0" style="stop-color:#257DB0"/>
					<stop  offset="0.208" style="stop-color:#3C90B3"/>
					<stop  offset="0.7416" style="stop-color:#73BDB9"/>
					<stop  offset="1" style="stop-color:#89CEBC"/>
				</linearGradient>
				<polygon class="st0" points="8.5,7.2 8.5,19.6 8.5,32.1 21.1,19.6 				"/>
				<linearGradient id="SVGID_6_" gradientUnits="userSpaceOnUse" x1="8.466" y1="13.3592" x2="24.482" y2="13.3592">
					<stop  offset="0" style="stop-color:#51BFAC"/>
					<stop  offset="1" style="stop-color:#DEE899"/>
				</linearGradient>
				<polygon class="st1" points="24.5,16.3 19.4,13.4 8.5,7.1 8.5,7.2 21.1,19.6 				"/>
				<linearGradient id="SVGID_7_" gradientUnits="userSpaceOnUse" x1="16.4739" y1="19.6477" x2="16.4739" y2="32.2244">
					<stop  offset="0" style="stop-color:#EB403D"/>
					<stop  offset="0.1937" style="stop-color:#D64252"/>
					<stop  offset="0.7369" style="stop-color:#9F4887"/>
					<stop  offset="1" style="stop-color:#894A9C"/>
				</linearGradient>
				<polygon class="st2" points="8.5,32.1 8.5,32.2 19.4,25.9 24.5,23 21.1,19.6 				"/>
				<linearGradient id="SVGID_8_" gradientUnits="userSpaceOnUse" x1="25.6985" y1="16.294" x2="25.6985" y2="23.0011">
					<stop  offset="0" style="stop-color:#F48779"/>
					<stop  offset="0.6121" style="stop-color:#FAB076"/>
					<stop  offset="1" style="stop-color:#FDC674"/>
				</linearGradient>
				<polygon class="st3" points="24.5,16.3 21.1,19.6 24.5,23 30.3,19.6 				"/>
			</g>
			<g>
				<path class="st4" d="M87.9,24.5c-0.5,0-0.9-0.1-1.3-0.3c-0.4-0.2-0.7-0.4-1-0.8h-0.1c0.1,0.4,0.1,0.8,0.1,1.2v3h-1.1V17.1h0.9
					l0.2,1h0.1c0.3-0.4,0.6-0.7,1-0.9c0.4-0.2,0.8-0.3,1.3-0.3c1,0,1.7,0.3,2.2,1c0.5,0.7,0.8,1.6,0.8,2.8c0,1.2-0.3,2.1-0.8,2.8
					C89.6,24.2,88.9,24.5,87.9,24.5z M87.8,17.9c-0.7,0-1.3,0.2-1.6,0.6c-0.3,0.4-0.5,1.1-0.5,2v0.2c0,1,0.2,1.8,0.5,2.2
					c0.3,0.4,0.9,0.7,1.6,0.7c0.6,0,1.1-0.3,1.5-0.8c0.4-0.5,0.5-1.2,0.5-2.1c0-0.9-0.2-1.6-0.5-2.1C88.9,18.2,88.4,17.9,87.8,17.9z
					"/>
				<path class="st4" d="M93.5,24.4h-1.1V14.1h1.1V24.4z"/>
				<path class="st4" d="M99.9,24.4l-0.2-1h-0.1c-0.4,0.5-0.7,0.8-1.1,0.9c-0.4,0.2-0.8,0.2-1.4,0.2c-0.7,0-1.3-0.2-1.7-0.6
					c-0.4-0.4-0.6-0.9-0.6-1.6c0-1.5,1.2-2.2,3.5-2.3l1.2,0v-0.5c0-0.6-0.1-1-0.4-1.3c-0.2-0.3-0.6-0.4-1.2-0.4
					c-0.6,0-1.3,0.2-2.1,0.6l-0.3-0.8c0.4-0.2,0.8-0.3,1.2-0.5c0.4-0.1,0.9-0.2,1.3-0.2c0.9,0,1.5,0.2,1.9,0.6
					c0.4,0.4,0.6,1,0.6,1.8v5H99.9z M97.4,23.6c0.7,0,1.2-0.2,1.6-0.6c0.4-0.4,0.6-0.9,0.6-1.6v-0.7l-1.1,0c-0.9,0-1.5,0.2-1.9,0.4
					c-0.4,0.2-0.6,0.6-0.6,1.1c0,0.4,0.1,0.7,0.4,0.9C96.6,23.5,96.9,23.6,97.4,23.6z"/>
				<path class="st4" d="M101.3,17.1h1.2l1.6,4.1c0.3,0.9,0.6,1.6,0.7,2h0.1c0.1-0.2,0.2-0.6,0.4-1.2c0.2-0.5,0.8-2.2,1.8-5h1.2
					l-3.1,8.3c-0.3,0.8-0.7,1.4-1.1,1.7c-0.4,0.3-0.9,0.5-1.5,0.5c-0.3,0-0.7,0-1-0.1v-0.9c0.2,0.1,0.5,0.1,0.8,0.1
					c0.8,0,1.3-0.4,1.6-1.3l0.4-1L101.3,17.1z"/>
			</g>
			<g>
				<path class="st4" d="M67.5,17.8c0.4,0.3,1.1,0.9,1.1,2.1c0,1.1-0.6,1.7-1.3,2.2c-0.2,0.2-0.4,0.4-0.4,0.7c0,0.3,0.2,0.5,0.4,0.7
					l0.5,0.4c0.7,0.6,1.3,1.1,1.3,2.1c0,1.4-1.4,2.9-4,2.9c-2.2,0-3.3-1-3.3-2.2c0-0.5,0.3-1.3,1.2-1.9c0.9-0.6,2.2-0.7,2.9-0.7
					c-0.2-0.3-0.5-0.6-0.5-1c0-0.3,0.1-0.4,0.2-0.6c-0.2,0-0.3,0-0.5,0c-1.6,0-2.5-1.2-2.5-2.4c0-0.7,0.3-1.5,1-2
					c0.9-0.7,1.9-0.8,2.7-0.8h3.1l-1,0.5H67.5z M66.4,24.6c-0.1,0-0.2,0-0.3,0c-0.1,0-1,0-1.6,0.2c-0.3,0.1-1.3,0.5-1.3,1.6
					c0,1.1,1.1,1.9,2.7,1.9c1.5,0,2.2-0.7,2.2-1.6C68.1,25.8,67.6,25.4,66.4,24.6z M66.9,21.7c0.3-0.3,0.4-0.8,0.4-1.1
					c0-1.1-0.7-2.8-1.9-2.8c-0.4,0-0.8,0.2-1.1,0.5c-0.3,0.3-0.3,0.7-0.3,1.1c0,1,0.6,2.7,1.9,2.7C66.2,22.1,66.6,21.9,66.9,21.7z"
					/>
				<path class="st4" d="M57.9,24.3c-2.4,0-3.7-1.9-3.7-3.6c0-2,1.6-3.7,3.9-3.7c2.2,0,3.6,1.7,3.6,3.6
					C61.8,22.4,60.4,24.3,57.9,24.3z M59.8,23.1c0.4-0.5,0.5-1.1,0.5-1.7c0-1.3-0.6-3.9-2.5-3.9c-0.5,0-1,0.2-1.4,0.5
					c-0.6,0.5-0.7,1.2-0.7,1.9c0,1.5,0.7,4,2.6,4C58.9,23.9,59.5,23.6,59.8,23.1z"/>
				<path class="st4" d="M49.7,24.3c-2.4,0-3.7-1.9-3.7-3.6c0-2,1.6-3.7,3.9-3.7c2.2,0,3.6,1.7,3.6,3.6
					C53.6,22.4,52.2,24.3,49.7,24.3z M51.6,23.1C52,22.6,52,22,52,21.4c0-1.3-0.6-3.9-2.5-3.9c-0.5,0-1,0.2-1.4,0.5
					c-0.6,0.5-0.7,1.2-0.7,1.9c0,1.5,0.7,4,2.6,4C50.6,23.9,51.2,23.6,51.6,23.1z"/>
				<path class="st4" d="M44.8,24.1l-2.2,0.5c-0.9,0.1-1.7,0.3-2.5,0.3c-4.2,0-5.8-3.1-5.8-5.5c0-3,2.3-5.7,6.2-5.7
					c0.8,0,1.6,0.1,2.3,0.3c1.1,0.3,1.7,0.7,2,0.9l-1.3,1.2L43,16.2l0.4-0.6c-0.5-0.5-1.5-1.4-3.3-1.4c-2.4,0-4.2,1.8-4.2,4.5
					c0,2.9,2.1,5.6,5.4,5.6c1,0,1.5-0.2,1.9-0.4v-2.5l-2.3,0.1l1.2-0.7h3.2L45,21.2c-0.1,0.1-0.1,0.1-0.2,0.2c0,0.1,0,0.6,0,0.7
					V24.1z"/>
				<path class="st4" d="M72.4,23.6c-0.5,0-0.6-0.1-0.6-0.7v-0.2v-8.5c0,0,0-0.1,0-0.1c0.1-0.5,0.2-0.6,0.7-0.9h-2.2l-1.1,0.5h1.2v0
					l0,0v8.9v0.5c0,0.3-0.1,0.4-0.4,0.8h2.7l0.6-0.3C72.9,23.7,72.6,23.7,72.4,23.6z"/>
				<path class="st4" d="M78.6,23.8c-0.2,0.1-0.3,0.2-0.5,0.3c-0.5,0.2-1,0.3-1.5,0.3c-0.5,0-1.2,0-2-0.6C73.5,23,73,21.7,73,20.5
					c0-2.3,1.9-3.5,3.5-3.5c0.5,0,1.1,0.1,1.6,0.4c0.8,0.5,1,1.1,1.1,1.5l-3.6,1.4l-1.2,0.1c0.4,1.9,1.7,3,3.1,3
					c0.8,0,1.3-0.3,1.9-0.5L78.6,23.8z M77.1,19.3c0.3-0.1,0.4-0.2,0.4-0.4c0-0.6-0.7-1.3-1.5-1.3c-0.6,0-1.7,0.5-1.7,2.1
					c0,0.3,0,0.5,0,0.8L77.1,19.3z"/>
				<g>
					<path class="st4" d="M80,17.2v1h-0.1v-1h-0.3v-0.1h0.8v0.1H80z"/>
					<path class="st4" d="M81.4,18.2v-1h0l-0.3,1H81l-0.3-1h0v1h-0.1v-1.1h0.2l0.3,0.9h0l0.3-0.9h0.2v1.1H81.4z"/>
				</g>
			</g>
			<g>
				<path class="st4" d="M37.3,10.6h-0.8c0-0.1-0.1-0.4-0.2-0.9h-1.1c-0.1,0.5-0.2,0.8-0.2,0.9h-0.7c0-0.1,0.2-0.6,0.6-1.5
					c0.4-0.9,0.6-1.5,0.6-1.6h0.9c0,0.1,0.2,0.6,0.5,1.5C37.2,10,37.3,10.6,37.3,10.6z M36.2,9.3C36,8.5,35.8,8.1,35.8,8h0
					c0,0.1-0.1,0.5-0.4,1.3H36.2z"/>
				<path class="st4" d="M40.4,10.6h-0.6c0-0.1-0.2-0.4-0.7-1c-0.5-0.7-0.7-1.1-0.8-1.3h0c0,0.3,0.1,0.7,0.1,0.9c0,0.4,0,0.9,0,1.4
					h-0.6c0-0.5,0-1,0-1.6c0-0.6,0-1.1,0-1.5h0.7c0,0.1,0.2,0.4,0.6,1c0.4,0.6,0.7,1,0.7,1.3h0c0-0.4-0.1-0.7-0.1-0.9
					c0-0.4,0-0.9,0-1.3h0.6c0,0.4,0,0.9,0,1.5C40.4,9.6,40.4,10.2,40.4,10.6z"/>
				<path class="st4" d="M43.8,9c0,0.4-0.1,0.8-0.4,1.2c-0.3,0.3-0.7,0.5-1.2,0.5c-0.2,0-0.6,0-1,0c0-0.5,0-1,0-1.6
					c0-0.6,0-1.1,0-1.5h0.4c0.1,0,0.2,0,0.3,0c0.1,0,0.2,0,0.3,0c0.6,0,1,0.1,1.2,0.4C43.7,8.3,43.8,8.6,43.8,9z M43.2,9.1
					c0-0.3-0.1-0.6-0.3-0.8C42.7,8.1,42.5,8,42.1,8c-0.1,0-0.2,0-0.3,0c0,0.3,0,0.6,0,1c0,0.4,0,0.8,0,1.1c0.1,0,0.2,0,0.3,0
					c0.3,0,0.6-0.1,0.8-0.3C43.1,9.7,43.2,9.4,43.2,9.1z"/>
				<path class="st4" d="M47,10.6h-0.7c-0.2-0.6-0.3-0.9-0.4-1c-0.1-0.1-0.3-0.2-0.5-0.2c-0.1,0-0.2,0-0.3,0c0,0.4,0,0.8,0,1.2h-0.7
					c0-0.5,0-1,0-1.6c0-0.6,0-1.1,0-1.5h0.4c0,0,0.1,0,0.3,0c0.2,0,0.3,0,0.4,0c0.7,0,1.1,0.2,1.1,0.7c0,0.4-0.2,0.7-0.6,0.8v0
					c0.2,0,0.3,0.2,0.4,0.4C46.6,9.7,46.8,10.1,47,10.6z M46.1,8.5c0-0.3-0.2-0.5-0.6-0.5c-0.1,0-0.3,0-0.4,0c0,0.2,0,0.6,0,1
					c0.1,0,0.2,0,0.2,0C45.9,9,46.1,8.8,46.1,8.5z"/>
				<path class="st4" d="M50.4,9c0,0.5-0.1,0.9-0.4,1.2c-0.3,0.3-0.7,0.5-1.1,0.5c-0.4,0-0.8-0.1-1-0.4c-0.3-0.3-0.4-0.7-0.4-1.1
					c0-0.5,0.1-0.9,0.4-1.2c0.3-0.3,0.7-0.5,1.1-0.5c0.4,0,0.8,0.1,1,0.4C50.3,8.2,50.4,8.6,50.4,9z M49.7,9.1
					c0-0.3-0.1-0.6-0.3-0.8C49.3,8.1,49.1,8,48.9,8c-0.2,0-0.4,0.1-0.6,0.3C48.1,8.5,48,8.8,48,9.1c0,0.3,0.1,0.6,0.3,0.8
					c0.2,0.2,0.4,0.3,0.6,0.3c0.2,0,0.4-0.1,0.6-0.3C49.7,9.7,49.7,9.4,49.7,9.1z"/>
				<path class="st4" d="M51.7,10.6h-0.7c0-0.5,0-1,0-1.6c0-0.6,0-1.1,0-1.5h0.7c0,0.4,0,0.9,0,1.5C51.7,9.6,51.7,10.2,51.7,10.6z"
					/>
				<path class="st4" d="M55.2,9c0,0.4-0.1,0.8-0.4,1.2c-0.3,0.3-0.7,0.5-1.2,0.5c-0.2,0-0.6,0-1,0c0-0.5,0-1,0-1.6
					c0-0.6,0-1.1,0-1.5H53c0.1,0,0.2,0,0.3,0c0.1,0,0.2,0,0.3,0c0.6,0,1,0.1,1.2,0.4C55.1,8.3,55.2,8.6,55.2,9z M54.5,9.1
					c0-0.3-0.1-0.6-0.3-0.8C54.1,8.1,53.8,8,53.5,8c-0.1,0-0.2,0-0.3,0c0,0.3,0,0.6,0,1c0,0.4,0,0.8,0,1.1c0.1,0,0.2,0,0.3,0
					c0.3,0,0.6-0.1,0.8-0.3C54.5,9.7,54.5,9.4,54.5,9.1z"/>
				<path class="st4" d="M59.7,10.6H59c0-0.1-0.1-0.4-0.2-0.9h-1.1c-0.1,0.5-0.2,0.8-0.2,0.9h-0.7c0-0.1,0.2-0.6,0.6-1.5
					c0.4-0.9,0.6-1.5,0.6-1.6h0.9c0,0.1,0.2,0.6,0.5,1.5C59.6,10,59.7,10.6,59.7,10.6z M58.6,9.3c-0.3-0.8-0.4-1.3-0.4-1.3h0
					c0,0.1-0.1,0.5-0.4,1.3H58.6z"/>
				<path class="st4" d="M62.5,8.4c0,0.4-0.1,0.7-0.4,0.8c-0.3,0.2-0.6,0.3-1,0.3c-0.1,0-0.1,0-0.2,0c0,0.3,0,0.7,0,1.2h-0.7
					c0-0.5,0-1,0-1.6c0-0.6,0-1.1,0-1.5h0.4c0.1,0,0.2,0,0.3,0c0.2,0,0.3,0,0.4,0c0.3,0,0.6,0.1,0.8,0.2C62.4,7.9,62.5,8.1,62.5,8.4
					z M61.9,8.5c0-0.3-0.2-0.5-0.7-0.5c-0.1,0-0.2,0-0.4,0c0,0.3,0,0.6,0,1c0,0,0.1,0,0.1,0C61.6,9,61.9,8.9,61.9,8.5z"/>
				<path class="st4" d="M65.4,8.4c0,0.4-0.1,0.7-0.4,0.8c-0.3,0.2-0.6,0.3-1,0.3c-0.1,0-0.1,0-0.2,0c0,0.3,0,0.7,0,1.2h-0.7
					c0-0.5,0-1,0-1.6c0-0.6,0-1.1,0-1.5h0.4c0.1,0,0.2,0,0.3,0c0.2,0,0.3,0,0.4,0c0.3,0,0.6,0.1,0.8,0.2C65.3,7.9,65.4,8.1,65.4,8.4
					z M64.7,8.5c0-0.3-0.2-0.5-0.7-0.5c-0.1,0-0.2,0-0.4,0c0,0.3,0,0.6,0,1c0,0,0.1,0,0.1,0C64.5,9,64.7,8.9,64.7,8.5z"/>
				<path class="st4" d="M70,9c0,0.5-0.1,0.9-0.4,1.2s-0.7,0.5-1.1,0.5c-0.4,0-0.8-0.1-1-0.4C67.1,10,67,9.6,67,9.2
					c0-0.5,0.1-0.9,0.4-1.2c0.3-0.3,0.7-0.5,1.1-0.5c0.4,0,0.8,0.1,1,0.4C69.9,8.2,70,8.6,70,9z M69.4,9.1c0-0.3-0.1-0.6-0.3-0.8
					C68.9,8.1,68.7,8,68.5,8c-0.2,0-0.4,0.1-0.6,0.3c-0.2,0.2-0.2,0.5-0.2,0.8c0,0.3,0.1,0.6,0.3,0.8c0.2,0.2,0.4,0.3,0.6,0.3
					c0.2,0,0.4-0.1,0.6-0.3C69.3,9.7,69.4,9.4,69.4,9.1z"/>
				<path class="st4" d="M73.2,10.6h-0.6c0-0.1-0.2-0.4-0.7-1c-0.5-0.7-0.7-1.1-0.8-1.3h0c0,0.3,0.1,0.7,0.1,0.9c0,0.4,0,0.9,0,1.4
					h-0.6c0-0.5,0-1,0-1.6c0-0.6,0-1.1,0-1.5h0.7c0,0.1,0.2,0.4,0.6,1c0.4,0.6,0.7,1,0.7,1.3h0c0-0.4-0.1-0.7-0.1-0.9
					c0-0.4,0-0.9,0-1.3h0.6c0,0.4,0,0.9,0,1.5C73.2,9.6,73.2,10.2,73.2,10.6z"/>
			</g>
		</g>
		<g>
			<g id="PLAY_9_">
				<defs>
					<path id="SVGID_9_" d="M24.5,16.3l-5.1-2.9c0,0-9.3-5.3-9.8-5.7S8.5,7.6,8.5,8.2c0,1.1,0,11.4,0,11.4s0,11.2,0,11.6
						c0,0.5,0.4,0.7,0.9,0.4c0.5-0.3,10.1-5.8,10.1-5.8l5.1-2.9c0,0,4.3-2.5,4.9-2.8c0.6-0.3,0.5-0.8,0-1
						C28.9,18.9,24.5,16.3,24.5,16.3z"/>
				</defs>
				<clipPath id="SVGID_10_">
					<use xlink:href="#SVGID_9_"  style="overflow:visible;"/>
				</clipPath>
			</g>
		</g>
	</g>
</g>
</svg>
