<svg width="26" height="24" viewBox="0 0 26 24" fill="none" xmlns="http://www.w3.org/2000/svg">
<g clip-path="url(#clip0)">
<path fill-rule="evenodd" clip-rule="evenodd" d="M12.666 23.9999L12.6772 24H12.6733L12.666 23.9999ZM12.7547 24H12.7508L12.762 23.9999L12.7547 24ZM12.6276 23.9997L12.6397 23.9998H12.6327L12.6276 23.9997ZM12.7953 23.9998H12.7883L12.8004 23.9997L12.7953 23.9998ZM12.5906 23.9994L12.5987 23.9995L12.5922 23.9994H12.5906ZM12.8358 23.9994L12.8294 23.9995L12.8375 23.9994H12.8358ZM12.8764 23.999L12.8736 23.9991L12.8845 23.9989L12.8764 23.999ZM12.5435 23.9989L12.5545 23.9991L12.5516 23.999L12.5435 23.9989ZM12.9169 23.9985L12.9103 23.9985L12.9238 23.9984L12.9169 23.9985ZM12.5042 23.9984L12.5177 23.9985L12.5111 23.9985L12.5042 23.9984ZM12.9574 23.9978L12.9484 23.9979L12.9609 23.9977L12.9574 23.9978ZM12.4671 23.9977L12.4796 23.9979L12.4706 23.9978L12.4671 23.9977ZM12.4211 23.9968L12.4321 23.997L12.4302 23.997L12.4211 23.9968ZM12.9978 23.997L12.9959 23.997L13.0069 23.9968L12.9978 23.997ZM12.3807 23.9958L12.3959 23.9962L12.3898 23.9961L12.3807 23.9958ZM13.0383 23.9961L13.0321 23.9962L13.0473 23.9958L13.0383 23.9961ZM13.0787 23.995L13.0688 23.9953L13.0843 23.9949L13.0787 23.995ZM12.3437 23.9949L12.3592 23.9953L12.3493 23.995L12.3437 23.9949ZM12.3083 23.9939L12.3194 23.9942L12.309 23.9939L12.2994 23.9936L12.3083 23.9939ZM13.119 23.9939L13.1086 23.9942L13.1197 23.9939L13.1286 23.9936L13.119 23.9939ZM13.1594 23.9926L13.1539 23.9928L13.1708 23.9922L13.1594 23.9926ZM12.2572 23.9922L12.2742 23.9928L12.2687 23.9926L12.2572 23.9922ZM12.2204 23.9909L12.2382 23.9915L12.2283 23.9912L12.2204 23.9909ZM13.1997 23.9912L13.1898 23.9915L13.2076 23.9909L13.1997 23.9912ZM12.1843 23.9895L12.2017 23.9902L12.1881 23.9897L12.1843 23.9895ZM13.2399 23.9897L13.2263 23.9902L13.2437 23.9895L13.2399 23.9897ZM12.1338 23.9874L12.1524 23.9882L12.1479 23.988L12.1338 23.9874ZM13.2802 23.988L13.2756 23.9882L13.2943 23.9874L13.2802 23.988ZM12.0975 23.9858L12.1168 23.9866L12.1077 23.9863L12.0975 23.9858ZM13.3203 23.9863L13.3112 23.9866L13.3305 23.9858L13.3203 23.9863ZM12.0617 23.9841L12.0812 23.985L12.0675 23.9844L12.0617 23.9841ZM13.3605 23.9844L13.3468 23.985L13.3663 23.9841L13.3605 23.9844ZM13.4007 23.9824L13.3829 23.9833L13.3987 23.9825L13.4172 23.9815L13.4007 23.9824ZM12.0294 23.9825L12.0451 23.9833L12.0273 23.9824L12.0108 23.9815L12.0294 23.9825ZM13.4407 23.9802L13.4329 23.9806L13.4528 23.9796L13.4407 23.9802ZM11.9752 23.9796L11.9951 23.9806L11.9873 23.9802L11.9752 23.9796ZM11.9397 23.9775L11.9596 23.9787L11.9472 23.978L11.9397 23.9775ZM13.4808 23.978L13.4684 23.9787L13.4883 23.9775L13.4808 23.978ZM11.9059 23.9755L11.9238 23.9766L11.9071 23.9756L11.8903 23.9746L11.9059 23.9755ZM13.5209 23.9756L13.5042 23.9766L13.5221 23.9755L13.5377 23.9746L13.5209 23.9756ZM13.5609 23.9731L13.5549 23.9735L13.5739 23.9723L13.5609 23.9731ZM11.8541 23.9723L11.8731 23.9735L11.8672 23.9731L11.8541 23.9723ZM11.8187 23.97L11.8374 23.9712L11.8272 23.9706L11.8187 23.97ZM13.6008 23.9706L13.5906 23.9712L13.6093 23.97L13.6008 23.9706ZM11.7834 23.9676L11.8006 23.9687L11.7873 23.9678L11.7834 23.9676ZM13.6408 23.9678L13.6274 23.9687L13.6446 23.9676L13.6408 23.9678ZM11.7359 23.9641L11.751 23.9652L11.7473 23.965L11.7359 23.9641ZM13.6807 23.965L13.677 23.9652L13.6921 23.9641L13.6807 23.965ZM13.7205 23.962L13.7133 23.9625L13.7286 23.9614L13.7205 23.962ZM11.6994 23.9614L11.7147 23.9625L11.7075 23.962L11.6994 23.9614ZM11.6638 23.9586L11.6768 23.9596L11.6676 23.9589L11.6638 23.9586ZM13.7604 23.9589L13.7512 23.9596L13.7642 23.9586L13.7604 23.9589ZM11.6246 23.9555L11.6285 23.9558L11.6279 23.9557L11.6246 23.9555ZM13.8002 23.9557L13.7995 23.9558L13.8034 23.9555L13.8002 23.9557ZM13.8399 23.9524L13.8364 23.9527L13.8453 23.952L13.8399 23.9524ZM11.5827 23.952L11.5916 23.9527L11.5881 23.9524L11.5827 23.952ZM11.5459 23.9488L11.5525 23.9494L11.5484 23.949L11.5459 23.9488ZM13.8796 23.949L13.8755 23.9494L13.8821 23.9488L13.8796 23.949ZM10.7497 23.8541C4.74298 22.9529 0.142578 17.9852 0.142578 12C0.142578 5.37703 5.77566 0 12.714 0C19.6524 0 25.2854 5.37703 25.2854 12C25.2854 17.9852 20.685 22.9529 14.6783 23.8541V15.4688H17.6075L18.1649 12H14.6783V9.74902C14.6783 8.80003 15.1653 7.875 16.727 7.875H18.3122V4.92188C18.3122 4.92188 16.8736 4.6875 15.4981 4.6875C12.6265 4.6875 10.7497 6.34875 10.7497 9.35625V12H7.55776V15.4688H10.7497V23.8541Z" fill="white"/>
</g>
<defs>
<clipPath id="clip0">
<rect width="25.1429" height="24" fill="white" transform="translate(0.142578)"/>
</clipPath>
</defs>
</svg>
