<svg width="189" height="52" viewBox="0 0 189 52" fill="none" xmlns="http://www.w3.org/2000/svg">
<path d="M156.691 15.1096H137.737C137.207 15.1096 136.732 14.7176 136.702 14.1972C136.671 13.6405 137.12 13.1826 137.68 13.1826H156.634C157.163 13.1826 157.639 13.5746 157.669 14.0951C157.699 14.6485 157.247 15.1096 156.691 15.1096Z" fill="#5A86C5" stroke="#5A86C5" stroke-miterlimit="10"/>
<path d="M166.089 21.2005H131.967C131.438 21.2005 130.962 20.8085 130.932 20.288C130.902 19.7313 131.351 19.2734 131.91 19.2734H166.032C166.562 19.2734 167.037 19.6654 167.067 20.1859C167.098 20.7393 166.649 21.2005 166.089 21.2005Z" fill="#5A86C5" stroke="#5A86C5" stroke-miterlimit="10"/>
<path d="M152.844 27.7092H134.53C134.001 27.7092 133.525 27.3173 133.495 26.7968C133.465 26.2401 133.914 25.7822 134.474 25.7822H152.787C153.317 25.7822 153.793 26.1742 153.823 26.6947C153.853 27.2514 153.404 27.7092 152.844 27.7092Z" fill="#5A86C5" stroke="#5A86C5" stroke-miterlimit="10"/>
<path d="M146.076 0H60.9964C51.4809 0 43.7378 7.61257 43.7378 16.9677V46.6472H49.5443C52.2481 46.6472 54.4863 45.7676 56.2587 44.0086C58.0278 42.2496 58.9157 40.059 58.9157 37.4337C58.9157 34.8083 58.0278 32.6145 56.2587 30.8554C54.4863 29.0997 52.2481 28.2202 49.5443 28.2202H46.0832V16.9677C46.0832 8.88407 52.7742 2.30584 60.9964 2.30584H144.904V7.90903C144.904 8.54479 145.426 9.06195 146.076 9.06195C146.723 9.06195 147.249 8.54479 147.249 7.90903V1.15292C147.249 0.517167 146.723 0 146.076 0ZM46.1803 30.5656H49.4907C51.511 30.5656 53.1762 31.2178 54.4863 32.5222C55.7963 33.8267 56.4497 35.4638 56.4497 37.4337C56.4497 39.4035 55.7963 41.0407 54.4863 42.3418C53.1762 43.6496 51.511 44.2985 49.4907 44.2985H46.1803V30.5656Z" fill="#5A86C5"/>
<path d="M73.8859 40.2863C73.8859 40.7574 73.8691 41.1033 73.8356 41.3207H63.5395C63.7271 42.3319 64.2062 43.1456 64.9768 43.7681C65.7474 44.3907 66.6789 44.7037 67.7745 44.7037C69.3493 44.7037 70.5488 44.0811 71.3696 42.8359L73.2694 44.0481C72.6864 44.9408 71.9158 45.6425 70.9575 46.1563C69.9993 46.6702 68.9372 46.9272 67.7745 46.9272C65.8413 46.9272 64.2464 46.2914 63 45.0199C61.7503 43.7484 61.1271 42.1705 61.1271 40.2863C61.1271 38.4021 61.7302 36.8243 62.9364 35.5528C64.1425 34.2813 65.6804 33.6455 67.5467 33.6455C69.4129 33.6455 70.9374 34.278 72.1168 35.5396C73.2962 36.8012 73.8859 38.3857 73.8859 40.2863ZM67.5433 35.869C66.4477 35.869 65.5397 36.1819 64.8227 36.8012C64.1023 37.4238 63.6668 38.2572 63.5126 39.3014H71.5506C71.3964 38.2572 70.9609 37.4238 70.2405 36.8012C69.5201 36.1786 68.6222 35.869 67.5433 35.869Z" fill="#5A86C5"/>
<path d="M76.7606 46.647V27.4097H79.0725V46.647H76.7606Z" fill="#5A86C5"/>
<path d="M82.7949 30.5785C82.4866 30.2689 82.3325 29.8835 82.3325 29.4289C82.3325 28.9743 82.4866 28.5922 82.7949 28.2793C83.1031 27.9663 83.4952 27.8115 83.9776 27.8115C84.4601 27.8115 84.8521 27.9663 85.1604 28.2793C85.4686 28.5922 85.6227 28.9743 85.6227 29.4289C85.6227 29.8835 85.4686 30.2656 85.1604 30.5785C84.8521 30.8915 84.4601 31.0463 83.9776 31.0463C83.4952 31.0463 83.1031 30.8915 82.7949 30.5785ZM85.1336 33.9253V46.6502H82.8217V33.9253H85.1336Z" fill="#5A86C5"/>
<path d="M97.1753 33.9253H99.6413L94.6088 46.6502H92.374L87.3683 33.9253H89.8578L93.5032 43.3661L97.1753 33.9253Z" fill="#5A86C5"/>
<path d="M113.405 40.2863C113.405 40.7574 113.389 41.1033 113.355 41.3207H103.059C103.246 42.3319 103.726 43.1456 104.496 43.7681C105.267 44.3907 106.198 44.7037 107.294 44.7037C108.869 44.7037 110.068 44.0811 110.889 42.8359L112.789 44.0481C112.206 44.9408 111.435 45.6425 110.477 46.1563C109.519 46.6702 108.457 46.9272 107.294 46.9272C105.361 46.9272 103.766 46.2914 102.519 45.0199C101.27 43.7484 100.646 42.1705 100.646 40.2863C100.646 38.4021 101.25 36.8243 102.456 35.5528C103.662 34.2813 105.2 33.6455 107.066 33.6455C108.932 33.6455 110.457 34.278 111.636 35.5396C112.816 36.8012 113.405 38.3857 113.405 40.2863ZM107.059 35.869C105.964 35.869 105.056 36.1819 104.339 36.8012C103.618 37.4238 103.183 38.2572 103.029 39.3014H111.067C110.913 38.2572 110.477 37.4238 109.757 36.8012C109.04 36.1786 108.138 35.869 107.059 35.869Z" fill="#5A86C5"/>
<path d="M122.006 33.8989H123.547V36.1455H121.775C120.834 36.1455 120.066 36.4518 119.477 37.0678C118.887 37.6838 118.592 38.4447 118.592 39.3539V46.6502H116.28V33.9253H118.565V35.4636C119.353 34.4194 120.498 33.8989 122.006 33.8989Z" fill="#5A86C5"/>
<path d="M134.46 33.9257H136.976L129.836 52.0002H127.347L129.555 46.42L124.626 33.9224H127.143L130.788 43.2643L134.46 33.9257Z" fill="#5A86C5"/>
<path d="M140.444 42.8095C140.444 43.4156 140.679 43.8899 141.151 44.2358C141.623 44.5817 142.243 44.7529 143.014 44.7529C143.785 44.7529 144.401 44.5817 144.863 44.2358C145.326 43.8899 145.557 43.4485 145.557 42.9116C145.557 42.1704 145.121 41.6928 144.247 41.4721C143.905 41.37 143.386 41.2876 142.692 41.2184C141.999 41.1525 141.516 41.0932 141.242 41.0405C140.267 40.8396 139.523 40.4344 139.007 39.8283C138.494 39.2222 138.236 38.4975 138.236 37.6575C138.236 36.4947 138.672 35.5362 139.546 34.7785C140.421 34.0209 141.55 33.6421 142.937 33.6421C144.307 33.6421 145.436 34.0077 146.328 34.739C147.219 35.4703 147.671 36.419 147.688 37.5785H145.326C145.326 37.0416 145.105 36.61 144.659 36.2905C144.213 35.971 143.641 35.8096 142.94 35.8096C142.22 35.8096 141.647 35.9743 141.221 36.3004C140.793 36.6298 140.578 37.0547 140.578 37.5752C140.578 38.2669 140.99 38.7116 141.811 38.9126C142.153 39.0147 142.672 39.0971 143.366 39.1662C144.059 39.2354 144.559 39.2914 144.867 39.3441C145.825 39.5286 146.566 39.9304 147.088 40.5431C147.611 41.1591 147.872 41.9036 147.872 42.7765C147.872 43.9723 147.423 44.9605 146.525 45.7412C145.627 46.5252 144.448 46.9138 142.994 46.9138C141.573 46.9138 140.401 46.5317 139.476 45.7642C138.551 45 138.089 44.0085 138.089 42.7996H140.444V42.8095Z" fill="white"/>
<path d="M158.879 33.9257H161.395L154.255 52.0002H151.765L153.973 46.42L149.045 33.9224H151.561L155.206 43.2643L158.879 33.9257Z" fill="white"/>
<path d="M169.51 33.6455C171.001 33.6455 172.231 34.1297 173.209 35.0982C174.184 36.0666 174.673 37.2821 174.673 38.7447V46.6472H172.361V39.0741C172.361 38.1485 172.063 37.3843 171.463 36.7782C170.864 36.1721 170.076 35.869 169.101 35.869C168.16 35.869 167.392 36.1753 166.803 36.7913C166.213 37.4073 165.918 38.1682 165.918 39.0774V46.6504H163.606V33.9255H165.918V35.062C166.84 34.1166 168.039 33.6455 169.51 33.6455Z" fill="white"/>
<path d="M189 33.9254L183.016 39.9338L189 46.6504H186.021L180.654 40.5399V46.6504H178.342V27.4131H180.654V39.3277L186.021 33.9254H189Z" fill="white"/>
<path d="M14.0387 9.75391L7.23044 25.7861C3.183 26.1023 0 29.4293 0 33.4909V39.2654C0 39.8319 0.469074 40.2898 1.04537 40.2898H13.1073C13.1073 36.0701 16.5985 32.6377 20.8939 32.6377C25.1859 32.6377 28.6772 36.0701 28.6772 40.2898H41.7844V9.75391H14.0387ZM8.69797 25.7597L14.9333 11.0748H40.4375V25.7597H8.69797Z" fill="#5A86C5"/>
<path d="M27.672 40.2899C27.672 43.9726 24.6364 46.957 20.8939 46.957C17.148 46.957 14.1124 43.9726 14.1124 40.2899C14.1124 36.6104 17.148 33.626 20.8939 33.626C24.6364 33.626 27.672 36.6104 27.672 40.2899Z" fill="#5A86C5"/>
</svg>
