<?xml version="1.0" encoding="utf-8"?>
<!-- Generator: Adobe Illustrator 24.3.0, SVG Export Plug-In . SVG Version: 6.00 Build 0)  -->
<svg version="1.1" id="Layer_1" xmlns="http://www.w3.org/2000/svg" xmlns:xlink="http://www.w3.org/1999/xlink" x="0px" y="0px"
	 viewBox="0 0 113 37" style="enable-background:new 0 0 113 37;" xml:space="preserve">
<style type="text/css">
	.st0{fill:#FFFFFF;}
</style>
<g>
	<path d="M113,31.9c0,2.7-2.2,5-5,5H5c-2.8,0-5-2.2-5-5V5.1c0-2.7,2.2-5,5-5h103c2.8,0,5,2.2,5,5V31.9z"/>
	<g>
		<path class="st0" d="M30.1,24.4c-0.6,1.3-0.9,1.9-1.6,3.1c-1.1,1.6-2.6,3.6-4.4,3.7c-1.7,0-2.1-1.1-4.3-1.1
			c-2.2,0-2.7,1.1-4.4,1.1c-1.9,0-3.3-1.8-4.4-3.5C8,23.1,7.6,17.8,9.5,15c1.3-2,3.4-3.2,5.3-3.2c2,0,3.2,1.1,4.8,1.1
			c1.6,0,2.5-1.1,4.8-1.1c1.7,0,3.6,0.9,4.9,2.6C25.1,16.7,25.8,22.8,30.1,24.4z"/>
		<g>
			<path class="st0" d="M22.7,10c0.8-1.1,1.5-2.6,1.2-4.1c-1.4,0.1-2.9,1-3.9,2.1c-0.8,1-1.5,2.5-1.3,4C20.3,12,21.9,11.1,22.7,10z"
				/>
		</g>
	</g>
	<g>
		<g>
			<path class="st0" d="M39.2,14.9l-4.3,12.6h2l1.3-3.9h4.1l1.3,3.9h2l-4.3-12.6H39.2z M40.2,17c0.1,0.6,0.3,1.1,0.5,1.8l1.2,3.3
				h-3.3l1.1-3.4C39.9,18.2,40,17.6,40.2,17z"/>
			<path class="st0" d="M51.1,18.2c-1.3,0-2.3,0.5-3,1.5L48,18.4h-1.7l0,0.2c0.1,0.8,0.1,1.6,0.1,2.9v9.7h1.9v-4.5
				c0.6,0.7,1.5,1.1,2.6,1.1c1.1,0,2.1-0.4,2.9-1.2c0.8-0.9,1.3-2.1,1.3-3.7c0-1.3-0.4-2.5-1.1-3.3C53.2,18.6,52.2,18.2,51.1,18.2z
				 M50.6,19.7c1.7,0,2.5,1.6,2.5,3.1c0,2-1,3.3-2.5,3.3c-1.1,0-2-0.7-2.2-1.8c0-0.2-0.1-0.4-0.1-0.6v-1.5c0-0.1,0-0.3,0.1-0.5
				c0-0.1,0-0.1,0-0.2C48.6,20.5,49.6,19.7,50.6,19.7z"/>
			<path class="st0" d="M60.9,18.2c-1.3,0-2.3,0.5-3,1.5l-0.1-1.3h-1.7l0,0.2c0.1,0.8,0.1,1.6,0.1,2.9v9.7h1.9v-4.5
				c0.6,0.7,1.5,1.1,2.6,1.1c1.1,0,2.1-0.4,2.9-1.2c0.8-0.9,1.3-2.1,1.3-3.7c0-1.3-0.4-2.5-1.1-3.3C63,18.6,62,18.2,60.9,18.2z
				 M60.4,19.7c1.7,0,2.5,1.6,2.5,3.1c0,2-1,3.3-2.5,3.3c-1.1,0-2-0.7-2.2-1.8c0-0.2-0.1-0.4-0.1-0.6v-1.5c0-0.1,0-0.3,0.1-0.5
				c0-0.1,0-0.1,0-0.2C58.4,20.5,59.4,19.7,60.4,19.7z"/>
			<path class="st0" d="M73.2,20.2c-1.8-0.7-2.3-1.2-2.3-2.2c0-0.8,0.7-1.7,2.2-1.7c1.2,0,2,0.4,2.2,0.6l0.2,0.1l0.5-1.6l-0.1-0.1
				c-0.3-0.2-1.2-0.6-2.8-0.6c-2.4,0-4.1,1.4-4.1,3.5c0,1.7,1.1,2.8,3.3,3.6c1.6,0.6,2.2,1.2,2.2,2.3c0,1.2-0.9,1.9-2.4,1.9
				c-1,0-2-0.3-2.7-0.8l-0.2-0.1l-0.5,1.6l0.1,0.1c0.7,0.5,2.1,0.8,3.2,0.8c3.3,0,4.4-2,4.4-3.7C76.4,22.2,75.5,21.1,73.2,20.2z"/>
			<path class="st0" d="M79.8,16.2L78,16.8v1.6h-1.4v1.5H78v4.7c0,1.1,0.2,1.9,0.7,2.4c0.4,0.5,1.1,0.7,1.8,0.7
				c0.7,0,1.2-0.1,1.5-0.2l0.1,0l-0.1-1.5l-0.2,0.1c-0.2,0.1-0.5,0.1-0.9,0.1c-0.7,0-1.1-0.5-1.1-1.6v-4.6h2.3v-1.5h-2.3V16.2z"/>
			<path class="st0" d="M86.8,18.2c-2.7,0-4.5,2-4.5,4.8c0,2.8,1.8,4.7,4.4,4.7h0c2.2,0,4.5-1.5,4.5-4.9c0-1.4-0.4-2.5-1.2-3.4
				C89.2,18.6,88.1,18.2,86.8,18.2z M86.8,19.7c1.7,0,2.5,1.7,2.5,3.2c0,1.9-1.1,3.3-2.5,3.3h0c-1.4,0-2.5-1.4-2.5-3.2
				C84.2,21.3,85,19.7,86.8,19.7z"/>
			<path class="st0" d="M97.1,18.3l-0.1,0c-0.2,0-0.3-0.1-0.5-0.1c-1,0-1.9,0.6-2.4,1.5L94,18.4h-1.7l0,0.2c0.1,0.8,0.1,1.6,0.1,2.7
				l0,6.2h1.9v-4.9c0-0.3,0-0.5,0.1-0.7c0.2-1.2,1-1.9,2-1.9c0.2,0,0.3,0,0.5,0l0.2,0V18.3z"/>
			<path class="st0" d="M101.3,18.1c-2.5,0-4.3,2-4.3,4.9c0,2.8,1.8,4.6,4.5,4.6c1.4,0,2.4-0.3,3-0.6l0.1-0.1l-0.4-1.4l-0.2,0.1
				c-0.5,0.2-1.2,0.4-2.4,0.4c-0.8,0-2.7-0.3-2.9-2.8l6.1,0l0-0.1c0-0.2,0.1-0.5,0.1-0.8C105.1,20.5,104.1,18.1,101.3,18.1z
				 M101.2,19.6c0.6,0,1,0.2,1.4,0.5c0.5,0.6,0.6,1.4,0.7,1.8h-4.3C99.1,20.8,99.8,19.6,101.2,19.6z"/>
		</g>
		<g>
			<path class="st0" d="M34.9,6.3c0.5-0.1,1.1-0.1,1.8-0.1c1.2,0,2.1,0.2,2.7,0.7c0.6,0.5,0.9,1.2,0.9,2.1c0,1-0.3,1.8-1,2.3
				c-0.6,0.6-1.6,0.9-2.9,0.9c-0.6,0-1.1,0-1.6-0.1V6.3z M35.8,11.6c0.2,0,0.5,0,0.9,0c1.8,0,2.8-0.9,2.8-2.5c0-1.4-0.9-2.3-2.7-2.3
				c-0.4,0-0.8,0-1,0.1V11.6z"/>
			<path class="st0" d="M43.4,12.3c-1.3,0-2.3-0.8-2.3-2.2c0-1.4,1.1-2.3,2.4-2.3c1.4,0,2.3,0.9,2.3,2.2
				C45.8,11.6,44.5,12.3,43.4,12.3L43.4,12.3z M43.4,11.7c0.8,0,1.4-0.7,1.4-1.7c0-0.7-0.4-1.6-1.4-1.6c-1,0-1.5,0.8-1.5,1.7
				C42,11,42.6,11.7,43.4,11.7L43.4,11.7z"/>
			<path class="st0" d="M47.1,7.9l0.6,2.2c0.1,0.5,0.3,0.9,0.3,1.4h0c0.1-0.4,0.3-0.9,0.4-1.4l0.8-2.2h0.7l0.7,2.1
				c0.2,0.5,0.3,1,0.4,1.4h0c0.1-0.4,0.2-0.9,0.4-1.4l0.7-2.1h0.9l-1.5,4.3h-0.8l-0.7-2c-0.2-0.5-0.3-0.9-0.4-1.4h0
				c-0.1,0.5-0.3,1-0.4,1.4l-0.8,2h-0.8l-1.4-4.3H47.1z"/>
			<path class="st0" d="M54,9.1c0-0.5,0-0.8,0-1.2h0.8l0,0.7h0c0.2-0.4,0.8-0.8,1.6-0.8c0.7,0,1.7,0.4,1.7,1.8v2.6h-0.9V9.7
				c0-0.7-0.3-1.3-1.1-1.3c-0.6,0-1,0.4-1.2,0.8c0,0.1-0.1,0.2-0.1,0.4v2.6H54V9.1z"/>
			<path class="st0" d="M59.5,5.9h0.9v6.3h-0.9V5.9z"/>
			<path class="st0" d="M63.7,12.3c-1.3,0-2.3-0.8-2.3-2.2c0-1.4,1-2.3,2.4-2.3c1.4,0,2.3,0.9,2.3,2.2
				C66.1,11.6,64.8,12.3,63.7,12.3L63.7,12.3z M63.7,11.7c0.8,0,1.4-0.7,1.4-1.7c0-0.7-0.4-1.6-1.4-1.6c-1,0-1.5,0.8-1.5,1.7
				C62.3,11,62.9,11.7,63.7,11.7L63.7,11.7z"/>
			<path class="st0" d="M70.5,11.2c0,0.4,0,0.7,0.1,1h-0.8l-0.1-0.5h0c-0.3,0.3-0.8,0.6-1.5,0.6c-1,0-1.5-0.6-1.5-1.2
				c0-1,1-1.6,2.9-1.6V9.4c0-0.4-0.1-1-1.1-1c-0.5,0-0.9,0.1-1.2,0.3l-0.2-0.5c0.4-0.2,1-0.4,1.6-0.4c1.5,0,1.8,0.9,1.8,1.7V11.2z
				 M69.6,10c-0.9,0-2,0.1-2,1c0,0.5,0.4,0.7,0.8,0.7c0.6,0,1-0.4,1.2-0.7c0-0.1,0-0.2,0-0.2V10z"/>
			<path class="st0" d="M76,5.9v5.2c0,0.4,0,0.8,0,1.1h-0.8l0-0.7h0c-0.3,0.5-0.8,0.8-1.6,0.8c-1.1,0-2-0.9-2-2.2
				c0-1.4,1-2.3,2.1-2.3c0.7,0,1.2,0.3,1.4,0.6h0V5.9H76z M75.1,9.6c0-0.1,0-0.2,0-0.3c-0.1-0.5-0.6-0.9-1.2-0.9
				c-0.9,0-1.4,0.7-1.4,1.6c0,0.9,0.5,1.6,1.4,1.6c0.6,0,1.1-0.4,1.3-0.9c0-0.1,0-0.2,0-0.3V9.6z"/>
			<path class="st0" d="M81.4,12.3c-1.3,0-2.3-0.8-2.3-2.2c0-1.4,1.1-2.3,2.4-2.3c1.4,0,2.3,0.9,2.3,2.2
				C83.8,11.6,82.6,12.3,81.4,12.3L81.4,12.3z M81.5,11.7c0.8,0,1.4-0.7,1.4-1.7c0-0.7-0.4-1.6-1.4-1.6c-1,0-1.5,0.8-1.5,1.7
				C80,11,80.6,11.7,81.5,11.7L81.5,11.7z"/>
			<path class="st0" d="M84.9,9.1c0-0.5,0-0.8,0-1.2h0.8l0,0.7h0c0.2-0.4,0.8-0.8,1.6-0.8c0.7,0,1.7,0.4,1.7,1.8v2.6h-0.9V9.7
				c0-0.7-0.3-1.3-1.1-1.3c-0.6,0-1,0.4-1.2,0.8c0,0.1-0.1,0.2-0.1,0.4v2.6h-0.9V9.1z"/>
			<path class="st0" d="M93.5,6.9v1h1.2v0.6h-1.2v2.3c0,0.5,0.2,0.8,0.6,0.8c0.2,0,0.4,0,0.5-0.1l0,0.6c-0.2,0.1-0.4,0.1-0.8,0.1
				c-0.4,0-0.7-0.1-0.9-0.3c-0.2-0.2-0.3-0.6-0.3-1.1V8.5h-0.7V7.9h0.7V7.1L93.5,6.9z"/>
			<path class="st0" d="M95.7,5.9h0.9v2.7h0c0.1-0.2,0.4-0.4,0.6-0.5c0.3-0.1,0.6-0.2,0.9-0.2c0.6,0,1.7,0.4,1.7,1.8v2.5h-0.9V9.7
				c0-0.7-0.3-1.3-1.1-1.3c-0.6,0-1,0.4-1.2,0.8c0,0.1-0.1,0.2-0.1,0.4v2.6h-0.9V5.9z"/>
			<path class="st0" d="M101.6,10.2c0,1.1,0.8,1.5,1.6,1.5c0.6,0,1-0.1,1.3-0.2l0.2,0.5c-0.3,0.1-0.8,0.3-1.6,0.3
				c-1.5,0-2.3-0.9-2.3-2.2c0-1.3,0.9-2.3,2.2-2.3c1.6,0,2,1.2,2,2c0,0.2,0,0.3,0,0.4L101.6,10.2z M104.1,9.6c0-0.5-0.2-1.3-1.2-1.3
				c-0.9,0-1.3,0.7-1.3,1.3H104.1z"/>
		</g>
	</g>
</g>
</svg>
