<svg width="26" height="24" viewBox="0 0 26 24" fill="none" xmlns="http://www.w3.org/2000/svg">
<path fill-rule="evenodd" clip-rule="evenodd" d="M12.8576 0C19.7959 0 25.429 5.37703 25.429 12C25.429 18.623 19.7959 24 12.8576 24C5.91921 24 0.286133 18.623 0.286133 12C0.286133 5.37703 5.91921 0 12.8576 0ZM12.8576 4.5C10.7237 4.5 10.4561 4.50863 9.61806 4.54514C8.78177 4.58156 8.2106 4.70836 7.71079 4.89375C7.19413 5.08542 6.75595 5.34188 6.31914 5.75883C5.88233 6.17578 5.61367 6.59405 5.41287 7.08722C5.21865 7.56427 5.08586 8.10947 5.04766 8.90775C5.00945 9.70772 5.00042 9.96314 5.00042 12C5.00042 14.0369 5.00945 14.2923 5.04766 15.0922C5.08586 15.8905 5.21865 16.4357 5.41287 16.9128C5.61367 17.406 5.88233 17.8242 6.31914 18.2412C6.75595 18.6582 7.19413 18.9146 7.71079 19.1063C8.2106 19.2916 8.78177 19.4184 9.61806 19.4549C10.4561 19.4914 10.7237 19.5 12.8576 19.5C14.9914 19.5 15.259 19.4914 16.0971 19.4549C16.9334 19.4184 17.5045 19.2916 18.0043 19.1063C18.5209 18.9146 18.9591 18.6582 19.396 18.2412C19.8328 17.8242 20.1015 17.406 20.3023 16.9128C20.4964 16.4357 20.6293 15.8905 20.6674 15.0922C20.7057 14.2923 20.7147 14.0369 20.7147 12C20.7147 9.96314 20.7057 9.70772 20.6674 8.90775C20.6293 8.10947 20.4964 7.56427 20.3023 7.08722C20.1015 6.59405 19.8328 6.17578 19.396 5.75883C18.9591 5.34188 18.5209 5.08542 18.0043 4.89375C17.5045 4.70836 16.9334 4.58156 16.0971 4.54514C15.259 4.50863 14.9914 4.5 12.8576 4.5ZM12.8576 5.85136C14.9555 5.85136 15.204 5.859 16.0325 5.89509C16.7986 5.92847 17.2146 6.05062 17.4915 6.15333C17.8582 6.28936 18.12 6.45192 18.3949 6.71438C18.6699 6.97678 18.8401 7.22667 18.9826 7.57673C19.0902 7.84102 19.2183 8.23809 19.2532 8.96934C19.291 9.76022 19.299 9.99741 19.299 12C19.299 14.0026 19.291 14.2398 19.2532 15.0307C19.2183 15.7619 19.0902 16.159 18.9826 16.4233C18.8401 16.7734 18.6699 17.0232 18.3949 17.2856C18.12 17.5481 17.8582 17.7106 17.4915 17.8467C17.2146 17.9494 16.7986 18.0716 16.0325 18.1049C15.2041 18.141 14.9557 18.1486 12.8576 18.1486C10.7595 18.1486 10.511 18.141 9.68259 18.1049C8.91652 18.0716 8.50053 17.9494 8.22366 17.8467C7.85688 17.7106 7.59514 17.5481 7.32019 17.2856C7.04524 17.0232 6.87499 16.7734 6.73248 16.4233C6.62488 16.159 6.49686 15.7619 6.4619 15.0307C6.42408 14.2398 6.41613 14.0026 6.41613 12C6.41613 9.99741 6.42408 9.76022 6.4619 8.96934C6.49686 8.23809 6.62488 7.84102 6.73248 7.57673C6.87499 7.22667 7.04524 6.97678 7.32019 6.71438C7.59514 6.45192 7.85688 6.28936 8.22366 6.15333C8.50053 6.05062 8.91652 5.92847 9.68259 5.89509C10.5111 5.859 10.7596 5.85136 12.8576 5.85136ZM12.8576 8.14866C10.6292 8.14866 8.82282 9.87295 8.82282 12C8.82282 14.127 10.6292 15.8513 12.8576 15.8513C15.0859 15.8513 16.8923 14.127 16.8923 12C16.8923 9.87295 15.0859 8.14866 12.8576 8.14866ZM12.8576 14.5C11.4111 14.5 10.2385 13.3807 10.2385 12C10.2385 10.6193 11.4111 9.50002 12.8576 9.50002C14.304 9.50002 15.4766 10.6193 15.4766 12C15.4766 13.3807 14.304 14.5 12.8576 14.5ZM17.9946 7.9965C17.9946 8.49356 17.5724 8.89645 17.0517 8.89645C16.531 8.89645 16.1089 8.49356 16.1089 7.9965C16.1089 7.49944 16.531 7.0965 17.0517 7.0965C17.5724 7.0965 17.9946 7.49944 17.9946 7.9965Z" fill="white"/>
</svg>
