<svg width="218" height="60" viewBox="0 0 218 60" fill="none" xmlns="http://www.w3.org/2000/svg">
<path d="M180.733 17.4285H158.871C158.261 17.4285 157.712 16.9763 157.677 16.376C157.642 15.7339 158.16 15.2057 158.805 15.2057H180.668C181.278 15.2057 181.827 15.6579 181.862 16.2582C181.897 16.8965 181.375 17.4285 180.733 17.4285Z" fill="#5A86C5" stroke="#5A86C5" stroke-miterlimit="10"/>
<path d="M191.574 24.4537H152.216C151.606 24.4537 151.057 24.0015 151.022 23.4012C150.987 22.7591 151.505 22.231 152.151 22.231H191.508C192.119 22.231 192.667 22.6831 192.702 23.2834C192.737 23.9217 192.219 24.4537 191.574 24.4537Z" fill="#5A86C5" stroke="#5A86C5" stroke-miterlimit="10"/>
<path d="M176.297 31.9614H155.173C154.562 31.9614 154.013 31.5093 153.979 30.909C153.944 30.2668 154.462 29.7387 155.107 29.7387H176.231C176.842 29.7387 177.391 30.1908 177.425 30.7912C177.46 31.4333 176.942 31.9614 176.297 31.9614Z" fill="#5A86C5" stroke="#5A86C5" stroke-miterlimit="10"/>
<path d="M168.49 0H70.3554C59.3799 0 50.4487 8.78063 50.4487 19.5712V53.8047H57.1461C60.2649 53.8047 62.8465 52.7902 64.8909 50.7613C66.9314 48.7323 67.9555 46.2057 67.9555 43.1775C67.9555 40.1493 66.9314 37.6188 64.8909 35.5899C62.8465 33.5647 60.2649 32.5503 57.1461 32.5503H53.154V19.5712C53.154 10.2472 60.8716 2.65965 70.3554 2.65965H167.137V9.12259C167.137 9.85589 167.74 10.4524 168.49 10.4524C169.236 10.4524 169.843 9.85589 169.843 9.12259V1.32982C169.843 0.596521 169.236 0 168.49 0ZM53.266 35.2555H57.0843C59.4147 35.2555 61.3354 36.0078 62.8465 37.5124C64.3575 39.017 65.1111 40.9054 65.1111 43.1775C65.1111 45.4496 64.3575 47.3379 62.8465 48.8387C61.3354 50.3471 59.4147 51.0956 57.0843 51.0956H53.266V35.2555Z" fill="#5A86C5"/>
<path d="M85.2229 46.4678C85.2229 47.0112 85.2035 47.4101 85.1649 47.6609H73.2889C73.5053 48.8273 74.0579 49.7658 74.9468 50.4839C75.8357 51.202 76.91 51.563 78.1738 51.563C79.9901 51.563 81.3737 50.8448 82.3205 49.4086L84.5118 50.8069C83.8393 51.8365 82.9505 52.6458 81.8452 53.2385C80.7399 53.8312 79.5148 54.1276 78.1738 54.1276C75.9439 54.1276 74.1043 53.3943 72.6667 51.9277C71.2252 50.4611 70.5063 48.6411 70.5063 46.4678C70.5063 44.2945 71.202 42.4746 72.5932 41.008C73.9845 39.5413 75.7584 38.808 77.911 38.808C80.0636 38.808 81.822 39.5375 83.1823 40.9928C84.5427 42.448 85.2229 44.2755 85.2229 46.4678ZM77.9071 41.3727C76.6434 41.3727 75.5961 41.7337 74.769 42.448C73.9381 43.1661 73.4357 44.1273 73.258 45.3318H82.5292C82.3514 44.1273 81.849 43.1661 81.0181 42.448C80.1872 41.7299 79.1515 41.3727 77.9071 41.3727Z" fill="#5A86C5"/>
<path d="M88.5386 53.8047V31.6157H91.2052V53.8047H88.5386Z" fill="#5A86C5"/>
<path d="M95.4987 35.2707C95.1431 34.9136 94.9653 34.469 94.9653 33.9447C94.9653 33.4204 95.1431 32.9796 95.4987 32.6187C95.8542 32.2577 96.3064 32.0792 96.8629 32.0792C97.4194 32.0792 97.8715 32.2577 98.2271 32.6187C98.5826 32.9796 98.7604 33.4204 98.7604 33.9447C98.7604 34.469 98.5826 34.9098 98.2271 35.2707C97.8715 35.6317 97.4194 35.8103 96.8629 35.8103C96.3064 35.8103 95.8542 35.6317 95.4987 35.2707ZM98.1962 39.131V53.8085H95.5296V39.131H98.1962Z" fill="#5A86C5"/>
<path d="M112.086 39.131H114.93L109.125 53.8084H106.548L100.774 39.131H103.645L107.85 50.0203L112.086 39.131Z" fill="#5A86C5"/>
<path d="M130.806 46.4678C130.806 47.0112 130.787 47.4101 130.748 47.6609H118.872C119.089 48.8273 119.641 49.7658 120.53 50.4839C121.419 51.202 122.494 51.563 123.757 51.563C125.574 51.563 126.957 50.8448 127.904 49.4086L130.095 50.8069C129.423 51.8365 128.534 52.6458 127.429 53.2385C126.323 53.8312 125.098 54.1276 123.757 54.1276C121.527 54.1276 119.688 53.3943 118.25 51.9277C116.809 50.4611 116.09 48.6411 116.09 46.4678C116.09 44.2945 116.785 42.4746 118.177 41.008C119.568 39.5413 121.342 38.808 123.494 38.808C125.647 38.808 127.405 39.5375 128.766 40.9928C130.126 42.448 130.806 44.2755 130.806 46.4678ZM123.487 41.3727C122.223 41.3727 121.176 41.7337 120.349 42.448C119.518 43.1661 119.015 44.1273 118.838 45.3318H128.109C127.931 44.1273 127.429 43.1661 126.598 42.448C125.771 41.7299 124.731 41.3727 123.487 41.3727Z" fill="#5A86C5"/>
<path d="M140.727 39.1006H142.505V41.6918H140.461C139.375 41.6918 138.49 42.0452 137.809 42.7557C137.129 43.4662 136.789 44.3439 136.789 45.3925V53.8084H134.123V39.131H136.758V40.9053C137.666 39.7009 138.988 39.1006 140.727 39.1006Z" fill="#5A86C5"/>
<path d="M155.092 39.131H157.994L149.759 59.9788H146.887L149.434 53.5425L143.749 39.1272H146.651L150.856 49.9026L155.092 39.131Z" fill="#5A86C5"/>
<path d="M161.994 49.3783C161.994 50.0774 162.264 50.6245 162.809 51.0234C163.354 51.4224 164.069 51.62 164.958 51.62C165.847 51.62 166.558 51.4224 167.091 51.0234C167.624 50.6245 167.891 50.1154 167.891 49.496C167.891 48.6412 167.389 48.0902 166.38 47.8357C165.986 47.7179 165.387 47.6229 164.587 47.5431C163.787 47.4671 163.23 47.3987 162.913 47.3379C161.789 47.1062 160.931 46.6388 160.336 45.9397C159.744 45.2406 159.447 44.4047 159.447 43.4358C159.447 42.0946 159.949 40.989 160.958 40.1151C161.967 39.2412 163.269 38.8043 164.869 38.8043C166.45 38.8043 167.752 39.226 168.78 40.0695C169.808 40.913 170.33 42.0072 170.349 43.3447H167.624C167.624 42.7253 167.369 42.2276 166.855 41.8591C166.341 41.4905 165.681 41.3043 164.873 41.3043C164.042 41.3043 163.381 41.4943 162.89 41.8705C162.396 42.2504 162.148 42.7405 162.148 43.3409C162.148 44.1388 162.624 44.6517 163.57 44.8835C163.965 45.0012 164.564 45.0962 165.364 45.176C166.164 45.2558 166.739 45.3204 167.095 45.3812C168.2 45.594 169.054 46.0575 169.657 46.7642C170.26 47.4747 170.562 48.3334 170.562 49.3403C170.562 50.7195 170.044 51.8593 169.008 52.7598C167.972 53.6641 166.612 54.1124 164.935 54.1124C163.296 54.1124 161.943 53.6717 160.877 52.7864C159.81 51.9049 159.277 50.7613 159.277 49.3669H161.994V49.3783Z" fill="#394759"/>
<path d="M183.257 39.131H186.159L177.924 59.9788H175.052L177.599 53.5425L171.914 39.1272H174.816L179.021 49.9026L183.257 39.131Z" fill="#394759"/>
<path d="M195.519 38.808C197.239 38.808 198.658 39.3666 199.786 40.4836C200.911 41.6007 201.475 43.0027 201.475 44.6897V53.8046H198.808V45.0696C198.808 44.002 198.464 43.1205 197.773 42.4214C197.081 41.7223 196.173 41.3727 195.048 41.3727C193.962 41.3727 193.077 41.7261 192.397 42.4366C191.717 43.1471 191.377 44.0247 191.377 45.0734V53.8084H188.71V39.131H191.377V40.4418C192.439 39.3514 193.823 38.808 195.519 38.808Z" fill="#394759"/>
<path d="M218 39.131L211.098 46.0613L218 53.8085H214.565L208.374 46.7604V53.8085H205.707V31.6194H208.374V45.3622L214.565 39.131H218Z" fill="#394759"/>
<path d="M16.1928 11.2502L8.33988 29.7424C3.6714 30.1071 0 33.9446 0 38.6294V45.2899C0 45.9434 0.541048 46.4716 1.20577 46.4716H15.1184C15.1184 41.6044 19.1454 37.6453 24.0998 37.6453C29.0504 37.6453 33.0774 41.6044 33.0774 46.4716H48.1958V11.2502H16.1928ZM10.0326 29.712L17.2247 12.7738H46.6422V29.712H10.0326Z" fill="#5A86C5"/>
<path d="M31.9185 46.4716C31.9185 50.7194 28.4171 54.1618 24.1003 54.1618C19.7797 54.1618 16.2783 50.7194 16.2783 46.4716C16.2783 42.2276 19.7797 38.7852 24.1003 38.7852C28.4171 38.7852 31.9185 42.2276 31.9185 46.4716Z" fill="#5A86C5"/>
</svg>
