<svg width="20" height="15" viewBox="0 0 20 15" fill="none" xmlns="http://www.w3.org/2000/svg">
<path d="M9.4793 6.29306C9.6284 6.39596 9.80528 6.45107 9.98644 6.45107C10.1676 6.45107 10.3445 6.39596 10.4936 6.29306L18.9864 0.450207C18.5707 0.1512 18.0699 -0.00652935 17.5579 0.000207143H2.41501C1.91834 0.000436395 1.43405 0.15521 1.0293 0.443064L9.4793 6.29306Z" fill="white"/>
<path d="M11.3071 7.47196C10.9189 7.73729 10.4596 7.87925 9.98929 7.87925C9.51902 7.87925 9.0597 7.73729 8.67143 7.47196L0.157143 1.5791C0.0551372 1.84601 0.0019109 2.12908 0 2.41482V11.8791C0.00189075 12.5182 0.257087 13.1304 0.709648 13.5816C1.16221 14.0329 1.77521 14.2862 2.41429 14.2862H17.5929C18.2307 14.2844 18.8419 14.0301 19.2929 13.5791C19.7439 13.1281 19.9981 12.5169 20 11.8791V2.41482C19.9987 2.13432 19.9479 1.85625 19.85 1.59339L11.3071 7.47196Z" fill="white"/>
</svg>
