<svg width="16" height="29" viewBox="0 0 16 29" fill="none" xmlns="http://www.w3.org/2000/svg">
<path d="M3.55576 1C2.87906 1.00362 2.23112 1.27082 1.75262 1.74357C1.27411 2.21633 1.00367 2.85649 1 3.52506V25.4749C1.00367 26.1435 1.27411 26.7837 1.75262 27.2564C2.23112 27.7292 2.87906 27.9964 3.55576 28H12.4442C13.1209 27.9964 13.7689 27.7292 14.2474 27.2564C14.7259 26.7837 14.9963 26.1435 15 25.4749V3.52506C14.9963 2.85649 14.7259 2.21633 14.2474 1.74357C13.7689 1.27082 13.1209 1.00362 12.4442 1H3.55576ZM3.55576 1.65841H12.4442C12.8877 1.65996 13.3168 1.81426 13.6575 2.09473C13.9983 2.37521 14.2293 2.7643 14.3109 3.19499H1.6891C1.77069 2.7643 2.00175 2.37521 2.34248 2.09473C2.68321 1.81426 3.11227 1.65996 3.55576 1.65841ZM6.88872 2.09706C6.80035 2.09706 6.7156 2.13175 6.65311 2.19349C6.59062 2.25522 6.55551 2.33896 6.55551 2.42627C6.55551 2.51358 6.59062 2.59731 6.65311 2.65905C6.7156 2.72079 6.80035 2.75547 6.88872 2.75547H9.11215C9.20052 2.75547 9.28527 2.72079 9.34776 2.65905C9.41025 2.59731 9.44536 2.51358 9.44536 2.42627C9.44536 2.33896 9.41025 2.25522 9.34776 2.19349C9.28527 2.13175 9.20052 2.09706 9.11215 2.09706H6.88872ZM1.66642 3.85426H14.3327V24.0521H1.66642V3.85426ZM1.66642 24.7097H14.3327V25.4749C14.3334 25.7204 14.2851 25.9635 14.1904 26.1904C14.0958 26.4173 13.9568 26.6236 13.7814 26.7973C13.6059 26.971 13.3975 27.1088 13.1681 27.2028C12.9386 27.2968 12.6926 27.3451 12.4442 27.345H3.55576C3.30729 27.3453 3.06122 27.297 2.83166 27.2031C2.6021 27.1091 2.39358 26.9713 2.21804 26.7976C2.04251 26.6239 1.90342 26.4176 1.80876 26.1906C1.7141 25.9636 1.66573 25.7204 1.66642 25.4749V24.7097ZM7.99913 24.9294C7.77941 24.9298 7.56473 24.9944 7.38221 25.1153C7.19969 25.2361 7.05753 25.4077 6.97369 25.6084C6.88984 25.809 6.86809 26.0297 6.91116 26.2426C6.95424 26.4555 7.06021 26.6509 7.2157 26.8043C7.37118 26.9577 7.5692 27.0621 7.78471 27.1043C8.00023 27.1465 8.22358 27.1247 8.42654 27.0415C8.6295 26.9584 8.80295 26.8177 8.92499 26.6371C9.04702 26.4566 9.11215 26.2444 9.11215 26.0274C9.11355 25.8828 9.08573 25.7393 9.03031 25.6055C8.9749 25.4717 8.893 25.3501 8.78943 25.2479C8.68585 25.1457 8.56268 25.065 8.42712 25.0105C8.29157 24.9559 8.14636 24.9287 8 24.9303L7.99913 24.9294ZM7.99913 25.5878C8.08694 25.5878 8.17278 25.6136 8.24579 25.6618C8.31881 25.71 8.37571 25.7785 8.40932 25.8586C8.44292 25.9388 8.45172 26.027 8.43458 26.1121C8.41745 26.1972 8.37517 26.2753 8.31308 26.3367C8.25098 26.398 8.17187 26.4398 8.08575 26.4567C7.99962 26.4736 7.91035 26.465 7.82922 26.4318C7.74809 26.3986 7.67875 26.3423 7.62996 26.2702C7.58118 26.1981 7.55514 26.1132 7.55514 26.0265C7.55583 25.9103 7.60298 25.7991 7.68631 25.7171C7.76963 25.6351 7.88239 25.5889 8 25.5887L7.99913 25.5878Z" fill="white" fill-opacity="0.7"/>
<path d="M9.21215 26.0278C9.21361 25.8699 9.1832 25.7133 9.12271 25.5672C9.06215 25.421 8.9727 25.2882 8.85965 25.1767C8.7466 25.0652 8.61224 24.9772 8.46445 24.9177C8.32974 24.8635 8.18632 24.834 8.04121 24.8306L8.03999 24.8294L7.99897 24.8294C7.75975 24.8298 7.52592 24.9002 7.327 25.0319C7.12808 25.1636 6.97295 25.3508 6.88142 25.5698C6.78988 25.7889 6.7661 26.0299 6.81315 26.2624C6.8602 26.4949 6.97591 26.7082 7.14547 26.8755C7.31502 27.0428 7.53081 27.1565 7.76549 27.2024C8.00016 27.2484 8.24338 27.2246 8.46445 27.1341C8.68554 27.0435 8.87467 26.8901 9.00783 26.6932C9.14091 26.4963 9.21205 26.2648 9.21215 26.0278ZM9.21215 26.0278C9.21215 26.028 9.21215 26.0282 9.21214 26.0283L9.11215 26.0274H9.21215C9.21215 26.0275 9.21215 26.0277 9.21215 26.0278ZM3.55576 0.899999L3.55523 0.900001C2.85258 0.903762 2.17955 1.18119 1.68233 1.67244C1.18508 2.16372 0.903813 2.82922 0.9 3.52451V3.52506L0.899998 25.4749L0.900002 25.4755C0.903813 26.1708 1.18508 26.8363 1.68233 27.3276C2.17955 27.8188 2.85258 28.0962 3.55523 28.1H3.55576L12.4442 28.1L12.4448 28.1C13.1474 28.0962 13.8204 27.8188 14.3177 27.3276C14.8149 26.8363 15.0962 26.1708 15.1 25.4755V25.4749L15.1 3.52506L15.1 3.52451C15.0962 2.82922 14.8149 2.16372 14.3177 1.67244C13.8204 1.18119 13.1474 0.903762 12.4448 0.9H12.4442L3.55576 0.899999ZM1.76642 25.4749V24.8097H14.2327V25.4749L14.2327 25.4752C14.2334 25.7073 14.1876 25.9373 14.0981 26.1519C14.0087 26.3666 13.8771 26.5618 13.711 26.7262C13.5449 26.8907 13.3476 27.0212 13.1302 27.1103C12.9128 27.1993 12.6797 27.2451 12.4443 27.245H12.4442H3.55576H3.55567C3.3202 27.2453 3.08702 27.1995 2.86954 27.1105C2.65205 27.0215 2.45457 26.891 2.28839 26.7265C2.12221 26.562 1.99061 26.3668 1.90106 26.1521C1.81151 25.9374 1.76577 25.7074 1.76642 25.4752V25.4749ZM8.00019 25.6887L8.02303 25.6887C8.0829 25.6928 8.14073 25.7122 8.1907 25.7452L8.2283 25.6883L8.1907 25.7452C8.24729 25.7826 8.29121 25.8355 8.3171 25.8973C8.34298 25.959 8.34973 26.0269 8.33655 26.0923C8.32337 26.1578 8.29081 26.2181 8.24279 26.2655C8.19476 26.313 8.13342 26.3454 8.06646 26.3586C7.9995 26.3718 7.9301 26.365 7.8671 26.3392C7.8041 26.3134 7.75045 26.2698 7.7128 26.2142C7.67522 26.1586 7.65521 26.0934 7.65514 26.0268C7.65574 25.9375 7.692 25.8518 7.75645 25.7883C7.82099 25.7248 7.90858 25.6889 8.00019 25.6887ZM3.55593 1.75841H12.4441C12.8646 1.75992 13.2712 1.90624 13.594 2.17194C13.8851 2.41162 14.0916 2.73486 14.1859 3.09499H1.81409C1.90841 2.73486 2.11486 2.41162 2.40603 2.17194C2.72881 1.90624 3.13544 1.75992 3.55593 1.75841ZM6.88872 1.99706C6.77422 1.99706 6.66416 2.04199 6.58283 2.12235C6.50145 2.20274 6.45551 2.31204 6.45551 2.42627C6.45551 2.54049 6.50145 2.64979 6.58283 2.73019C6.66416 2.81054 6.77422 2.85547 6.88872 2.85547H9.11215C9.22666 2.85547 9.33671 2.81054 9.41805 2.73019C9.49942 2.64979 9.54536 2.54049 9.54536 2.42627C9.54536 2.31204 9.49942 2.20274 9.41805 2.12235C9.33671 2.04199 9.22666 1.99706 9.11215 1.99706H6.88872ZM1.76642 3.95426H14.2327V23.9521H1.76642V3.95426Z" stroke="white" stroke-opacity="0.7" stroke-width="0.2"/>
</svg>
