<svg width="21" height="20" viewBox="0 0 21 20" fill="none" xmlns="http://www.w3.org/2000/svg">
<path d="M6.9554 16.168C6.9554 16.168 10.5796 19.3072 14.6377 19.9198C14.6377 19.9198 17.4707 20.5578 19.4359 18.2353C19.4359 18.2353 20.7631 17.2654 19.538 15.7086L16.4753 12.6969C16.4753 12.6969 15.7351 11.8547 14.5611 12.5948L13.1318 13.9985C12.9021 14.2282 12.5448 14.2793 12.2386 14.1006C10.988 13.3605 7.67003 11.14 5.96002 7.79657C5.80688 7.51583 5.85793 7.15851 6.08763 6.95433L7.10853 5.93343C7.10853 5.93343 8.51227 4.70835 7.13405 3.30461L4.1224 0.292957C4.1224 0.292957 3.05045 -0.472718 1.95299 0.471614C1.95299 0.471614 -0.675832 2.66655 0.166411 6.36731C0.166411 6.36731 0.242978 10.2978 6.9554 16.168Z" fill="white"/>
</svg>
