<svg width="26" height="24" viewBox="0 0 26 24" fill="none" xmlns="http://www.w3.org/2000/svg">
<path fill-rule="evenodd" clip-rule="evenodd" d="M12.5714 0C19.5098 0 25.1429 5.37703 25.1429 12C25.1429 18.623 19.5098 24 12.5714 24C5.63308 24 0 18.623 0 12C0 5.37703 5.63308 0 12.5714 0ZM10.2709 18.33C15.8463 18.33 18.8949 13.92 18.8949 10.098C18.8949 9.972 18.8949 9.846 18.8886 9.726C19.4794 9.318 19.9949 8.808 20.4034 8.226C19.8629 8.454 19.2783 8.61 18.6623 8.682C19.2909 8.322 19.7686 7.758 19.9949 7.08C19.4103 7.41 18.7629 7.65 18.0714 7.782C17.5183 7.218 16.7326 6.87 15.8589 6.87C14.1869 6.87 12.8291 8.166 12.8291 9.762C12.8291 9.99 12.8543 10.212 12.9109 10.422C10.3903 10.302 8.15886 9.15 6.66286 7.398C6.40514 7.824 6.25429 8.322 6.25429 8.85C6.25429 9.852 6.78857 10.74 7.60571 11.256C7.10914 11.244 6.644 11.112 6.23543 10.896V10.932C6.23543 12.336 7.27886 13.5 8.668 13.77C8.41657 13.836 8.14629 13.872 7.86971 13.872C7.67486 13.872 7.48629 13.854 7.29771 13.818C7.68114 14.97 8.8 15.804 10.1263 15.828C9.08914 16.602 7.78171 17.064 6.36114 17.064C6.116 17.064 5.87714 17.052 5.63829 17.022C6.96457 17.85 8.56114 18.33 10.2709 18.33Z" fill="white"/>
</svg>
