<svg width="25" height="25" viewBox="0 0 25 25" fill="none" xmlns="http://www.w3.org/2000/svg">
<path d="M12.5 1C6.14872 1 0.999998 6.14873 0.999999 12.5C1 18.8513 6.14873 24 12.5 24C18.8513 24 24 18.8513 24 12.5C24 6.14873 18.8513 1 12.5 1Z" stroke="#959596" stroke-width="1.5" stroke-linecap="round" stroke-linejoin="round"/>
<path d="M12.5001 1C10.2009 1 8.33709 6.14873 8.33709 12.5C8.33709 18.8513 10.2009 24 12.5001 24C14.7992 24 16.6631 18.8513 16.6631 12.5C16.6631 6.14873 14.7992 1 12.5001 1Z" stroke="#959596" stroke-width="1.5" stroke-linecap="round" stroke-linejoin="round"/>
<path d="M23.2637 16.1799L1.78167 16.1799" stroke="#959596" stroke-width="1.5" stroke-linecap="round" stroke-linejoin="round"/>
<path d="M23.2637 8.82007L1.78167 8.82007" stroke="#959596" stroke-width="1.5" stroke-linecap="round" stroke-linejoin="round"/>
</svg>
