<svg width="38" height="38" viewBox="0 0 38 38" fill="none" xmlns="http://www.w3.org/2000/svg">
<path d="M19 0C8.52065 0 0 8.52065 0 19C0 29.4793 8.52065 38 19 38C29.4793 38 38 29.4793 38 19C38 8.52065 29.4793 0 19 0ZM19 2.375C28.1958 2.375 35.625 9.8042 35.625 19C35.625 28.1958 28.1958 35.625 19 35.625C9.8042 35.625 2.375 28.1958 2.375 19C2.375 9.8042 9.8042 2.375 19 2.375ZM18.9876 6.70443C18.8306 6.70604 18.6755 6.73878 18.5312 6.80073C18.387 6.86268 18.2564 6.95263 18.1471 7.06536C18.0379 7.1781 17.952 7.31138 17.8946 7.4575C17.8371 7.60363 17.8092 7.75969 17.8125 7.91667V9.56185C16.6776 9.67698 15.6079 9.97685 14.6953 10.6009C13.4698 11.439 12.6667 12.9239 12.6667 14.7201C12.6667 16.4167 13.6604 17.74 14.8438 18.5423C16.0271 19.3446 17.4236 19.7892 18.6908 20.138C19.8708 20.463 21.0425 20.8847 21.8203 21.4121C22.5981 21.9394 22.9583 22.4061 22.9583 23.2676C22.9583 24.4518 22.6056 24.9968 21.9688 25.4323C21.3319 25.8678 20.2738 26.125 19 26.125C17.1966 26.125 15.3346 24.4668 14.9798 23.3789C14.9426 23.2187 14.8725 23.068 14.7739 22.9363C14.6754 22.8046 14.5506 22.6948 14.4074 22.6139C14.2642 22.533 14.1058 22.4827 13.9422 22.4662C13.7785 22.4497 13.6133 22.4673 13.4568 22.5181C13.3004 22.5688 13.1561 22.6514 13.0333 22.7608C12.9105 22.8702 12.8117 23.0039 12.7432 23.1534C12.6748 23.3029 12.6381 23.4651 12.6356 23.6295C12.633 23.794 12.6647 23.9571 12.7285 24.1087C13.3879 26.1307 15.344 27.9492 17.8125 28.401V30.0833C17.8103 30.2407 17.8393 30.3969 17.898 30.5429C17.9567 30.689 18.0438 30.8219 18.1543 30.9339C18.2648 31.046 18.3965 31.135 18.5416 31.1957C18.6868 31.2565 18.8426 31.2877 19 31.2877C19.1574 31.2877 19.3132 31.2565 19.4584 31.1957C19.6035 31.135 19.7352 31.046 19.8457 30.9339C19.9562 30.8219 20.0433 30.689 20.102 30.5429C20.1607 30.3969 20.1897 30.2407 20.1875 30.0833V28.4505C21.3224 28.3319 22.3921 28.0107 23.3047 27.3867C24.5302 26.5487 25.3333 25.0638 25.3333 23.2676C25.3333 21.5709 24.3396 20.2476 23.1562 19.4453C21.9729 18.643 20.5763 18.1985 19.3092 17.8496C18.1292 17.5247 16.9575 17.1029 16.1797 16.5755C15.4019 16.0482 15.0417 15.5814 15.0417 14.7201C15.0417 13.5358 15.3943 13.0033 16.0312 12.5677C16.6682 12.1322 17.7262 11.875 19 11.875C20.8034 11.875 22.6654 13.5209 23.0202 14.6087C23.0574 14.7689 23.1275 14.9196 23.2261 15.0513C23.3246 15.183 23.4494 15.2928 23.5926 15.3737C23.7358 15.4547 23.8942 15.505 24.0578 15.5215C24.2215 15.538 24.3867 15.5203 24.5432 15.4696C24.6996 15.4189 24.8439 15.3362 24.9667 15.2268C25.0895 15.1175 25.1883 14.9838 25.2568 14.8342C25.3253 14.6847 25.3619 14.5226 25.3644 14.3581C25.367 14.1937 25.3353 14.0305 25.2715 13.8789C24.6121 11.8571 22.656 10.0607 20.1875 9.61133V7.91667C20.1908 7.75761 20.1621 7.59951 20.1032 7.45175C20.0442 7.304 19.9561 7.16959 19.8442 7.05652C19.7323 6.94346 19.5988 6.85402 19.4517 6.79354C19.3045 6.73306 19.1467 6.70275 18.9876 6.70443Z" fill="#2F2E41"/>
</svg>
