<svg width="33" height="38" viewBox="0 0 33 38" fill="none" xmlns="http://www.w3.org/2000/svg">
<path d="M8.51196 18.5034C9.36547 20.2387 10.478 21.6993 11.736 22.7358C13.1068 23.8617 14.5823 24.4625 16.1194 24.5219C16.181 24.5244 16.2418 24.5256 16.3034 24.5256C17.6832 24.5256 19.1148 23.9241 20.5628 22.7351C21.8201 21.6993 22.9326 20.2387 23.7862 18.5034C24.5002 17.8841 27.3338 15.2816 27.1186 13.1675C27.0733 12.7252 26.8833 12.1377 26.2725 11.6523C26.3883 10.2288 26.4736 6.03362 23.896 3.05629C22.1407 1.02899 19.5349 0.000690709 16.1491 0C16.1483 0 16.1468 0 16.1461 0C12.7632 0 10.1574 1.02715 8.40358 3.05295C5.82447 6.03062 5.91057 10.2281 6.02636 11.6523C5.41555 12.1377 5.22476 12.7252 5.17953 13.1675C4.96503 15.2816 7.79796 17.8841 8.51196 18.5034ZM9.55251 4.04821C11.005 2.37055 13.2234 1.51997 16.1461 1.51997C16.1468 1.51997 16.1483 1.51997 16.1491 1.51997C19.0696 1.52072 21.288 2.37014 22.7412 4.04488C24.778 6.39119 24.8478 9.79487 24.7729 11.2342C21.8571 11.0498 19.7601 9.76368 17.9036 8.606C16.3851 7.65862 15.0729 6.84034 13.6152 6.84034C11.7961 6.84034 10.7474 8.1206 9.82267 9.25025C9.10107 10.1317 8.45423 10.9063 7.52061 11.1688C7.44959 9.69577 7.54386 6.36708 9.55251 4.04821ZM7.08672 12.7697C8.97704 12.6574 10.0532 11.3684 10.999 10.2132C11.8132 9.21906 12.516 8.36037 13.6152 8.36037C14.6379 8.36037 15.7787 9.07172 17.0998 9.89594C19.1207 11.1566 21.6336 12.7081 25.2251 12.7782C25.5185 12.9733 25.591 13.1679 25.606 13.3207C25.7151 14.3821 23.9621 16.3722 22.6833 17.4466C22.6002 17.516 22.5333 17.6028 22.4866 17.7004C21.7185 19.3013 20.7194 20.6365 19.5973 21.5609C18.3645 22.5732 17.2312 23.0397 16.1788 23.0033C14.9794 22.9569 13.8097 22.4716 12.7016 21.5616C11.5787 20.6365 10.5797 19.3013 9.8115 17.7004C9.76477 17.6024 9.69795 17.516 9.61484 17.4462C8.33602 16.3745 6.58376 14.3862 6.69208 13.3215C6.70802 13.1661 6.78174 12.9679 7.08672 12.7697Z" fill="#2F2E41"/>
<path d="M0.760044 38H31.5385C31.9586 38 32.2986 37.6597 32.2986 37.24C32.2986 30.9644 28.2937 25.4284 22.3332 23.465C21.9873 23.3492 21.5991 23.5032 21.4248 23.8298C20.7835 25.0347 18.6044 28.215 16.1493 28.6855C13.1998 28.1244 10.8968 23.8724 10.8738 23.829C10.6987 23.5036 10.3164 23.3488 9.9654 23.465C4.00488 25.4284 0 30.9644 0 37.24C0 37.6597 0.339965 38 0.760044 38ZM9.86371 25.1137C10.6927 26.4605 12.995 29.7342 16.032 30.2077C16.1107 30.2196 16.1879 30.2196 16.2666 30.2077C19.3043 29.7342 21.6059 26.4605 22.4349 25.1137C27.2146 26.9392 30.4617 31.3819 30.7563 36.48H1.5423C1.83692 31.3819 5.08399 26.9388 9.86371 25.1137Z" fill="#2F2E41"/>
<path d="M26.747 31.7935H25.5121V30.5585C25.5121 30.1388 25.1721 29.7985 24.7521 29.7985C24.332 29.7985 23.992 30.1388 23.992 30.5585V31.7935H22.7571C22.337 31.7935 21.9971 32.1338 21.9971 32.5535C21.9971 32.9732 22.337 33.3135 22.7571 33.3135H23.992V34.5485C23.992 34.9682 24.332 35.3085 24.7521 35.3085C25.1721 35.3085 25.5121 34.9682 25.5121 34.5485V33.3135H26.747C27.1671 33.3135 27.5071 32.9732 27.5071 32.5535C27.5071 32.1338 27.1671 31.7935 26.747 31.7935Z" fill="#2F2E41"/>
</svg>
