<svg width="38" height="38" viewBox="0 0 38 38" fill="none" xmlns="http://www.w3.org/2000/svg">
<path d="M19.0007 11.0833H14.2507C11.1948 11.0833 8.70898 8.5975 8.70898 5.54167C8.70898 2.48583 11.1948 0 14.2507 0C17.3065 0 19.7923 2.48583 19.7923 5.54167V10.2917L19.0007 11.0833ZM14.2507 1.58333C12.0688 1.58333 10.2923 3.35983 10.2923 5.54167C10.2923 7.7235 12.0688 9.5 14.2507 9.5H18.209V5.54167C18.209 3.35983 16.4325 1.58333 14.2507 1.58333Z" fill="#2F2E41"/>
<path d="M23.7507 11.0833H19.0007L18.209 10.2917V5.54167C18.209 2.48583 20.6948 0 23.7507 0C26.8065 0 29.2923 2.48583 29.2923 5.54167C29.2923 8.5975 26.8065 11.0833 23.7507 11.0833ZM19.7923 9.5H23.7507C25.9341 9.5 27.709 7.7235 27.709 5.54167C27.709 3.35983 25.9341 1.58333 23.7507 1.58333C21.5672 1.58333 19.7923 3.35983 19.7923 5.54167V9.5Z" fill="#2F2E41"/>
<path d="M17.4173 10.2916H15.834V37.2083H17.4173V10.2916Z" fill="#2F2E41"/>
<path d="M22.1673 10.2916H20.584V37.2083H22.1673V10.2916Z" fill="#2F2E41"/>
<path d="M35.4477 19H20.5833V17.4167H35.4477C35.9828 17.4167 36.4167 16.9813 36.4167 16.4461V12.0539C36.4167 11.5187 35.9828 11.0833 35.4477 11.0833H2.37817C1.93958 11.0833 1.58333 11.4396 1.58333 11.8782V16.6218C1.58333 17.0604 1.93958 17.4167 2.37817 17.4167H17.4167V19H2.37817C1.06717 19 0 17.9328 0 16.6218V11.8782C0 10.5672 1.06717 9.5 2.37817 9.5H35.4477C36.8537 9.5 38 10.6463 38 12.0539V16.4461C38 17.8537 36.8537 19 35.4477 19Z" fill="#2F2E41"/>
<path d="M32.8567 38H5.54102C4.2316 38 3.16602 36.9345 3.16602 35.625V17.4214H4.74935V35.625C4.74935 36.0604 5.10402 36.4167 5.54102 36.4167H32.8567C33.0736 36.4167 33.2493 36.2409 33.2493 36.024V18.2084H34.8327V36.024C34.8327 37.1134 33.946 38 32.8567 38Z" fill="#2F2E41"/>
</svg>
