<svg width="469" height="470" viewBox="0 0 469 470" fill="none" xmlns="http://www.w3.org/2000/svg">
<mask id="path-1-inside-1" fill="white">
<path d="M364.352 199.698C359.728 182.611 351.784 166.603 340.974 152.586C330.164 138.57 316.698 126.82 301.347 118.007C285.995 109.194 269.059 103.492 251.503 101.225C233.948 98.9576 216.118 100.17 199.031 104.794C181.945 109.418 165.936 117.362 151.92 128.172C137.903 138.982 126.153 152.448 117.341 167.799C108.528 183.151 102.825 200.087 100.558 217.643C98.2913 235.198 99.5042 253.028 104.128 270.114L177.048 250.382C175.015 242.872 174.482 235.034 175.479 227.318C176.475 219.601 178.982 212.156 182.856 205.409C186.729 198.661 191.894 192.742 198.055 187.99C204.216 183.238 211.253 179.746 218.764 177.714C226.274 175.682 234.112 175.148 241.828 176.145C249.545 177.142 256.99 179.648 263.737 183.522C270.485 187.396 276.404 192.56 281.156 198.721C285.908 204.883 289.4 211.919 291.432 219.43L364.352 199.698Z"/>
</mask>
<path d="M364.352 199.698C359.728 182.611 351.784 166.603 340.974 152.586C330.164 138.57 316.698 126.82 301.347 118.007C285.995 109.194 269.059 103.492 251.503 101.225C233.948 98.9576 216.118 100.17 199.031 104.794C181.945 109.418 165.936 117.362 151.92 128.172C137.903 138.982 126.153 152.448 117.341 167.799C108.528 183.151 102.825 200.087 100.558 217.643C98.2913 235.198 99.5042 253.028 104.128 270.114L177.048 250.382C175.015 242.872 174.482 235.034 175.479 227.318C176.475 219.601 178.982 212.156 182.856 205.409C186.729 198.661 191.894 192.742 198.055 187.99C204.216 183.238 211.253 179.746 218.764 177.714C226.274 175.682 234.112 175.148 241.828 176.145C249.545 177.142 256.99 179.648 263.737 183.522C270.485 187.396 276.404 192.56 281.156 198.721C285.908 204.883 289.4 211.919 291.432 219.43L364.352 199.698Z" stroke="#44E5C4" stroke-width="100" mask="url(#path-1-inside-1)"/>
<mask id="path-2-inside-2" fill="white">
<path d="M99.5422 239.928C100.362 261.933 106.561 283.401 117.597 302.457C128.632 321.512 144.168 337.574 162.845 349.237C181.523 360.901 202.773 367.811 224.739 369.363C246.704 370.915 268.715 367.062 288.847 358.141L258.243 289.076C249.394 292.997 239.719 294.69 230.064 294.008C220.409 293.326 211.068 290.289 202.858 285.162C194.648 280.035 187.819 272.975 182.968 264.599C178.118 256.223 175.393 246.786 175.032 237.114L99.5422 239.928Z"/>
</mask>
<path d="M99.5422 239.928C100.362 261.933 106.561 283.401 117.597 302.457C128.632 321.512 144.168 337.574 162.845 349.237C181.523 360.901 202.773 367.811 224.739 369.363C246.704 370.915 268.715 367.062 288.847 358.141L258.243 289.076C249.394 292.997 239.719 294.69 230.064 294.008C220.409 293.326 211.068 290.289 202.858 285.162C194.648 280.035 187.819 272.975 182.968 264.599C178.118 256.223 175.393 246.786 175.032 237.114L99.5422 239.928Z" stroke="#23488B" stroke-width="100" mask="url(#path-2-inside-2)"/>
</svg>
