<svg width="49" height="49" viewBox="0 0 49 49" fill="none" xmlns="http://www.w3.org/2000/svg">
<path d="M33.2619 39.3396C30.0617 41.1982 26.3555 41.9968 22.6739 41.6209C18.9923 41.245 15.5239 39.714 12.7654 37.247C10.0068 34.78 8.09948 31.5035 7.31641 27.8865C6.53334 24.2695 6.91467 20.4975 8.40582 17.1104C9.89697 13.7234 12.4215 10.8949 15.618 9.02992C18.8145 7.16494 22.5191 6.35906 26.2014 6.72766C29.8838 7.09626 33.3552 8.62042 36.1186 11.082C38.882 13.5435 40.7958 16.8163 41.586 20.4317L31.4631 22.6443C31.1398 21.1652 30.3569 19.8264 29.2264 18.8194C28.0959 17.8124 26.6758 17.1888 25.1694 17.0381C23.663 16.8873 22.1475 17.2169 20.8398 17.9799C19.5321 18.7428 18.4994 19.8999 17.8894 21.2856C17.2794 22.6712 17.1234 24.2143 17.4437 25.6939C17.7641 27.1736 18.5443 28.514 19.6728 29.5232C20.8013 30.5325 22.2202 31.1588 23.7263 31.3126C25.2324 31.4663 26.7486 31.1396 28.0578 30.3793L33.2619 39.3396Z" fill="#3CACA5"/>
</svg>
