<svg width="36" height="21" viewBox="0 0 36 21" fill="none" xmlns="http://www.w3.org/2000/svg">
<path fill-rule="evenodd" clip-rule="evenodd" d="M22.7874 0C23.8755 0 24.7958 0.822306 24.9499 1.88401H28.7249C29.4575 1.88401 29.9739 2.32118 30.4249 2.8009C30.8759 3.28062 31.2855 3.885 31.6749 4.53419C32.4169 5.77131 33.0709 7.15451 33.5249 8.07614H33.9124C34.8346 8.07614 35.5999 8.83142 35.5999 9.77175V16.0267C35.5999 16.967 34.8346 17.7223 33.9124 17.7223H31.2124C30.8464 19.5306 29.259 20.9 27.3624 20.9C25.4761 20.9 23.8915 19.5307 23.5249 17.7223H12.9124C12.5457 19.5307 10.9612 20.9 9.07491 20.9C7.1783 20.9 5.59246 19.5307 5.22491 17.7223H2.58738C1.39435 17.7223 0.399902 16.7458 0.399902 15.5369V2.19802C0.399902 0.989024 1.39435 0 2.58738 0H22.7874ZM22.7874 1.60769H2.58738C2.26922 1.60769 1.9999 1.87383 1.9999 2.19802V15.5369C1.9999 15.861 2.26922 16.1146 2.58738 16.1146H5.22491C5.60631 14.3266 7.18251 12.962 9.07491 12.962C10.9567 12.962 12.5382 14.3196 12.9124 16.1146H23.3749V2.19802C23.3749 1.87383 23.1057 1.60769 22.7874 1.60769ZM28.7249 3.49171H24.9749V8.07614H31.7374C31.3155 7.21285 30.83 6.24699 30.2999 5.36316C29.9433 4.76865 29.5785 4.24246 29.2624 3.90619C28.9463 3.56992 28.7008 3.49171 28.7249 3.49171ZM33.9124 9.67127H24.9749V13.791C25.6364 13.2733 26.4665 12.962 27.3624 12.962C29.4514 13.0497 30.8849 14.1206 31.1999 16.1146H33.9124C33.9663 16.1146 33.9999 16.0764 33.9999 16.0267V9.77173C33.9999 9.72189 33.9663 9.67125 33.9124 9.67125V9.67127ZM27.3624 14.5697C26.0858 14.5697 25.0374 15.6111 25.0374 16.9185C25.0374 18.2457 26.0858 19.2923 27.3624 19.2923C28.6587 19.2923 29.6874 18.2457 29.6874 16.9185C29.6372 15.4175 28.6597 14.6103 27.3624 14.5697ZM9.07491 14.5697C7.7797 14.5697 6.75115 15.6165 6.73739 16.931C6.74139 18.2563 7.77987 19.2923 9.07491 19.2923C10.3515 19.2923 11.3999 18.2457 11.3999 16.9185C11.3999 15.5732 10.5166 14.6441 9.07491 14.5697Z" fill="#2F2E41"/>
</svg>
