<svg width="29" height="35" viewBox="0 0 29 35" fill="none" xmlns="http://www.w3.org/2000/svg">
<path d="M27.9033 13.4288H23.7266V9.29475C23.7266 6.88266 22.7585 4.56936 21.0352 2.86376C19.312 1.15815 16.9748 0.199951 14.5378 0.199951C12.1007 0.199951 9.76354 1.15815 8.04031 2.86376C6.31708 4.56936 5.34898 6.88266 5.34898 9.29475V13.4288H1.17226C0.950711 13.4288 0.738238 13.5159 0.581581 13.6709C0.424923 13.826 0.336914 14.0363 0.336914 14.2556V33.272C0.336914 33.4912 0.424923 33.7015 0.581581 33.8566C0.738238 34.0117 0.950711 34.0988 1.17226 34.0988H27.9033C28.1248 34.0988 28.3373 34.0117 28.4939 33.8566C28.6506 33.7015 28.7386 33.4912 28.7386 33.272V14.2556C28.7386 14.0363 28.6506 13.826 28.4939 13.6709C28.3373 13.5159 28.1248 13.4288 27.9033 13.4288ZM7.01967 9.29475C7.01967 7.32122 7.81175 5.42852 9.22167 4.03303C10.6316 2.63753 12.5438 1.85355 14.5378 1.85355C16.5317 1.85355 18.4439 2.63753 19.8539 4.03303C21.2638 5.42852 22.0559 7.32122 22.0559 9.29475V13.4288H7.01967V9.29475ZM27.0679 32.4452H2.0076V15.0824H27.0679V32.4452Z" fill="white"/>
</svg>
