<svg width="25" height="26" viewBox="0 0 25 26" fill="none" xmlns="http://www.w3.org/2000/svg">
<path d="M9.0756 24.1827H24.2187C24.6249 24.1827 24.9573 23.8503 24.9573 23.444V22.1513C24.9573 21.745 24.6249 21.4126 24.2187 21.4126H9.0756C8.66932 21.4126 8.33691 21.745 8.33691 22.1513V23.444C8.33691 23.8503 8.66932 24.1827 9.0756 24.1827Z" fill="#2F2E41"/>
<path d="M9.0756 14.469H24.2187C24.6249 14.469 24.9573 14.1366 24.9573 13.7304V12.4377C24.9573 12.0314 24.6249 11.699 24.2187 11.699H9.0756C8.66932 11.699 8.33691 12.0314 8.33691 12.4377V13.7304C8.33691 14.1366 8.66932 14.469 9.0756 14.469Z" fill="#2F2E41"/>
<path d="M9.0756 4.79253H24.2187C24.6249 4.79253 24.9573 4.46012 24.9573 4.05385V2.76115C24.9573 2.35487 24.6249 2.02246 24.2187 2.02246H9.0756C8.66932 2.02246 8.33691 2.35487 8.33691 2.76115V4.05385C8.33691 4.46012 8.66932 4.79253 9.0756 4.79253Z" fill="#2F2E41"/>
<path d="M2.83453 25.5494C4.36439 25.5494 5.6046 24.3092 5.6046 22.7793C5.6046 21.2495 4.36439 20.0093 2.83453 20.0093C1.30466 20.0093 0.0644531 21.2495 0.0644531 22.7793C0.0644531 24.3092 1.30466 25.5494 2.83453 25.5494Z" fill="#2F2E41"/>
<path d="M2.83453 15.8727C4.36439 15.8727 5.6046 14.6325 5.6046 13.1026C5.6046 11.5727 4.36439 10.3325 2.83453 10.3325C1.30466 10.3325 0.0644531 11.5727 0.0644531 13.1026C0.0644531 14.6325 1.30466 15.8727 2.83453 15.8727Z" fill="#2F2E41"/>
<path d="M2.83453 6.1588C4.36439 6.1588 5.6046 4.91859 5.6046 3.38872C5.6046 1.85886 4.36439 0.618652 2.83453 0.618652C1.30466 0.618652 0.0644531 1.85886 0.0644531 3.38872C0.0644531 4.91859 1.30466 6.1588 2.83453 6.1588Z" fill="#2F2E41"/>
</svg>
