<svg width="85" height="11" viewBox="0 0 85 11" fill="none" xmlns="http://www.w3.org/2000/svg">
<path d="M82.23 0C78.67 0 76.83 2.23 75.49 3.86C74.25 5.36 73.6 6.08 72.22 6.08C70.84 6.08 70.18 5.36 68.95 3.86C67.61 2.23 65.78 0 62.22 0C58.66 0 56.83 2.23 55.49 3.86C54.26 5.36 53.6 6.08 52.22 6.08C50.84 6.08 50.19 5.36 48.95 3.86C47.61 2.23 45.78 0 42.22 0C38.66 0 36.83 2.23 35.49 3.86C34.26 5.36 33.6 6.08 32.22 6.08C30.84 6.08 30.19 5.36 28.96 3.86C27.62 2.23 25.79 0 22.23 0C18.67 0 16.84 2.23 15.5 3.86C14.27 5.36 13.61 6.08 12.24 6.08C10.87 6.08 10.21 5.36 8.97 3.86C7.63 2.23 5.8 0 2.24 0C1 0 0 1 0 2.24C0 3.48 1 4.48 2.24 4.48C3.62 4.48 4.27 5.2 5.51 6.7C6.85 8.33 8.68 10.56 12.24 10.56C15.8 10.56 17.63 8.33 18.97 6.7C20.2 5.2 20.86 4.48 22.23 4.48C23.6 4.48 24.26 5.2 25.49 6.7C26.83 8.33 28.66 10.56 32.22 10.56C35.78 10.56 37.61 8.33 38.95 6.7C40.18 5.2 40.84 4.48 42.22 4.48C43.6 4.48 44.25 5.2 45.49 6.7C46.83 8.33 48.66 10.56 52.22 10.56C55.78 10.56 57.61 8.33 58.95 6.7C60.18 5.2 60.84 4.48 62.22 4.48C63.6 4.48 64.26 5.2 65.49 6.7C66.83 8.33 68.66 10.56 72.23 10.56C75.79 10.56 77.63 8.33 78.97 6.7C80.21 5.2 80.86 4.48 82.24 4.48C83.48 4.48 84.48 3.48 84.48 2.24C84.48 1 83.47 0 82.23 0Z" fill="#3CACA5"/>
</svg>
