<svg width="33" height="24" viewBox="0 0 33 24" fill="none" xmlns="http://www.w3.org/2000/svg">
<path d="M25.9285 23.5713C29.8343 23.5713 33 20.4056 33 16.4998C33 12.594 29.8343 9.42837 25.9285 9.42837C25.549 9.42837 25.186 9.48258 24.823 9.53916C26.4424 6.67521 29.4808 4.71406 33 4.71406V-0.000244141C25.2002 -0.000244141 18.8571 6.34286 18.8571 14.1427L18.8571 16.4998C18.8571 20.4056 22.0227 23.5713 25.9285 23.5713Z" fill="#2A2A2A"/>
<path d="M7.07161 23.5713C10.9774 23.5713 14.1431 20.4056 14.1431 16.4998C14.1431 12.594 10.9774 9.42837 7.07161 9.42837C6.6921 9.42837 6.3291 9.48258 5.9661 9.53916C7.58547 6.67521 10.6238 4.71406 14.1431 4.71406L14.1431 -0.000244141C6.34325 -0.000244141 0.000144958 6.34286 0.000144958 14.1427L0.000144958 16.4998C0.000144958 20.4056 3.1658 23.5713 7.07161 23.5713Z" fill="#2A2A2A"/>
</svg>
