<svg width="33" height="24" viewBox="0 0 33 24" fill="none" xmlns="http://www.w3.org/2000/svg">
<path d="M7.07146 0C3.16566 0 0 3.16566 0 7.07146C0 10.9773 3.16566 14.1429 7.07146 14.1429C7.45096 14.1429 7.81396 14.0887 8.17697 14.0321C6.5576 16.8961 3.51923 18.8572 0 18.8572L0 23.5715C7.79982 23.5715 14.1429 17.2284 14.1429 9.42861V7.07146C14.1429 3.16566 10.9773 0 7.07146 0Z" fill="#2A2A2A"/>
<path d="M25.9289 0C22.0231 0 18.8574 3.16566 18.8574 7.07146C18.8574 10.9773 22.0231 14.1429 25.9289 14.1429C26.3084 14.1429 26.6714 14.0887 27.0344 14.0321C25.415 16.8961 22.3767 18.8572 18.8574 18.8572V23.5715C26.6572 23.5715 33.0003 17.2284 33.0003 9.42861V7.07146C33.0003 3.16566 29.8347 0 25.9289 0Z" fill="#2A2A2A"/>
</svg>
