<svg xmlns="http://www.w3.org/2000/svg" width="144.206" height="110.945" viewBox="0 0 144.206 110.945">
  <path id="Path_11993" data-name="Path 11993" d="M-236.126,220.486a50.6,50.6,0,0,0-5.519,3.338,63.946,63.946,0,0,0,21.348,5.23,43.842,43.842,0,0,0,21.494-3.777,81.705,81.705,0,0,0,9-4.791c7.554-4.07,16.272-9.007,21.491-9.3a10.835,10.835,0,0,1,3.341.439,3.673,3.673,0,0,1,2.613,1.449l.875,1.16L-162.5,215.4c-1.31,1.307-3.195,3.049-5.087,4.648-1.746,1.307-3.773,2.76-4.791,3.631-3.488,2.613-6.972,5.08-10.745,7.4-3.484,2.181-7.111,4.213-10.745,6.244-2.031,1.021-4.216,2.039-6.4,3.052-2.174.867-4.351,1.742-6.672,2.467-4.5,1.6-7.265,1.746-12.056,1.889h-.143c-6.247.435-12.2.728-18.3,1.017-6.1.147-12.2.289-18.446.289-2.756,0-6.679,1.6-10.745,3.923a86.113,86.113,0,0,0-14.815,10.6l-1.3,1.16-1.164-1.16-20.62-20.038-1.164-1.017.728-1.31a175.761,175.761,0,0,1,14.669-18.149c4.5-4.648,8.853-8.572,11.905-9.732,4.937-1.888,14.526-2.32,21.784-2.756,2.031,0,3.92-.146,5.519-.293a47.985,47.985,0,0,0,4.794-.289c1.592-.146,3.2-.289,4.791-.582,2.756-.435,5.515-.725,8.279-1.307,2.613-.435,5.376-.875,8.279-1.453l1.592-.293c2.91-.578,5.812-1.156,8.568-1.449a12.672,12.672,0,0,0,2.47-.289h2.328l1.449-.146.435,1.449a5.467,5.467,0,0,1,0,2.181,6.3,6.3,0,0,1-.728,2.178,14.629,14.629,0,0,1-3.191,4.209,21.323,21.323,0,0,1-5.234,3.052,40.611,40.611,0,0,1-7.111,2.178c-.725.289-1.453.435-2.32.728a91.293,91.293,0,0,0-9.443,3.049Zm-2.906-51.121h-12.78a3.479,3.479,0,0,0,2.181,2.906,10.928,10.928,0,0,0,4.209.875c1.885,0,3.342-.293,4.213-1.164a4.866,4.866,0,0,0,2.178-2.617Zm4.355-18.585c-17.135,0-31.072,7.986-31.072,17.717,0,10.017,13.937,18.006,31.072,18.006s30.933-7.99,30.933-18.006c0-9.732-13.794-17.717-30.933-17.717Zm-16.989,16.993h13.073a15.541,15.541,0,0,1,3.338-4.791c1.746-1.457,4.212-2.185,7.546-2.185,4.794,0,8.136,1.021,10.171,2.763a7.3,7.3,0,0,1,2.177,4.213h5.23v1.592h-5.23c-.289,3.052-2.177,4.941-5.519,6.1a25.1,25.1,0,0,1-7.408.871v-2.756a22.1,22.1,0,0,0,5.373-.582c2.035-.728,3.2-1.892,3.484-3.634h-14.665a8.789,8.789,0,0,1-3.773,4.941,13.947,13.947,0,0,1-7.118,1.6,15.463,15.463,0,0,1-7.4-1.742c-2.181-1.16-3.342-2.759-3.342-4.794h-3.627v-1.592h3.48a6.2,6.2,0,0,1,3.2-4.648,13.967,13.967,0,0,1,7.408-1.742v2.756a17.079,17.079,0,0,0-3.484.586c-1.889.574-2.906,1.742-2.906,3.049Zm16.989,21.055c-15.829,0-28.605-6.683-30.783-15.393a12.243,12.243,0,0,0-.289,2.324c0,9.874,13.937,17.86,31.072,17.86s30.933-7.986,30.933-17.86a12.573,12.573,0,0,0-.289-2.324c-2.031,8.71-14.958,15.393-30.644,15.393Zm0,7.261c-15.829,0-28.605-6.826-30.783-15.54a12.245,12.245,0,0,0-.289,2.324c0,9.874,13.937,17.864,31.072,17.864s30.933-7.99,30.933-17.864a12.574,12.574,0,0,0-.289-2.324c-2.031,8.714-14.958,15.54-30.644,15.54Zm8.283-32.386c-2.328,0-3.923.436-5.084,1.453a6.718,6.718,0,0,0-2.031,2.617h14.226c-.147-1.746-1.3-2.906-3.48-3.488a9.1,9.1,0,0,0-3.631-.582Z" transform="translate(305.689 -150.78)" fill="#1e66e4" fill-rule="evenodd"/>
</svg>
