<svg id="phonelink_erase_black_24dp" xmlns="http://www.w3.org/2000/svg" width="107.359" height="107.359" viewBox="0 0 107.359 107.359">
  <path id="Path_12019" data-name="Path 12019" d="M0,0H107.359V107.359H0Z" fill="none"/>
  <path id="Path_12020" data-name="Path 12020" d="M47.733,33.208,43.26,28.734,25.366,46.628,7.473,28.734,3,33.208,20.893,51.1,3,68.994l4.473,4.473L25.366,55.574,43.26,73.467l4.473-4.473L29.84,51.1,47.733,33.208ZM74.573,1H29.84a8.973,8.973,0,0,0-8.947,8.947v13.42H29.84V14.42H74.573V85.992H29.84V77.046H20.893v13.42a8.973,8.973,0,0,0,8.947,8.947H74.573a8.973,8.973,0,0,0,8.947-8.947V9.947A8.973,8.973,0,0,0,74.573,1Z" transform="translate(10.42 3.473)" fill="#1e66e4"/>
</svg>
