<svg id="sentiment_satisfied_alt_black_24dp" xmlns="http://www.w3.org/2000/svg" width="453.724" height="453.724" viewBox="0 0 453.724 453.724">
  <path id="Path_11986" data-name="Path 11986" d="M0,0H453.724V453.724H0Z" fill="none"/>
  <ellipse id="Ellipse_94" data-name="Ellipse 94" cx="28.5" cy="28" rx="28.5" ry="28" transform="translate(264.724 151.724)" fill="#578dea"/>
  <circle id="Ellipse_95" data-name="Ellipse 95" cx="28" cy="28" r="28" transform="translate(132.724 151.724)" fill="#578dea"/>
  <path id="Path_11987" data-name="Path 11987" d="M191.052,266.672c-27.98,0-51.989-15.313-65.223-37.81H94.257a103.882,103.882,0,0,0,193.589,0H256.274a75.327,75.327,0,0,1-65.223,37.81ZM190.862,2C86.506,2,2,86.7,2,191.052S86.506,380.1,190.862,380.1c104.546,0,189.241-84.7,189.241-189.052S295.408,2,190.862,2Zm.189,340.293A151.241,151.241,0,1,1,342.293,191.052,151.2,151.2,0,0,1,191.052,342.293Z" transform="translate(35.81 35.81)" fill="#578dea"/>
</svg>
