<svg id="card_giftcard_black_24dp" xmlns="http://www.w3.org/2000/svg" width="138.646" height="138.646" viewBox="0 0 138.646 138.646">
  <path id="Path_12021" data-name="Path 12021" d="M0,0H138.646V138.646H0Z" fill="none"/>
  <path id="Path_12022" data-name="Path 12022" d="M105.985,25.108H93.391A17.29,17.29,0,0,0,62.658,9.8l-2.888,3.871L56.881,9.741a17.335,17.335,0,0,0-31.773,9.59,17.357,17.357,0,0,0,1.04,5.777H13.554a11.465,11.465,0,0,0-11.5,11.554L2,100.208a11.514,11.514,0,0,0,11.554,11.554h92.431a11.514,11.514,0,0,0,11.554-11.554V36.662A11.514,11.514,0,0,0,105.985,25.108ZM77.1,13.554a5.777,5.777,0,1,1-5.777,5.777A5.794,5.794,0,0,1,77.1,13.554Zm-34.661,0a5.777,5.777,0,1,1-5.777,5.777A5.794,5.794,0,0,1,42.438,13.554Zm63.546,86.654H13.554V88.654h92.431Zm0-28.885H13.554V36.662H42.9L30.885,53.01l9.359,6.759L53.992,41.052,59.769,33.2l5.777,7.857L79.3,59.769l9.359-6.759L76.638,36.662h29.347Z" transform="translate(9.554 9.554)" fill="#1e66e4"/>
</svg>
