<svg xmlns="http://www.w3.org/2000/svg" xmlns:xlink="http://www.w3.org/1999/xlink" width="160.676" height="65.894" viewBox="0 0 160.676 65.894">
  <defs>
    <filter id="Union" x="0" y="0" width="160.676" height="65.894" filterUnits="userSpaceOnUse">
      <feOffset dy="1.852" input="SourceAlpha"/>
      <feGaussianBlur stdDeviation="3.148" result="blur"/>
      <feFlood flood-color="#383838" flood-opacity="0.024"/>
      <feComposite operator="in" in2="blur"/>
      <feComposite in="SourceGraphic"/>
    </filter>
  </defs>
  <g id="Apple_download_button" data-name="Apple download button" transform="translate(9.444 7.592)">
    <g transform="matrix(1, 0, 0, 1, -9.44, -7.59)" filter="url(#Union)">
      <path id="Union-2" data-name="Union" d="M10,0c.433,0,.863,0,1.3,0H130.5c.426,0,.859,0,1.284,0,.295,0,.6.007.893.012l.2,0a15.58,15.58,0,0,1,2.37.208A8.065,8.065,0,0,1,137.5.962a7.63,7.63,0,0,1,3.316,3.29,7.732,7.732,0,0,1,.734,2.237,15.745,15.745,0,0,1,.22,2.353c0,.36,0,.722,0,1.082.009.426.009.853.009,1.283V35.8c0,.434,0,.858-.009,1.285,0,.365,0,.718,0,1.083a15.747,15.747,0,0,1-.22,2.353,7.716,7.716,0,0,1-.733,2.238,7.518,7.518,0,0,1-1.4,1.9,7.435,7.435,0,0,1-1.916,1.385,8.109,8.109,0,0,1-2.261.741,15.861,15.861,0,0,1-2.37.208c-.361.008-.731.013-1.092.013-.426,0-.858,0-1.284,0H11.3c-.434,0-.864,0-1.3,0-.363,0-.723,0-1.089-.013a16.072,16.072,0,0,1-2.374-.208,7.985,7.985,0,0,1-2.252-.741,7.432,7.432,0,0,1-1.918-1.385,7.3,7.3,0,0,1-1.4-1.9A7.7,7.7,0,0,1,.23,40.522a15.146,15.146,0,0,1-.212-2.352c-.008-.25-.01-.494-.013-.74,0-.114,0-.228,0-.343V9.923q0-.173,0-.346c0-.245.006-.491.013-.736A15.146,15.146,0,0,1,.23,6.489,7.713,7.713,0,0,1,.971,4.252a7.357,7.357,0,0,1,1.4-1.9A7.626,7.626,0,0,1,4.285.962,7.943,7.943,0,0,1,6.537.225,15.784,15.784,0,0,1,8.911.017l.224,0C9.425.009,9.712,0,10,0Z" transform="translate(9.44 7.59)"/>
    </g>
    <path id="Vector" d="M8.972,44.949c-.361,0-.713,0-1.071-.013a15.154,15.154,0,0,1-2.215-.192A7.012,7.012,0,0,1,3.723,44.1a6.4,6.4,0,0,1-1.655-1.195A6.256,6.256,0,0,1,.858,41.265a6.686,6.686,0,0,1-.643-1.947,14.471,14.471,0,0,1-.2-2.2C.01,36.867,0,36.042,0,36.042V8.9s.01-.812.017-1.051a14.421,14.421,0,0,1,.2-2.2A6.725,6.725,0,0,1,.857,3.691a6.317,6.317,0,0,1,1.2-1.643A6.592,6.592,0,0,1,3.722.846,6.94,6.94,0,0,1,5.681.207,15.033,15.033,0,0,1,7.9.015L8.972,0H130.741l1.082.015a14.794,14.794,0,0,1,2.2.191A7.077,7.077,0,0,1,136,.85a6.6,6.6,0,0,1,2.861,2.844,6.733,6.733,0,0,1,.634,1.938,15.149,15.149,0,0,1,.206,2.218c0,.333,0,.69,0,1.046.009.441.009.86.009,1.283V34.772c0,.427,0,.844-.009,1.264,0,.382,0,.732,0,1.093a14.839,14.839,0,0,1-.2,2.178,6.7,6.7,0,0,1-.64,1.962A6.651,6.651,0,0,1,136,44.1a6.986,6.986,0,0,1-1.976.646,14.982,14.982,0,0,1-2.215.192q-.532.012-1.063.013l-1.284,0Z" transform="translate(1.034 1.028)"/>
    <path id="Vector-2" data-name="Vector" d="M17.533,13.942a5.779,5.779,0,0,1,.764-2.8,5.837,5.837,0,0,1,2.029-2.084A6.016,6.016,0,0,0,15.6,6.527c-1.99-.207-3.919,1.181-4.933,1.181-1.033,0-2.595-1.16-4.276-1.126a6.336,6.336,0,0,0-3.076.91,6.269,6.269,0,0,0-2.224,2.3C-1.2,13.722.506,19.505,2.7,22.686c1.1,1.558,2.382,3.3,4.061,3.236C8.406,25.854,9.02,24.882,11,24.882c1.965,0,2.541,1.039,4.255,1,1.764-.028,2.875-1.564,3.934-3.137a12.839,12.839,0,0,0,1.8-3.634,5.656,5.656,0,0,1-2.514-2.069A5.587,5.587,0,0,1,17.533,13.942ZM14.3,4.435a5.7,5.7,0,0,0,1.321-4.1,5.89,5.89,0,0,0-3.8,1.95,5.42,5.42,0,0,0-1.355,3.95,4.891,4.891,0,0,0,2.126-.462A4.851,4.851,0,0,0,14.3,4.435ZM38.308,21.978H32.7l-1.347,3.944H28.977L34.289,11.33h2.468L42.07,25.923H39.654Zm-5.028-1.82h4.446l-2.192-6.4h-.061Zm20.262.445c0,3.306-1.784,5.43-4.477,5.43a3.661,3.661,0,0,1-1.957-.45,3.622,3.622,0,0,1-1.418-1.412h-.051v5.27h-2.2V15.283h2.131v1.77h.041a3.791,3.791,0,0,1,1.446-1.408,3.831,3.831,0,0,1,1.97-.473c2.723,0,4.517,2.135,4.517,5.432Zm-2.263,0c0-2.154-1.122-3.57-2.835-3.57-1.683,0-2.814,1.446-2.814,3.57,0,2.144,1.132,3.579,2.814,3.579,1.713,0,2.835-1.406,2.835-3.579Zm14.07,0c0,3.306-1.784,5.43-4.477,5.43a3.661,3.661,0,0,1-1.957-.45A3.622,3.622,0,0,1,57.5,24.173h-.051v5.27h-2.2V15.283h2.131v1.77h.041a3.791,3.791,0,0,1,1.446-1.408,3.831,3.831,0,0,1,1.97-.473c2.723,0,4.517,2.135,4.517,5.432Zm-2.263,0c0-2.154-1.122-3.57-2.835-3.57-1.683,0-2.814,1.446-2.814,3.57,0,2.144,1.132,3.579,2.814,3.579,1.713,0,2.835-1.406,2.835-3.579Zm10.067,1.253c.163,1.447,1.581,2.4,3.518,2.4,1.856,0,3.191-.95,3.191-2.255,0-1.133-.805-1.811-2.712-2.276l-1.907-.456c-2.7-.647-3.956-1.9-3.956-3.934,0-2.518,2.212-4.247,5.354-4.247,3.109,0,5.241,1.729,5.312,4.247H79.73C79.6,13.877,78.383,13,76.609,13s-2.988.889-2.988,2.184c0,1.032.775,1.639,2.672,2.1l1.621.395c3.019.708,4.273,1.911,4.273,4.045,0,2.73-2.193,4.44-5.68,4.44-3.263,0-5.466-1.67-5.608-4.309ZM86.94,12.766v2.518h2.04v1.729H86.94v5.865c0,.911.408,1.336,1.305,1.336a6.937,6.937,0,0,0,.724-.051v1.719a6.1,6.1,0,0,1-1.223.1c-2.172,0-3.019-.809-3.019-2.872v-6.1h-1.56V15.283h1.56V12.766ZM90.162,20.6c0-3.348,1.988-5.451,5.088-5.451s5.089,2.1,5.089,5.451-1.968,5.451-5.089,5.451S90.162,23.96,90.162,20.6Zm7.933,0c0-2.3-1.061-3.652-2.845-3.652s-2.844,1.366-2.844,3.652c0,2.306,1.06,3.65,2.844,3.65S98.095,22.909,98.095,20.6Zm4.059-5.32h2.1v1.811h.051a2.536,2.536,0,0,1,.946-1.415,2.573,2.573,0,0,1,1.634-.507,3.423,3.423,0,0,1,.754.081V17.3a3.1,3.1,0,0,0-.989-.132,2.228,2.228,0,0,0-1.715.7,2.189,2.189,0,0,0-.58,1.747v6.311h-2.2ZM117.792,22.8c-.3,1.931-2.193,3.257-4.619,3.257-3.121,0-5.058-2.074-5.058-5.4s1.947-5.5,4.965-5.5c2.968,0,4.834,2.022,4.834,5.248v.748h-7.577v.132a2.757,2.757,0,0,0,.757,2.153,2.806,2.806,0,0,0,2.129.861,2.443,2.443,0,0,0,1.489-.341A2.412,2.412,0,0,0,115.7,22.8Zm-7.444-3.175h5.363a2.547,2.547,0,0,0-.721-1.92,2.591,2.591,0,0,0-1.911-.78,2.727,2.727,0,0,0-1.933.786,2.682,2.682,0,0,0-.8,1.915ZM33,.346a3.142,3.142,0,0,1,2.495.961,3.086,3.086,0,0,1,.832,2.523c0,2.24-1.221,3.528-3.327,3.528H30.451V.345Zm-1.456,6.02h1.333a2.232,2.232,0,0,0,1.771-.711,2.192,2.192,0,0,0,.561-1.811,2.2,2.2,0,0,0-.57-1.8,2.238,2.238,0,0,0-1.762-.709H31.549Zm6.023-1.656a2.494,2.494,0,0,1,.646-1.925,2.532,2.532,0,0,1,4.269.895,2.487,2.487,0,0,1,.118,1.03,2.494,2.494,0,0,1-.644,1.928,2.533,2.533,0,0,1-4.272-.9A2.488,2.488,0,0,1,37.572,4.709Zm3.949,0c0-1.147-.52-1.818-1.431-1.818s-1.43.671-1.43,1.818.515,1.822,1.43,1.822,1.431-.67,1.431-1.822Zm7.772,2.648H48.2l-1.1-3.9h-.083l-1.1,3.9H44.835L43.364,2.066h1.068L45.388,6.1h.079l1.1-4.038h1.01l1.1,4.038h.083L49.7,2.066h1.053Zm2.7-5.292h1.014v.841h.079a1.588,1.588,0,0,1,.644-.724,1.608,1.608,0,0,1,.948-.219,1.743,1.743,0,0,1,1.4.544,1.712,1.712,0,0,1,.446,1.424V7.357H55.473V4.194c0-.85-.373-1.273-1.151-1.273a1.229,1.229,0,0,0-.948.38,1.208,1.208,0,0,0-.326.961v3.1H51.995ZM58.2,0h1.053V7.357H58.2Zm2.517,4.709a2.494,2.494,0,0,1,.646-1.925,2.532,2.532,0,0,1,4.269.895,2.488,2.488,0,0,1,.118,1.03,2.495,2.495,0,0,1-.644,1.928,2.533,2.533,0,0,1-4.272-.9,2.488,2.488,0,0,1-.117-1.031Zm3.949,0c0-1.147-.52-1.818-1.431-1.818s-1.43.671-1.43,1.818.515,1.822,1.43,1.822S64.67,5.861,64.67,4.709Zm2.192,1.152c0-.953.715-1.5,1.984-1.58L70.292,4.2V3.742c0-.559-.373-.874-1.092-.874-.588,0-1,.214-1.112.588H67.068c.108-.909.97-1.492,2.18-1.492,1.338,0,2.092.66,2.092,1.778V7.357H70.326V6.614h-.083a1.8,1.8,0,0,1-1.6.831,1.62,1.62,0,0,1-1.243-.4,1.593,1.593,0,0,1-.535-1.183Zm3.43-.452V4.966l-1.3.083c-.735.049-1.068.3-1.068.763s.417.754.989.754a1.265,1.265,0,0,0,.938-.288,1.244,1.244,0,0,0,.444-.869Zm2.432-.7c0-1.672.867-2.731,2.215-2.731a1.77,1.77,0,0,1,.954.228,1.75,1.75,0,0,1,.682.7h.079V0h1.053V7.357H76.7V6.521h-.083a1.845,1.845,0,0,1-.708.693,1.864,1.864,0,0,1-.968.23c-1.357,0-2.215-1.059-2.215-2.735Zm1.088,0c0,1.122.533,1.8,1.425,1.8s1.436-.685,1.436-1.793-.554-1.8-1.436-1.8S73.812,3.6,73.812,4.709Zm8.251,0a2.494,2.494,0,0,1,.646-1.925,2.532,2.532,0,0,1,4.269.895,2.487,2.487,0,0,1,.118,1.03,2.494,2.494,0,0,1-.644,1.928,2.533,2.533,0,0,1-4.272-.9,2.488,2.488,0,0,1-.116-1.032Zm3.949,0c0-1.147-.52-1.818-1.431-1.818s-1.43.671-1.43,1.818.515,1.822,1.43,1.822S86.012,5.861,86.012,4.709Zm2.5-2.643h1.014v.841H89.6a1.588,1.588,0,0,1,.644-.724,1.608,1.608,0,0,1,.948-.219,1.743,1.743,0,0,1,1.4.544,1.712,1.712,0,0,1,.446,1.424V7.357H91.986V4.194c0-.85-.373-1.273-1.151-1.273a1.229,1.229,0,0,0-.948.38,1.208,1.208,0,0,0-.326.961v3.1H88.508ZM98.989.748V2.09h1.156v.88H98.989V5.69c0,.554.23.8.754.8a3.544,3.544,0,0,0,.4-.024v.87a3.482,3.482,0,0,1-.573.053c-1.171,0-1.637-.409-1.637-1.429V2.97h-.847V2.09h.847V.749ZM101.583,0h1.044V2.916h.083a1.633,1.633,0,0,1,.662-.729,1.653,1.653,0,0,1,.964-.219,1.765,1.765,0,0,1,1.387.558,1.734,1.734,0,0,1,.451,1.415V7.357h-1.054V4.2c0-.845-.4-1.273-1.141-1.273a1.252,1.252,0,0,0-.986.361,1.23,1.23,0,0,0-.357.981V7.357h-1.053Zm10.731,5.928a2.15,2.15,0,0,1-.876,1.182A2.18,2.18,0,0,1,110,7.46a2.433,2.433,0,0,1-1.87-.8,2.39,2.39,0,0,1-.595-1.931,2.427,2.427,0,0,1,.594-1.939A2.47,2.47,0,0,1,110,1.964c1.485,0,2.38,1.006,2.38,2.668V5H108.61v.059a1.392,1.392,0,0,0,.372,1.07,1.416,1.416,0,0,0,1.049.446,1.288,1.288,0,0,0,.733-.129,1.274,1.274,0,0,0,.536-.512Zm-3.7-1.705h2.695a1.271,1.271,0,0,0-.351-.974,1.293,1.293,0,0,0-.963-.4,1.37,1.37,0,0,0-.982.4,1.348,1.348,0,0,0-.4.974Z" transform="translate(11.815 9.915)" fill="#fff"/>
  </g>
</svg>
