<svg id="public_black_24dp" xmlns="http://www.w3.org/2000/svg" width="22.615" height="22.343" viewBox="0 0 22.615 22.343">
  <path id="Path_11990" data-name="Path 11990" d="M0,0H22.615V22.343H0Z" fill="none"/>
  <path id="Path_11991" data-name="Path 11991" d="M11.423,2A9.255,9.255,0,0,0,2,11.07a9.255,9.255,0,0,0,9.423,9.07,9.255,9.255,0,0,0,9.423-9.07A9.255,9.255,0,0,0,11.423,2Zm-.942,16.262a7.348,7.348,0,0,1-6.6-7.192,7.1,7.1,0,0,1,.2-1.623L8.6,13.791V14.7a1.856,1.856,0,0,0,1.885,1.814Zm6.5-2.3a1.863,1.863,0,0,0-1.79-1.261H14.25V11.977a.928.928,0,0,0-.942-.907H7.654V9.256H9.538a.928.928,0,0,0,.942-.907V6.535h1.885A1.856,1.856,0,0,0,14.25,4.721V4.349a7.268,7.268,0,0,1,4.712,6.721A7.071,7.071,0,0,1,16.983,15.958Z" transform="translate(-0.115 0.102)" fill="#fff"/>
</svg>
