<svg xmlns="http://www.w3.org/2000/svg" xmlns:xlink="http://www.w3.org/1999/xlink" width="160.676" height="65.895" viewBox="0 0 160.676 65.895">
  <defs>
    <filter id="Vector" x="0" y="0" width="160.676" height="65.895" filterUnits="userSpaceOnUse">
      <feOffset dy="1.852" input="SourceAlpha"/>
      <feGaussianBlur stdDeviation="3.148" result="blur"/>
      <feFlood flood-color="#383838" flood-opacity="0.024"/>
      <feComposite operator="in" in2="blur"/>
      <feComposite in="SourceGraphic"/>
    </filter>
    <filter id="Vector-2" x="0" y="0" width="160.676" height="65.895" filterUnits="userSpaceOnUse">
      <feOffset dy="1.852" input="SourceAlpha"/>
      <feGaussianBlur stdDeviation="3.148" result="blur-2"/>
      <feFlood flood-color="#383838" flood-opacity="0.024"/>
      <feComposite operator="in" in2="blur-2"/>
      <feComposite in="SourceGraphic"/>
    </filter>
    <linearGradient id="linear-gradient" x1="0.613" y1="0.044" x2="0.26" y2="0.722" gradientUnits="objectBoundingBox">
      <stop offset="0" stop-color="#00a0ff"/>
      <stop offset="0.007" stop-color="#00a1ff"/>
      <stop offset="0.26" stop-color="#00beff"/>
      <stop offset="0.512" stop-color="#00d2ff"/>
      <stop offset="0.76" stop-color="#00dfff"/>
      <stop offset="1" stop-color="#00e3ff"/>
    </linearGradient>
    <linearGradient id="linear-gradient-2" x1="1.076" y1="0.491" x2="0" y2="0.491" gradientUnits="objectBoundingBox">
      <stop offset="0" stop-color="#ffe000"/>
      <stop offset="0.409" stop-color="#ffbd00"/>
      <stop offset="0.775" stop-color="orange"/>
      <stop offset="1" stop-color="#ff9c00"/>
    </linearGradient>
    <linearGradient id="linear-gradient-3" x1="0.867" y1="0.309" x2="0" y2="1" gradientUnits="objectBoundingBox">
      <stop offset="0" stop-color="#ff3a44"/>
      <stop offset="1" stop-color="#c31162"/>
    </linearGradient>
    <linearGradient id="linear-gradient-4" y1="-0.119" x2="0.418" y2="0.351" gradientUnits="objectBoundingBox">
      <stop offset="0" stop-color="#32a071"/>
      <stop offset="0.068" stop-color="#2da771"/>
      <stop offset="0.476" stop-color="#15cf74"/>
      <stop offset="0.801" stop-color="#06e775"/>
      <stop offset="1" stop-color="#00f076"/>
    </linearGradient>
    <linearGradient id="linear-gradient-5" x1="0.862" y1="0.305" x2="0" y2="1" gradientUnits="objectBoundingBox">
      <stop offset="0" stop-color="#cc2e36"/>
      <stop offset="1" stop-color="#9c0e4e"/>
    </linearGradient>
    <linearGradient id="linear-gradient-6" x1="3.073" y1="-14.318" x2="0" y2="-3.496" gradientUnits="objectBoundingBox">
      <stop offset="0" stop-color="#008de0"/>
      <stop offset="0.007" stop-color="#008de0"/>
      <stop offset="0.26" stop-color="#00a7e0"/>
      <stop offset="0.512" stop-color="#00b8e0"/>
      <stop offset="0.76" stop-color="#00c4e0"/>
      <stop offset="1" stop-color="#00c7e0"/>
    </linearGradient>
    <linearGradient id="linear-gradient-7" x1="1.128" x2="0" gradientUnits="objectBoundingBox">
      <stop offset="0" stop-color="#e0c500"/>
      <stop offset="0.409" stop-color="#e0a600"/>
      <stop offset="0.775" stop-color="#e09100"/>
      <stop offset="1" stop-color="#e08900"/>
    </linearGradient>
    <linearGradient id="linear-gradient-8" x1="1.128" y1="1" x2="0" y2="1" gradientUnits="objectBoundingBox">
      <stop offset="0" stop-color="#ffe840"/>
      <stop offset="0.409" stop-color="#ffce40"/>
      <stop offset="0.775" stop-color="#ffbc40"/>
      <stop offset="1" stop-color="#ffb540"/>
    </linearGradient>
    <linearGradient id="linear-gradient-9" x1="3.061" y1="0.766" x2="0" y2="1" gradientUnits="objectBoundingBox">
      <stop offset="0" stop-color="#40b8ff"/>
      <stop offset="0.007" stop-color="#40b9ff"/>
      <stop offset="0.26" stop-color="#40ceff"/>
      <stop offset="0.512" stop-color="#40ddff"/>
      <stop offset="0.76" stop-color="#40e7ff"/>
      <stop offset="1" stop-color="#40eaff"/>
    </linearGradient>
    <linearGradient id="linear-gradient-10" y1="0.144" x2="0.421" y2="0.463" gradientUnits="objectBoundingBox">
      <stop offset="0" stop-color="#65b895"/>
      <stop offset="0.068" stop-color="#62bd95"/>
      <stop offset="0.476" stop-color="#50db97"/>
      <stop offset="0.801" stop-color="#44ed98"/>
      <stop offset="1" stop-color="#40f498"/>
    </linearGradient>
  </defs>
  <g id="Google_download_button" data-name="Google download button" transform="translate(9.444 7.592)">
    <g transform="matrix(1, 0, 0, 1, -9.44, -7.59)" filter="url(#Vector)">
      <path id="Vector-3" data-name="Vector" d="M136.536,0H5.251C2.363,0,0,2.644,0,5.876V41.13c0,3.232,2.363,5.876,5.251,5.876H136.536c2.888,0,5.251-2.644,5.251-5.876V5.876C141.788,2.644,139.425,0,136.536,0Z" transform="translate(9.44 7.59)"/>
    </g>
    <g transform="matrix(1, 0, 0, 1, -9.44, -7.59)" filter="url(#Vector-2)">
      <path id="Vector-4" data-name="Vector" d="M5.251,0H136.536c2.888,0,5.251,2.644,5.251,5.876V41.13c0,3.232-2.363,5.876-5.251,5.876H5.251C2.363,47.006,0,44.362,0,41.13V5.876C0,2.644,2.363,0,5.251,0Z" transform="translate(9.44 7.59)"/>
    </g>
    <path id="Vector-5" data-name="Vector" d="M135.21,45.616H5.146A5.462,5.462,0,0,1,0,39.914L19.75,12.273C19.75,9.137,2.316,0,5.146,0H135.21a5.462,5.462,0,0,1,5.146,5.7V39.914A5.462,5.462,0,0,1,135.21,45.616Z" transform="translate(0.73 0.702)"/>
    <path id="Vector-6" data-name="Vector" d="M6.371,3.969a3.4,3.4,0,0,1-.782,2.353A2.9,2.9,0,0,1,3.274,7.366,3.006,3.006,0,0,1,.955,6.308,3.771,3.771,0,0,1,0,3.683,3.772,3.772,0,0,1,.955,1.059,3.008,3.008,0,0,1,3.274,0,2.956,2.956,0,0,1,4.567.3a2.63,2.63,0,0,1,.985.788L5,1.7A2.034,2.034,0,0,0,3.274.867a2.271,2.271,0,0,0-1.721.783A2.872,2.872,0,0,0,.827,3.683a2.872,2.872,0,0,0,.726,2.034A2.271,2.271,0,0,0,3.274,6.5a2.264,2.264,0,0,0,1.76-.787,2.357,2.357,0,0,0,.528-1.428H3.274V3.437H6.328a3.357,3.357,0,0,1,.044.532" transform="translate(43.431 8.068)" fill="#fff"/>
    <path id="Vector-7" data-name="Vector" d="M6.476,4.087H6.371a3.277,3.277,0,0,1-.752,2.27h0A2.8,2.8,0,0,1,3.379,7.366,2.908,2.908,0,0,1,1.134,6.342,3.648,3.648,0,0,1,.21,3.8,3.645,3.645,0,0,1,1.134,1.26,2.907,2.907,0,0,1,3.379.235,2.862,2.862,0,0,1,4.631.521a2.527,2.527,0,0,1,.947.756l.08-.076-.074-.083-.554.621.074.083.081-.075A2.138,2.138,0,0,0,3.379.867a2.371,2.371,0,0,0-1.794.816A3,3,0,0,0,.827,3.8a3,3,0,0,0,.758,2.118,2.371,2.371,0,0,0,1.794.816,2.362,2.362,0,0,0,1.834-.822,2.484,2.484,0,0,0,.559-1.5l.01-.128h-2.3V3.672H6.432V3.555l-.1.021a3.2,3.2,0,0,1,.042.511h.21a3.465,3.465,0,0,0-.046-.553l-.016-.1H3.274V4.519H5.667V4.4l-.1-.01a2.237,2.237,0,0,1-.5,1.355A2.163,2.163,0,0,1,3.379,6.5a2.169,2.169,0,0,1-1.648-.75A2.746,2.746,0,0,1,1.037,3.8a2.746,2.746,0,0,1,.694-1.949A2.169,2.169,0,0,1,3.379,1.1,1.933,1.933,0,0,1,5.024,1.9L5.1,2l.635-.711L5.8,1.208l-.062-.082A2.731,2.731,0,0,0,4.714.305,3.051,3.051,0,0,0,3.379,0,3.11,3.11,0,0,0,.986,1.093,3.9,3.9,0,0,0,0,3.8,3.9,3.9,0,0,0,.986,6.509,3.109,3.109,0,0,0,3.379,7.6,3,3,0,0,0,5.77,6.522L5.694,6.44l.074.083a3.53,3.53,0,0,0,.813-2.437H6.476Zm4.841-2.945H8.448V3.377h2.588v.847H8.448V6.46h2.87v.866H7.639V.275h3.679Z" transform="translate(43.326 7.951)" fill="#fff"/>
    <path id="Vector-8" data-name="Vector" d="M3.784.984V.866H.809V3.337H3.4v.612H.809V6.42h2.87v.631H.21V.235H3.679V.984h.105v0h.105V0H0V7.286H3.889v-1.1H1.019v-2H3.607V3.1H1.019v-2h2.87V.984ZM7.2,7.168h-.81V.984H4.628V.117h4.33V.984H7.2V7.168" transform="translate(50.86 8.108)" fill="#fff"/>
    <path id="Vector-9" data-name="Vector" d="M2.675,7.168V7.051H1.97V.866H.21V.235H4.33V.866H2.57v6.3h.105v0H2.78V1.1H4.54V0H0V1.1H1.76V7.286H2.78V7.168H2.675Zm4.893,0V.117h.809V7.168H7.569" transform="translate(55.383 8.108)" fill="#fff"/>
    <path id="Vector-10" data-name="Vector" d="M.105,7.168H.21V.235h.6V7.051h-.7v.118h0v.118h.914V0H0V7.286H.105V7.168Zm4.4,0H3.7V.984H1.936V.117h4.33V.984H4.506V7.168" transform="translate(62.846 8.108)" fill="#fff"/>
    <path id="Vector-11" data-name="Vector" d="M2.675,7.209V7.091H1.97V.907H.21V.276H4.33V.907H2.57v6.3h.105v0H2.78V1.142H4.54V.04H0v1.1H1.76V7.326H2.78V7.209H2.675Zm5.935-1.5a2.246,2.246,0,0,0,3.424,0,2.945,2.945,0,0,0,.7-2.024,2.945,2.945,0,0,0-.7-2.024,2.245,2.245,0,0,0-3.424,0,2.95,2.95,0,0,0-.7,2.024A2.95,2.95,0,0,0,8.61,5.707Zm4.023.59a3.031,3.031,0,0,1-4.62,0,3.841,3.841,0,0,1-.928-2.614,3.841,3.841,0,0,1,.928-2.614,3.022,3.022,0,0,1,4.616,0,3.842,3.842,0,0,1,.933,2.61A3.849,3.849,0,0,1,12.633,6.3Z" transform="translate(64.678 8.068)" fill="#fff"/>
    <path id="Vector-12" data-name="Vector" d="M1.631,5.825l-.075.083a2.3,2.3,0,0,0,1.787.827A2.3,2.3,0,0,0,5.13,5.907,3.073,3.073,0,0,0,5.861,3.8,3.073,3.073,0,0,0,5.13,1.694,2.3,2.3,0,0,0,3.343.867a2.3,2.3,0,0,0-1.787.827A3.076,3.076,0,0,0,.827,3.8a3.076,3.076,0,0,0,.73,2.107l.075-.083.075-.083A2.823,2.823,0,0,1,1.037,3.8,2.823,2.823,0,0,1,1.706,1.86,2.1,2.1,0,0,1,3.343,1.1,2.1,2.1,0,0,1,4.98,1.86,2.819,2.819,0,0,1,5.65,3.8a2.819,2.819,0,0,1-.67,1.941A2.1,2.1,0,0,1,3.343,6.5a2.1,2.1,0,0,1-1.637-.757Zm4.023.59-.075-.082A2.839,2.839,0,0,1,3.343,7.366,2.836,2.836,0,0,1,1.108,6.333l0,0,0,0A3.717,3.717,0,0,1,.21,3.8a3.717,3.717,0,0,1,.9-2.533A2.836,2.836,0,0,1,3.343.235,2.838,2.838,0,0,1,5.575,1.273a3.717,3.717,0,0,1,.9,2.528,3.725,3.725,0,0,1-.9,2.533l.075.082.076.082a3.977,3.977,0,0,0,.958-2.7A3.97,3.97,0,0,0,5.725,1.11,3.038,3.038,0,0,0,3.343,0,3.036,3.036,0,0,0,.958,1.105h0A3.972,3.972,0,0,0,0,3.8,3.972,3.972,0,0,0,.958,6.5l0,0,0,0A3.037,3.037,0,0,0,3.343,7.6,3.041,3.041,0,0,0,5.729,6.5l-.076-.082Zm2.065.911V.275H8.7l3.063,5.485H11.8L11.767,4.4V.275h.81V7.326h-.845l-3.2-5.751H8.493l.035,1.359V7.326H7.719" transform="translate(71.657 7.951)" fill="#fff"/>
    <path id="Vector-13" data-name="Vector" d="M36.27,7.168h.105V.235H37.2L40.26,5.72h.2l-.038-1.478V.235h.6V7.051h-.682L37.137,1.3h-.2l.038,1.479V7.051h-.7v.118h0v.118h.914V2.775l-.035-1.361-.105,0v.118h.035V1.417l-.089.062,3.235,5.806h1.008V0h-1.02V4.245l.035,1.361.105,0V5.485h-.035V5.6l.089-.062L37.314,0H36.165V7.286h.105V7.168ZM69.207,27.146h1.96V12.455h-1.96Zm17.652-9.4-2.247,6.369h-.067l-2.332-6.369H80.1l3.5,8.9L81.606,31.6h2.045l5.388-13.854Zm-11.114,7.73c-.643,0-1.538-.359-1.538-1.248,0-1.134,1.115-1.569,2.077-1.569a3.2,3.2,0,0,1,1.791.492,2.487,2.487,0,0,1-2.331,2.325Zm.236-8.052a3.632,3.632,0,0,0-3.5,2.249l1.739.812a1.818,1.818,0,0,1,1.791-1.077,1.958,1.958,0,0,1,2.061,1.89v.151a3.981,3.981,0,0,0-2.044-.567c-1.875,0-3.784,1.153-3.784,3.307a3.181,3.181,0,0,0,3.26,3.232,2.706,2.706,0,0,0,2.5-1.436h.067v1.134h1.892V21.489a3.789,3.789,0,0,0-3.986-4.063ZM63.87,19.535H61.082V14.5H63.87a2.425,2.425,0,0,1,2.3,2.518A2.439,2.439,0,0,1,63.87,19.535Zm-.05-7.08h-4.7V27.146h1.959V21.58h2.737a4.391,4.391,0,0,0,4.307-4.562,4.391,4.391,0,0,0-4.307-4.562ZM38.213,25.48a2.75,2.75,0,0,1-2.487-3.01c0-1.76,1.134-3.048,2.487-3.048,1.337,0,2.386,1.288,2.386,3.048,0,1.742-1.049,3.01-2.386,3.01Zm2.25-6.91H40.4a2.959,2.959,0,0,0-2.352-1.117c-2.234,0-4.281,2.2-4.281,5.017,0,2.8,2.047,4.979,4.281,4.979A2.917,2.917,0,0,0,40.4,26.313h.068v.719c0,1.912-.914,2.935-2.386,2.935a2.517,2.517,0,0,1-2.251-1.78l-1.709.8a4.305,4.305,0,0,0,3.959,2.954c2.3,0,4.247-1.515,4.247-5.206V17.756H40.463Zm3.215,8.576H45.64V12.455H43.678ZM48.534,22.3a2.628,2.628,0,0,1,2.335-2.915,1.711,1.711,0,0,1,1.658,1.061Zm6.091-1.666c-.372-1.117-1.506-3.181-3.824-3.181-2.3,0-4.213,2.026-4.213,5,0,2.8,1.9,5,4.433,5a4.37,4.37,0,0,0,3.723-2.215L53.221,24.1a2.509,2.509,0,0,1-2.2,1.382,2.266,2.266,0,0,1-2.166-1.514L54.828,21.2ZM7.039,18.986v2.12h4.535a4.686,4.686,0,0,1-1.032,2.669,4.415,4.415,0,0,1-3.5,1.553c-2.792,0-4.974-2.518-4.974-5.642s2.183-5.642,4.975-5.642a4.58,4.58,0,0,1,3.418,1.515l1.337-1.5a6.274,6.274,0,0,0-4.755-2.14C3.215,11.925,0,15.408,0,19.687s3.215,7.762,7.039,7.762a6.019,6.019,0,0,0,4.839-2.177,7.517,7.517,0,0,0,1.642-4.96,7.674,7.674,0,0,0-.1-1.325ZM18.675,25.48a2.77,2.77,0,0,1-2.521-3.029,2.758,2.758,0,0,1,2.521-3.029A2.758,2.758,0,0,1,21.2,22.451,2.769,2.769,0,0,1,18.675,25.48Zm0-8.027c-2.471,0-4.484,2.1-4.484,5a4.693,4.693,0,0,0,4.484,5,4.693,4.693,0,0,0,4.484-5C23.159,19.554,21.145,17.453,18.675,17.453Zm9.781,8.027a2.77,2.77,0,0,1-2.521-3.029,2.758,2.758,0,0,1,2.521-3.029,2.758,2.758,0,0,1,2.521,3.029,2.769,2.769,0,0,1-2.521,3.029Zm0-8.027c-2.471,0-4.484,2.1-4.484,5a4.693,4.693,0,0,0,4.484,5,4.693,4.693,0,0,0,4.484-5c0-2.9-2.014-5-4.484-5Z" transform="translate(43.105 8.108)" fill="#fff"/>
    <path id="Vector-14" data-name="Vector" d="M.563.381A2.426,2.426,0,0,0,0,2.119V27.765a2.534,2.534,0,0,0,.486,1.651l.078.084h0a1.27,1.27,0,0,0,.928.382,2.234,2.234,0,0,0,1.177-.394L17.914,19.8l5.237-3.329a2.168,2.168,0,0,0,1.1-1.524v0a2.167,2.167,0,0,0-1.1-1.524l-5.237-3.329L2.669.4A2.238,2.238,0,0,0,1.49,0,1.271,1.271,0,0,0,.563.381Z" transform="translate(10.474 8.563)" fill="#00c1ff"/>
    <path id="Vector-15" data-name="Vector" d="M.564-12.373l-.078-.084A2.534,2.534,0,0,1,0-14.108V-39.754a2.426,2.426,0,0,1,.563-1.737L13.576-26.932Z" transform="translate(10.474 50.436)" fill="url(#linear-gradient)"/>
    <path id="Vector-16" data-name="Vector" d="M4.338-4.126,0-8.98l4.338-4.854,5.237,3.329a2.167,2.167,0,0,1,1.1,1.525v0a2.168,2.168,0,0,1-1.1,1.524L4.338-4.126" transform="translate(24.05 32.484)" fill="url(#linear-gradient-2)"/>
    <path id="Vector-17" data-name="Vector" d="M.928-6.349A1.27,1.27,0,0,1,0-6.731H0L13.012-21.29l4.338,4.855L2.1-6.743A2.234,2.234,0,0,1,.928-6.349Z" transform="translate(11.038 44.793)" fill="url(#linear-gradient-3)"/>
    <path id="Vector-18" data-name="Vector" d="M13.013-6.349,0-20.908a1.272,1.272,0,0,1,.927-.381,2.237,2.237,0,0,1,1.179.4L17.351-11.2,13.013-6.349" transform="translate(11.037 29.853)" fill="url(#linear-gradient-4)"/>
    <path id="Vector-19" data-name="Vector" d="M1.006-4.359a1.273,1.273,0,0,1-.928-.382h0l0,0L.007-4.818,0-4.826l.078-.087a1.27,1.27,0,0,0,.928.382,2.233,2.233,0,0,0,1.177-.394l15.245-9.692.1.109-.1.063L2.183-4.754a2.328,2.328,0,0,1-1.08.392l-.1,0" transform="translate(10.96 42.976)" fill="url(#linear-gradient-5)"/>
    <path id="Vector-20" data-name="Vector" d="M.486-.774A2.533,2.533,0,0,1,0-2.426V-2.6A2.534,2.534,0,0,0,.486-.946l.078.084Z" transform="translate(10.474 38.924)" fill="url(#linear-gradient-6)"/>
    <path id="Vector-21" data-name="Vector" d="M.1-2.109,0-2.218,5.237-5.547a2.168,2.168,0,0,0,1.1-1.524,1.6,1.6,0,0,1-.121.606,2.41,2.41,0,0,1-.979,1.089L.1-2.109" transform="translate(28.388 30.576)" fill="url(#linear-gradient-7)"/>
    <path id="Vector-22" data-name="Vector" d="M6.338-2.109a2.167,2.167,0,0,0-1.1-1.525L0-6.962l.1-.109h0L5.237-3.8A2.072,2.072,0,0,1,6.338-2.109Z" transform="translate(28.387 25.613)" fill="url(#linear-gradient-8)"/>
    <path id="Vector-23" data-name="Vector" d="M0-.775v-.18c0-.065,0-.128,0-.19v0a.009.009,0,0,1,0,0v-.007A2.4,2.4,0,0,1,.486-2.6l.077.086A2.427,2.427,0,0,0,0-.775Z" transform="translate(10.474 11.456)" fill="url(#linear-gradient-9)"/>
    <path id="Vector-24" data-name="Vector" d="M17.427-4.359,2.183-14.051A2.238,2.238,0,0,0,1-14.446a1.272,1.272,0,0,0-.927.381L0-14.151q.036-.043.075-.082l0,0A1.272,1.272,0,0,1,1-14.618H1a2.237,2.237,0,0,1,1.179.4L17.525-4.469h0Z" transform="translate(10.96 23.009)" fill="url(#linear-gradient-10)"/>
  </g>
</svg>
