<svg xmlns="http://www.w3.org/2000/svg" width="34.416" height="34.416" viewBox="0 0 34.416 34.416">
  <g id="Group_1409" data-name="Group 1409" transform="translate(0 0)">
    <path id="Path_12023" data-name="Path 12023" d="M265.221,427.751a3.183,3.183,0,1,0,3.183,3.183A3.185,3.185,0,0,0,265.221,427.751Z" transform="translate(-247.93 -413.75)" fill="#fff"/>
    <g id="Group_1408" data-name="Group 1408">
      <g id="Group_1406" data-name="Group 1406">
        <path id="Path_12024" data-name="Path 12024" d="M272.419,425.943h-8.056a4.167,4.167,0,0,0-4.164,4.164v8.056a4.167,4.167,0,0,0,4.164,4.163h8.056a4.167,4.167,0,0,0,4.161-4.163v-8.056A4.167,4.167,0,0,0,272.419,425.943ZM268.474,439.1a4.97,4.97,0,1,1,4.97-4.97A4.976,4.976,0,0,1,268.474,439.1Zm5.258-9.089a1.183,1.183,0,1,1,1.183-1.183A1.182,1.182,0,0,1,273.732,430.015Z" transform="translate(-251.182 -416.926)" fill="#fff"/>
      </g>
      <g id="Group_1407" data-name="Group 1407">
        <path id="Path_12025" data-name="Path 12025" d="M274.153,422.7a17.208,17.208,0,1,0,17.208,17.208A17.207,17.207,0,0,0,274.153,422.7Zm10.089,21.211a6.068,6.068,0,0,1-6.061,6.061h-8.056a6.066,6.066,0,0,1-6.061-6.061v-8.056a6.068,6.068,0,0,1,6.061-6.061h8.056a6.07,6.07,0,0,1,6.061,6.061Z" transform="translate(-256.945 -422.697)" fill="#fff"/>
      </g>
    </g>
  </g>
</svg>
