<svg id="call_black_24dp" xmlns="http://www.w3.org/2000/svg" width="19.957" height="22.259" viewBox="0 0 19.957 22.259">
  <path id="Path_11988" data-name="Path 11988" d="M0,0H19.957V22.259H0Z" fill="none"/>
  <path id="Path_11989" data-name="Path 11989" d="M17.144,14.482a8.62,8.62,0,0,1-2.935-.519.755.755,0,0,0-.84.223l-1.305,1.827A13.423,13.423,0,0,1,6.334,9.678l1.621-1.54a1.026,1.026,0,0,0,.2-.946A11.439,11.439,0,0,1,7.69,3.918.882.882,0,0,0,6.867,3H3.99A.9.9,0,0,0,3,3.918c0,8.616,6.428,15.776,14.144,15.776.59,0,.823-.584.823-1.094V15.4a.882.882,0,0,0-.823-.918Z" transform="translate(-0.505 -0.218)" fill="#fff"/>
</svg>
