<svg xmlns="http://www.w3.org/2000/svg" width="34.419" height="34.416" viewBox="0 0 34.419 34.416">
  <path id="Path_12026" data-name="Path 12026" d="M292.2,422.7a17.208,17.208,0,1,0,17.211,17.208A17.207,17.207,0,0,0,292.2,422.7Zm9.588,11.327a.485.485,0,0,1-.1.3,7.5,7.5,0,0,1-1.5,1.559c-.086.064-.227.133-.227.252a11.565,11.565,0,0,1-3.053,8.441,11.35,11.35,0,0,1-11.022,2.576,10.575,10.575,0,0,1-2.133-.851c-.224-.125-.446-.252-.665-.4-.055-.044-.094-.086-.047-.114s.08-.025.252,0a7.528,7.528,0,0,0,3.191-.407,4.9,4.9,0,0,0,2.1-1.114l.025-.025c-.141-.033-.28-.033-.421-.058a4.121,4.121,0,0,1-3.075-2.573c-.039-.1,0-.155.108-.136a4.5,4.5,0,0,0,1.463-.044,2.389,2.389,0,0,1-.5-.152,3.967,3.967,0,0,1-2.443-3.161,2.448,2.448,0,0,1-.025-.443c.008-.1.053-.136.144-.078a3.969,3.969,0,0,0,1.493.418c-.169-.133-.324-.274-.476-.418a3.923,3.923,0,0,1-.668-4.635c.075-.111.122-.111.213-.008a12.017,12.017,0,0,0,7.732,3.936c.083.014.091,0,.078-.089a4.132,4.132,0,0,1,.042-1.618,3.9,3.9,0,0,1,.765-1.529,4.069,4.069,0,0,1,1.28-1.047,4.018,4.018,0,0,1,1.585-.446,3.755,3.755,0,0,1,1.673.269,3.986,3.986,0,0,1,1.091.668,1.985,1.985,0,0,1,.2.2.152.152,0,0,0,.155.039,9.741,9.741,0,0,0,2.249-.859.105.105,0,0,1,.1-.008c.033.022.022.064.006.1a3.457,3.457,0,0,1-.632,1.15c-.18.224-.626.776-.933.828a7.653,7.653,0,0,0,1.9-.543c.075-.033.078-.05.078,0Z" transform="translate(-274.995 -422.697)" fill="#fff"/>
</svg>
