<svg xmlns="http://www.w3.org/2000/svg" width="1266" height="785.299" viewBox="0 0 1266 785.299">
  <path id="Path_14129" data-name="Path 14129" d="M2419.92,1209.507l.006-.006-.09-.129a5.419,5.419,0,0,0-.7-1.044l-13.028-19.363-6.536,1.559-.786,1.828a48.609,48.609,0,0,1-4.043-7.38c-3.555-8.12-5.243-16.91-7.605-25.448a25.65,25.65,0,0,0-4.057-9.124l.032-.046-13.883-20.722-6.479,17.625c-3.284.979-6.626,2.2-9.1,4.571-3.876,3.722-4.843,9.473-5.473,14.812-1.52,12.808-3.934,28.23-4.025,41.129a75.858,75.858,0,0,1-44.433,30.593c-12.93,3.1-26.543,2.743-39.358,6.318s-25.558,12.756-27.238,25.951c-.78,6.072.894,12.184,1.016,18.307s-1.964,13.072-7.535,15.616c-2.994,1.359-6.419,1.191-9.7,1.191a83.512,83.512,0,0,0-36.409,8.378c-2.8,1.359-5.989,4.024-4.855,6.923.65,1.667,2.524,2.53,3.47,4.057,2,3.238-.991,7.2-3.767,9.813q-12.384,11.687-24.773,23.375c-10.355,9.775-26.4,24.335-39.944,19.956-4.681,3.188-10.651,6.478-15.667,3.845-5.956-3.13-5.5-11.746-3.652-18.211,2.833-9.91,6.962-19.614,7.547-29.911s-3.387-21.753-12.653-26.272a6.557,6.557,0,0,0-2-.677c-3.889-.5-5.976,4.263-7.534,7.869s-6.453,7.129-8.83,4c-.154-12.55,9.087-24.431,6.5-36.711-2.909-13.851-19.6-20.439-33.7-19.177.122,4.617.232,9.344-1.256,13.716s-4.92,8.384-9.46,9.215c-4.791.881-10.972-1.4-13.825,2.55a9.763,9.763,0,0,0-1.384,4.217q-1.642,9.988-3.292,19.976c-.779,4.7-1.545,9.542-.5,14.192.791,3.51,2.575,6.7,3.792,10.091,3.078,8.609,2.357,18.043,1.59,27.155-.464,5.474-1.294,11.649-5.738,14.875a12.3,12.3,0,0,1-6.439,2.145c-11.2.74-20.336-10.053-22.48-21.083s.644-22.319,2.119-33.453,2.028-23.285-4.92-32.113c4.644-13.376,10.085-27.781,22.127-35.231a54.921,54.921,0,0,1,13.361-5.48,239.1,239.1,0,0,1,40.982-8.462,3.44,3.44,0,0,0-.335-3.123h0a5.787,5.787,0,0,0-.47-.689l-14.945-21.753-63.353,15.243a15.811,15.811,0,0,0-6.2.239c-2.447.655-5.2,1.848-7.342.5-2.209-1.4-2.009-4.52-.682-6.884l7.985-.785v-6.434c.058-.071.136-.122.2-.193,2.08-2.369,2.589-6.736-.2-8.216l-12.474-19.28-21.63,22.062,6.639,14.766,1.725-.167a154.779,154.779,0,0,1-18.029,8.758c-3.8,5.936-10.684-6.37-17.722-6.621-6.754-.244-14.714,10.413-17.567,4.3.039-22.763,41.747-23.632,45.965-46L1923,1170.311l-25.32,18.384a139.677,139.677,0,0,1-22.127-6.387c-5.286-2.015-10.579-4.38-16.227-4.7-8.352-.47-18.217,3.142-24.173-2.731-2.634-2.6-3.9-6.723-7.276-8.236-4.392-1.965-9.054,1.616-13.35,3.779-7,3.53-15.216,3.374-23.053,3.091a2138.57,2138.57,0,0,1-514.753-82.058c4.192,16.536-2.646,35.307-16.5,45.276a15.381,15.381,0,0,1,6.375-19.029,64.921,64.921,0,0,0-33.137-17.368,171.255,171.255,0,0,1-21.406,107.037c-9.769,16.871-22.673,32.609-26.685,51.69-4.572,21.7,2.259,47.35-12.1,64.253-7.946,9.363-10.426,22.435-13.839,34.239-3.394,11.713-6.813,24.019-4.256,35.945,1.912,8.887,9.292,18.012,18.289,16.64,4.281-.651,7.914-3.561,12.131-4.54s9.937,1.623,9.293,5.9a8.351,8.351,0,0,1-2.628,4.276c-4.153,4.295-8.937,8.12-11.99,13.258s-3.941,12.2-.148,16.821c3.51,4.269,10.825,7.065,9.627,12.46-1.12,5.049-9.582,7.1-8.506,12.158a8.2,8.2,0,0,0,2.286,3.561,74.363,74.363,0,0,1,16.974,32.712l-13.4,5.481,13.884,20.716q17.444,13.571,34.9,27.143c9.176,7.135,18.952,19.318,29.873,23.73l-9.363,14.276,13.884,20.716c16.459-.67,33.66-1.147,50.119-1.823,9.871,11.488,22.628,26.177,36.866,31.335,17.477,6.336,33.266,16.491,49.886,24.811s34.9,14.934,53.416,13.324c6.672-.58,13.208-2.215,19.821-3.3,13.6-2.241,30.5-1.868,44.29-1.757,17.438,14.43,35.656,29.969,43,51.38,2.029,5.911,3.169,12.152,5.848,17.805,4.1,8.641,11.455,15.217,18.623,21.553a11.693,11.693,0,0,0,4.887,3.039c6.214,1.384,9.576-6.69,13.168-11.945,6.633-9.7,20.71-11.964,31.754-7.953s19.557,12.9,26.853,22.1a208.832,208.832,0,0,1,32.545,58.277c3.09,8.513,5.866,17.618,12.421,23.871,6.408,6.111,15.4,8.5,23.994,10.67q12.3,3.111,24.606,6.22c1.371.348,2.988.645,4.069-.263,1.269-1.057,1.018-3.034.664-4.649-2.582-11.8-4.515-23.955-2.9-35.919s7.193-23.858,17.084-30.787c6.008-4.212,13.2-6.369,20.368-7.947,5.647-1.242,11.886-2.473,15.448-7.025,3.226-4.128,3.3-9.782,4.223-14.927a12.8,12.8,0,0,1,10.368-10.336c2.9,3.368,8.262,3.265,12.383,1.591s7.682-4.559,11.854-6.1c9.267-3.425,19.442.329,28.857,3.323,3.4,1.082,6.993,2.073,10.489,1.358,2.738-.566,5.2-2.144,7.954-2.595,7.611-1.237,13.516,6.034,19.807,10.49a31.168,31.168,0,0,0,34.381.521c7.9-5.241,12.853-13.781,17.528-22.016a4.655,4.655,0,0,0,.85-2.524,2.583,2.583,0,0,0-1.34-2l-5.254-7.843a335.833,335.833,0,0,0,49.578-5.86c10.632-2.087,21.733-4.669,32.1-1.552,12.2,3.664,22.589,14.959,35.2,13.259,9.954-1.34,18.1-10.741,28.095-9.827,7.309.67,12.808,6.621,18.07,11.734s10.612,11.333,17.676,9.356c-5,13.542,1.925,28.3,8.674,41.045q5.853,11.052,11.7,22.094c4.726,8.944,9.53,17.979,16.272,25.513,7.991,8.926,18.34,15.34,28.541,21.624,1.692,1.043,3.535,2.125,5.517,1.97,2.7-.212,4.668-2.62,5.893-5.029,2.982-5.873,3.464-12.679,3.484-19.26a160.006,160.006,0,0,0-19.6-76.991c-8.538-15.6-19.691-29.763-26.839-46.042s-9.794-35.945-.992-51.387c4.07-7.135,11.681-14.3,9.589-22.242,2.923-1.945,6.922-1.03,10.167-2.363a14.431,14.431,0,0,0,4.507-3.394c11.7-11.726,21.534-29.293,26.448-45.115,2.607,2.306,6.786,1.848,9.729-.019s4.977-4.823,7.1-7.579a85.626,85.626,0,0,1,24.43-21.482c4.141-2.427,8.855-4.9,10.451-9.427.85-2.4.663-5.036.47-7.579q-1.4-17.947-2.789-35.894c-.321-4.166-.676-8.461-2.562-12.19s-5.074-9.4-9.247-9.112a31.81,31.81,0,0,0-3.206-20.549c-2.093-3.922-5-7.373-6.942-11.366-3.98-8.146-3.594-17.65-3.13-26.7.245-4.694,2.216-10.972,6.884-10.432a36.133,36.133,0,0,0,4.887,24.915v10.618l11.726,17.5a7.571,7.571,0,0,0,2.157,3.213c10.084-15.152,9.57-36.609-1.236-51.264-2.4-3.266-5.016-8.468-1.578-10.625,4.7-2.949,9.77,6.948,14.882,4.784a6.519,6.519,0,0,0,2.582-2.4c8.623-12.106,6.549-28.457,5.223-43.26-.264-2.949-.438-6.111,1.049-8.668,1.256-2.158,3.5-3.522,5.648-4.8q33.334-19.783,66.667-39.558l-13.884-20.717-4.359.877a45.308,45.308,0,0,1-4.3-14.276c-.295-2.409-.347-5.036.992-7.058,1.584-2.389,4.707-3.335,6.427-5.628,2-2.666,1.583-6.35,2.112-9.647,1.2-7.5,7.372-13.059,13.167-17.967q20.469-17.346,40.937-34.7a7.286,7.286,0,0,0,2.5-3.072A3.569,3.569,0,0,0,2419.92,1209.507Z" transform="translate(-1154.281 -1091.453)" fill="#1864e6" opacity="0.2"/>
</svg>
