<svg xmlns="http://www.w3.org/2000/svg" xmlns:xlink="http://www.w3.org/1999/xlink" width="521.328" height="749.663" viewBox="0 0 521.328 749.663">
  <defs>
    <filter id="Path_13643" x="0" y="0" width="521.328" height="749.663" filterUnits="userSpaceOnUse">
      <feOffset dx="-120" dy="80" input="SourceAlpha"/>
      <feGaussianBlur stdDeviation="49.5" result="blur"/>
      <feFlood flood-opacity="0.141"/>
      <feComposite operator="in" in2="blur"/>
      <feComposite in="SourceGraphic"/>
    </filter>
    <clipPath id="clip-path">
      <rect id="Rectangle_355" data-name="Rectangle 355" width="200.837" height="439.38" rx="24" transform="translate(5869.556 12015.497)" fill="#fff"/>
    </clipPath>
  </defs>
  <g id="Group_8200" data-name="Group 8200" transform="translate(-574.31 -4220.305)">
    <g id="Group_8199" data-name="Group 8199" transform="translate(-5433 -7672)">
      <g id="Group_8198" data-name="Group 8198">
        <g id="Group_2421" data-name="Group 2421" transform="translate(172 214.468)">
          <g transform="matrix(1, 0, 0, 1, 5835.31, 11677.84)" filter="url(#Path_13643)">
            <path id="Path_13643-2" data-name="Path 13643" d="M688.823,468.079H688.4V423.352A26.852,26.852,0,0,0,661.545,396.5H498.784a26.852,26.852,0,0,0-26.852,26.852v44.727h-.426A3.506,3.506,0,0,0,468,471.584v30.939a3.506,3.506,0,0,0,3.506,3.506h.426v7.379h-.426A3.506,3.506,0,0,0,468,516.914v30.939a3.505,3.505,0,0,0,3.506,3.506h.426V822.311a26.852,26.852,0,0,0,26.852,26.852H661.545A26.852,26.852,0,0,0,688.4,822.311V525h.426a3.506,3.506,0,0,0,3.506-3.506V471.584A3.506,3.506,0,0,0,688.823,468.079Z" transform="translate(-199.5 -328)" fill="#333343"/>
          </g>
          <rect id="Rectangle_357" data-name="Rectangle 357" width="200.837" height="439.38" rx="24" transform="translate(6115.556 11753)" fill="#fff"/>
          <g id="Mask_Group_9" data-name="Mask Group 9" transform="translate(246 -262.497)" clip-path="url(#clip-path)">
            <g id="Group_2369" data-name="Group 2369" transform="translate(4494.15 10531.802)">
              <path id="Path_13356" data-name="Path 13356" d="M1299.85,1416.426v81.428l29.979-65.161Z" transform="translate(0 -10.626)" fill="#e0dbd5"/>
              <path id="Path_13357" data-name="Path 13357" d="M1299.85,1349.285v36.736l37.261,20.219,26.2-56.955Z" transform="translate(0)" fill="#e0dbd5"/>
              <path id="Path_13358" data-name="Path 13358" d="M1372.88,1349.285l-73.03,158.728v6.778l75.112-165.506Z" transform="translate(0)" fill="#e0dbd5"/>
              <path id="Path_13359" data-name="Path 13359" d="M1463.406,1349.285a27.566,27.566,0,0,1,.24,3.559,16.39,16.39,0,0,1-1.207,6.837c-1.567,3.123-1.677,3.892-11.443,22.342a18.5,18.5,0,0,0-2.3,8.842c-.124,7.406,5,14.149,8.532,17.812l14.827-29.02,29.523-30.371Z" transform="translate(-23.557)" fill="#e0dbd5"/>
              <path id="Path_13360" data-name="Path 13360" d="M1409.6,1349.285l-33.023,73.213,49,25.789,17.139-33.547c-4.012-3.692-11.778-12.209-11.956-23.875a25.171,25.171,0,0,1,3.064-11.9c9.79-18.5,9.675-18.808,11.373-22.2a11.652,11.652,0,0,0,.522-3.922,19.463,19.463,0,0,0-.322-3.559Z" transform="translate(-12.143)" fill="#e0dbd5"/>
              <path id="Path_13361" data-name="Path 13361" d="M1645.505,1618.462l-43.145-42.639-27.384,83.617,103.109-2.569Z" transform="translate(-43.545 -35.855)" fill="#e0dbd5"/>
              <path id="Path_13362" data-name="Path 13362" d="M1318.174,1547.487l36.837,15.921,45.984-92.454-39.035-20.543Z" transform="translate(-2.9 -16.005)" fill="#e0dbd5"/>
              <path id="Path_13363" data-name="Path 13363" d="M1471.081,1765.55c3.066-24.851,6.442-51.637,9.44-75.222l-15.064.375-6.76,71.47Z" transform="translate(-25.141 -53.977)" fill="#e0dbd5"/>
              <path id="Path_13364" data-name="Path 13364" d="M1436.654,1637.873l3.577-45.221-8.6-13.3-8.948,4.551L1299.85,1657.98v7.787l134.862-3.359,1.409-17.8-26.257-9.547,2.228-6.125Z" transform="translate(0 -36.413)" fill="#e0dbd5"/>
              <path id="Path_13365" data-name="Path 13365" d="M1312.592,1572.8l-12.742,28.25v32.121l44.115-22.446,5.5-21.989Z" transform="translate(0 -35.376)" fill="#e0dbd5"/>
              <path id="Path_13366" data-name="Path 13366" d="M1648.092,1599.451l3.976,4.689,19.735-43.215c-2.013-1.21-4.155-2.542-6.364-3.991-10.437-6.89-22.285-16.031-28.031-26.5-3.464-6.38-10.59-18.763-18.476-32.313l-17.775,10.23-3.252-5.651,17.745-10.214c-1.689-2.894-3.39-5.8-5.086-8.7l-49.43,29.727,31.828,31.452,21.1-21.106,4.611,4.611-21.078,21.079,11,10.871,15.323-14.362,4.452,4.754-15.137,14.192Z" transform="translate(-41.354 -21.288)" fill="#e0dbd5"/>
              <path id="Path_13367" data-name="Path 13367" d="M1696.2,1444.509l-8.347-8.549-61.36,36.9c1.715,2.929,3.438,5.878,5.148,8.807Z" transform="translate(-51.698 -13.718)" fill="#e0dbd5"/>
              <path id="Path_13368" data-name="Path 13368" d="M1597.948,1423.484c2.79,4.716,10.145,17.16,18.532,31.446l59.049-35.511-36.794-37.545Z" transform="translate(-47.18 -5.158)" fill="#e0dbd5"/>
              <path id="Path_13369" data-name="Path 13369" d="M1489.935,1603.041l.046-.226s.007-.018.045-.263.1-.642.157-1.169a39.492,39.492,0,0,0,.24-4.473,35.79,35.79,0,0,0-4.093-17.181c-1.354-2.438-4.106-7.172-7.639-13.183l-15.349,7.808,9.438,14.587-5.642,71.278,15.506-.386c4.144-32.5,7.265-56.568,7.267-56.581Z" transform="translate(-25.876 -34.386)" fill="#e0dbd5"/>
              <path id="Path_13370" data-name="Path 13370" d="M1609.417,1368.313l-13.189,10.551-35.379-29.579H1513.2l-33.262,34.22-15.212,29.773,73.145,71.086,51.936-31.233c-7.566-12.889-14.294-24.28-17.594-29.859l-35.051,35.557-4.646-4.574,80.571-82.19Z" transform="translate(-26.096)" fill="#e0dbd5"/>
              <path id="Path_13371" data-name="Path 13371" d="M1707.2,1568.978l14.416-32.5-4.929-.947-14.125,30.931c.728.407,1.42.785,2.065,1.132C1705.6,1568.128,1706.453,1568.584,1707.2,1568.978Z" transform="translate(-63.738 -29.478)" fill="#e0dbd5"/>
              <path id="Path_13372" data-name="Path 13372" d="M1725.586,1475.5l-23.1-23.659-65.979,37.976c7.891,13.557,15.024,25.96,18.551,32.455,5.438,10.251,20.288,20.884,31.392,27.639L1700,1520.249l-23.935-14.261,3.338-5.6,23.323,13.894,13.868-30.374,5.931,2.709-13.5,29.567,4.853.933,11.713-26.4Z" transform="translate(-53.284 -16.232)" fill="#e0dbd5"/>
              <path id="Path_13373" data-name="Path 13373" d="M1740.462,1517.127l-9.962,22.458,9.962,4.41Z" transform="translate(-68.16 -26.565)" fill="#e0dbd5"/>
              <path id="Path_13374" data-name="Path 13374" d="M1700.143,1581.879c-1.243-.65-2.837-1.5-4.7-2.546l-20.74,45.421,4.218,4.975Z" transform="translate(-59.329 -36.41)" fill="#e0dbd5"/>
              <path id="Path_13375" data-name="Path 13375" d="M1589.657,1783.025l7.609-37.1-16.927-1.969-8.607,28.776-.023.076,0,.015-6.247-1.853.007-.017h0l.04-.131,9.964-33.993.2.023,8.661-28.959-.469-20.229-.539-.108-4.411.11-2.226,19.145-8.224,27.98-6.256-1.842,8.07-27.45,2.054-17.67-48.835,1.218-6.9,82.786c17.477,2.956,39.58,6.5,60.573,9.315C1581.2,1781.691,1585.377,1782.323,1589.657,1783.025Z" transform="translate(-34.304 -53.538)" fill="#e0dbd5"/>
              <path id="Path_13376" data-name="Path 13376" d="M1512.507,1689.521l-14.068.35c-.8,6.263-1.621,12.765-2.461,19.414-2.429,19.2-4.984,39.591-7.347,58.761,4.476.8,10.305,1.833,17.086,3Z" transform="translate(-29.879 -53.85)" fill="#e0dbd5"/>
              <path id="Path_13377" data-name="Path 13377" d="M1428.394,1558.4l28.613-17.254c-4.269-7.207-8.988-15.137-13.564-22.808-9.72-16.3-18.81-31.468-21.687-36.266l-6.943-3.653-45.755,92.009,19.3,8.342Z" transform="translate(-10.954 -20.439)" fill="#e0dbd5"/>
              <path id="Path_13378" data-name="Path 13378" d="M1552.07,1884.61l-5.137,30.8,42.489,4.649,4.339-22.1-41.135-13.27Z" transform="translate(-39.106 -84.727)" fill="#e0dbd5"/>
              <path id="Path_13379" data-name="Path 13379" d="M1599.913,1929.934l-4.125,23.586,15.3,7.426,17.3-37.367h0l3.94,1.827L1615,1962.843l14.146,6.866,16.62-36.7h0l3.955,1.791-16.671,36.8,25.824,12.533,2.508-70.376-54.282-20.478Z" transform="translate(-46.839 -86.1)" fill="#e0dbd5"/>
              <path id="Path_13380" data-name="Path 13380" d="M1528.446,1501.012l-70.474-68.486-16.333,31.972.907.478.94,1.563c.024.045,22.222,37.037,37.566,62.971Z" transform="translate(-22.441 -13.175)" fill="#e0dbd5"/>
              <path id="Path_13381" data-name="Path 13381" d="M1697.508,1758.018l19.983,6.082-19.85-6.5Z" transform="translate(-62.938 -64.625)" fill="#e0dbd5"/>
              <path id="Path_13382" data-name="Path 13382" d="M1660,1353.51c15.553,16.468,32.375,31.523,49.2,46.758l.088-.052-48.343-48.71c-.085.295-.191.579-.272.875A2.694,2.694,0,0,1,1660,1353.51Z" transform="translate(-57.002 -0.352)" fill="#e0dbd5"/>
              <path id="Path_13383" data-name="Path 13383" d="M1488.467,1939.737l-2.1,45.795,11.048-30.231,34.127,16.891,5.2-26.469-47.129-12.565Z" transform="translate(-29.519 -92.41)" fill="#e0dbd5"/>
              <path id="Path_13384" data-name="Path 13384" d="M1716.138,1697.983l19.607,6.417v-20.495l-17.931.447-17.111,53.581Z" transform="translate(-63.444 -52.961)" fill="#e0dbd5"/>
              <path id="Path_13385" data-name="Path 13385" d="M1718.949,1811.961v-19.518l-4.24-1.385,4.24-12.964v-13.328l-39.716-12.087-10.469,32.778-6.206-1.981,0,0,0,0,.344-1.076,12.035-37.833.046.013,19.141-59.931-24.318.6-25.447,91.4-6.278-1.748,24.913-89.482-34.151.853-7.22,43.327-6.432-1.071,7.015-42.09-19.5.484.5,21.4-8.627,28.839,22.845,2.659-8.994,43.849C1649.837,1790.97,1698.557,1804.225,1718.949,1811.961Z" transform="translate(-46.647 -53.077)" fill="#e0dbd5"/>
              <path id="Path_13386" data-name="Path 13386" d="M1468.129,2082.562l13.927,6.686.024-.117.162-.293a34.743,34.743,0,0,1,7.017-9.065l-18.835-6.28Z" transform="translate(-26.634 -114.621)" fill="#e0dbd5"/>
              <path id="Path_13387" data-name="Path 13387" d="M1741.43,1652.349l-3.066-.569-1.352,3.713-.393,12.58,4.81-.12Z" transform="translate(-69.128 -47.876)" fill="#e0dbd5"/>
              <path id="Path_13388" data-name="Path 13388" d="M1555.405,1651.287l29.12-88.911-39.616-39.151-49.886,30c3.524,6,6.289,10.754,7.715,13.32a51.321,51.321,0,0,1,5.092,31.694c-.1.794-.557,4.316-1.284,9.934l17.531,6.816-3.1,37.154Z" transform="translate(-30.89 -27.53)" fill="#e0dbd5"/>
              <path id="Path_13389" data-name="Path 13389" d="M1733.3,1556.467l-12.6-5.58-35.421,79.862,18.632,21.967,18.054-.45.433-13.983,6.7-18.418.006.005,4.2,1.525Z" transform="translate(-61.003 -31.908)" fill="#e0dbd5"/>
              <path id="Path_13390" data-name="Path 13390" d="M1361.408,1610.3l18.19-9.255-14.328-6.195Z" transform="translate(-9.743 -38.866)" fill="#e0dbd5"/>
              <path id="Path_13391" data-name="Path 13391" d="M1501.935,1669.873l13.586-.34,2.749-33-11.49-4.47C1505.544,1641.667,1503.858,1654.807,1501.935,1669.873Z" transform="translate(-31.984 -44.755)" fill="#e0dbd5"/>
              <path id="Path_13392" data-name="Path 13392" d="M1731.366,1939.706l-53.463-20.169-4.872,136.669,8.12,2.981L1701.8,2000l6.157,2.143-20.685,59.3,8.667,3.182,35.428-107.131Z" transform="translate(-59.064 -90.255)" fill="#e0dbd5"/>
              <path id="Path_13393" data-name="Path 13393" d="M1741.858,1410.27l-2.537,1.492,2.537,2.587Z" transform="translate(-69.556 -9.652)" fill="#e0dbd5"/>
              <path id="Path_13394" data-name="Path 13394" d="M1656.085,2114.781l54.29,19.079,9.987-22.816-53.3-19.576Z" transform="translate(-56.382 -117.466)" fill="#e0dbd5"/>
              <path id="Path_13395" data-name="Path 13395" d="M1740.052,2118.207l-2.19-.8-9.951,22.731,12.141,4.267Z" transform="translate(-67.75 -121.571)" fill="#e0dbd5"/>
              <path id="Path_13396" data-name="Path 13396" d="M1740.526,2199.663v-15.2l-4.672-1.479c-1.261,5.214-2.954,10.83-4.95,16.676Z" transform="translate(-68.223 -131.951)" fill="#e0dbd5"/>
              <path id="Path_13397" data-name="Path 13397" d="M1642.616,2143.984l55.718,17.636,8.16-18.64-54.4-19.12Z" transform="translate(-54.25 -122.593)" fill="#e0dbd5"/>
              <path id="Path_13398" data-name="Path 13398" d="M1645.974,2199.654l-20.057-9.149,2.774-5.946-3.233-1.626-7.46,16.722Z" transform="translate(-50.354 -131.942)" fill="#e0dbd5"/>
              <path id="Path_13399" data-name="Path 13399" d="M1719.486,2198.529a188.427,188.427,0,0,0,5.621-18.645l-12.818-4.059-9.939,22.7Z" transform="translate(-63.704 -130.818)" fill="#e0dbd5"/>
              <path id="Path_13400" data-name="Path 13400" d="M1305.223,2202.127l-5.372-3.568v3.568Z" transform="translate(0 -134.416)" fill="#e0dbd5"/>
              <path id="Path_13401" data-name="Path 13401" d="M1577.228,2111.193l-3.405,9.68,53.762,19.7,9.5-20.172-9.147-3.215-4.666,9.813Z" transform="translate(-43.362 -120.588)" fill="#e0dbd5"/>
              <path id="Path_13402" data-name="Path 13402" d="M1355.8,2202.4l-3.616-2.135-.919,2.135Z" transform="translate(-8.138 -134.685)" fill="#e0dbd5"/>
              <path id="Path_13403" data-name="Path 13403" d="M1474.734,2053.617l7.538-23.69-1.435-.436Z" transform="translate(-27.679 -107.657)" fill="#e0dbd5"/>
              <path id="Path_13404" data-name="Path 13404" d="M1632.722,2174.823l39.378,20.013h11.517l10.8-24.681-55.8-17.662-9.656,21.646,3.3,1.66Z" transform="translate(-52.09 -127.125)" fill="#e0dbd5"/>
              <path id="Path_13405" data-name="Path 13405" d="M1570.515,2200.856l-21.243-10.327-3.633,10.327Z" transform="translate(-38.901 -133.145)" fill="#e0dbd5"/>
              <path id="Path_13406" data-name="Path 13406" d="M1602.741,2190.891l19.525-43.758-53.389-19.569-17.2,48.875,29.729,14.452Zm-24.256-53.327,21.727,8.691-7.241,17.382-22.453-10.863Z" transform="translate(-39.857 -123.179)" fill="#e0dbd5"/>
              <path id="Path_13407" data-name="Path 13407" d="M1462.264,2202.189l-6.257-3.24-.11,3.24Z" transform="translate(-24.698 -134.477)" fill="#e0dbd5"/>
              <path id="Path_13408" data-name="Path 13408" d="M1526.9,2194.019l4.305-12.236-70.866-34.454-4.025,38.68,15.469,8.01Z" transform="translate(-24.764 -126.308)" fill="#e0dbd5"/>
              <path id="Path_13409" data-name="Path 13409" d="M1595.423,2013.6l-10.783-4.961-14.51,31.448,16.07,5.792Z" transform="translate(-42.778 -104.356)" fill="#e0dbd5"/>
              <path id="Path_13410" data-name="Path 13410" d="M1498.064,2012.384l13.45-39.764-12.077-5.979-12.932,35.387-1.033-.378-.3,6.465-1.29,5.1,1.812.55,1.668-5.241Z" transform="translate(-29.127 -97.71)" fill="#e0dbd5"/>
              <path id="Path_13411" data-name="Path 13411" d="M1738.2,2154.032l-13.889-4.881-8.078,18.451,21.967,6.953Z" transform="translate(-65.902 -126.596)" fill="#e0dbd5"/>
              <path id="Path_13412" data-name="Path 13412" d="M1479.714,2098.807l-13.7-6.577-4.348,41.782,25.824,12.552,8.156-16.984,3.917,1.88-8.161,17.009,42.1,20.467,17.047-48.46-20.378-7.469,1.491-4.08,20.329,7.452,3.375-9.6-20.225-6.946-13.743,33.525-7.222,25.279-4.178-1.194,6.571-23.009c-16.1-2.737-25.774-6.436-31.631-10.39-6.154-4.1-8.08-8.829-8.033-12.4a10.709,10.709,0,0,1,1.252-5.08Z" transform="translate(-25.611 -117.587)" fill="#e0dbd5"/>
              <path id="Path_13413" data-name="Path 13413" d="M1404.392,1795.485c-27.163-4.893-52.432-15.141-79.264-20.993-8.4-1.833-16.843-3.439-25.278-5.045v45.392a115.624,115.624,0,0,1,25.85,12.923c12.834,36.1-3.947,52.645-25.85,57.96v67.3l102.3,12.734-.163,1.311c6.454-14.611,10.4-23.5,10.4-23.5s1.2-2.726,3.149-7.8,4.621-12.426,7.473-21.428c5.706-18,12.109-42.61,14.937-68.8,1.168-10.787,2.917-25.711,4.968-42.667C1430.071,1800.388,1417.249,1797.8,1404.392,1795.485Z" transform="translate(0 -66.5)" fill="#e0dbd5"/>
              <path id="Path_13414" data-name="Path 13414" d="M1362.693,2003.235l-1.986,55.559-.938-.035,25.089,5.74c9.427-21.481,17.936-40.789,24.418-55.466Z" transform="translate(-9.483 -103.502)" fill="#e0dbd5"/>
              <path id="Path_13415" data-name="Path 13415" d="M1498.51,1877.138l-7.411,42.854,53.934,14.379,30.119,14.617,3.921-22.4.673-3.429-46.692-5.107,5.873-35.228-15.262-2.147-6.964,32.3-4.246-.917,6.9-31.993Z" transform="translate(-30.269 -83.544)" fill="#e0dbd5"/>
              <path id="Path_13416" data-name="Path 13416" d="M1299.85,1694.3v31.542l127.321,34.69,6.582-69.567Z" transform="translate(0 -54.079)" fill="#e0dbd5"/>
              <path id="Path_13417" data-name="Path 13417" d="M1384.5,1349.285l-84.654,186.528v8.728l88.071-195.256Z" transform="translate(0)" fill="#e0dbd5"/>
              <path id="Path_13418" data-name="Path 13418" d="M1299.85,1740.429v14.744c14.218,2.759,28.5,5.214,42.608,8.642,25.506,6.2,49.634,15.589,75.617,20.157,8.68,1.524,17.335,3.168,25.986,4.822q.528-4.331,1.076-8.784Z" transform="translate(0 -61.907)" fill="#e0dbd5"/>
              <path id="Path_13419" data-name="Path 13419" d="M1435.652,2182.961l.186-5.453-52.366-27.115h0l1.992-3.862,50.743,26.274,8.793-84.577-47.127-10.768c-4.314,9.821-8.833,20.133-13.454,30.7-9.568,21.877-19.559,44.827-28.971,66.633l13.834,8.167Z" transform="translate(-8.8 -115.249)" fill="#e0dbd5"/>
              <path id="Path_13420" data-name="Path 13420" d="M1649.472,2111.852l12.684-26.938-9.206-2.795-12.61,26.524Z" transform="translate(-53.89 -115.987)" fill="#e0dbd5"/>
              <path id="Path_13421" data-name="Path 13421" d="M1588.992,1998.39l10.717,4.929,8.714-26.153-14.49-7.032Z" transform="translate(-45.763 -98.263)" fill="#e0dbd5"/>
              <path id="Path_13422" data-name="Path 13422" d="M1550.192,1949.419l-5.366,27.344,33.1,16.387,4.946-28.267L1552,1949.9Z" transform="translate(-38.773 -94.984)" fill="#e0dbd5"/>
              <path id="Path_13423" data-name="Path 13423" d="M1485.954,2107.26l-.244.369c.008,0,0,0-.068.119a5.985,5.985,0,0,0-.275.619,6.585,6.585,0,0,0-.428,2.355c.042,2.1.842,5.164,6.119,8.8,5.109,3.467,14.433,7.144,30.6,9.824l4.336-10.58-.8,1.413-34.763-13.036,3.054-20.766a33.288,33.288,0,0,0-4.618,6.326Z" transform="translate(-29.294 -116.661)" fill="#e0dbd5"/>
              <path id="Path_13424" data-name="Path 13424" d="M1575.115,2003.363l-32.752-16.21-7.614,38.8,25.675,9.253Z" transform="translate(-37.178 -100.956)" fill="#e0dbd5"/>
              <path id="Path_13425" data-name="Path 13425" d="M1533.713,1983.4l-14.831-7.341-13.289,39.294,20.4,7.353Z" transform="translate(-32.563 -99.2)" fill="#e0dbd5"/>
              <path id="Path_13426" data-name="Path 13426" d="M1657.259,2041.576l-54.051-24.863-9.123,31.917,11.877,4.281,50.348,15.284Z" transform="translate(-46.569 -105.635)" fill="#e0dbd5"/>
              <path id="Path_13427" data-name="Path 13427" d="M1663.743,2003.495l-.352.724-26.923-13.066-9.079,25.432,35.309,16.242Z" transform="translate(-51.84 -101.589)" fill="#e0dbd5"/>
              <path id="Path_13428" data-name="Path 13428" d="M1606.441,2006.828l13.666,6.287,9.111-25.515-14.091-6.839Z" transform="translate(-48.525 -99.945)" fill="#e0dbd5"/>
              <path id="Path_13429" data-name="Path 13429" d="M1354.665,2121.367c6.143-14.091,12.239-28.025,18.042-41.258l-72.857-16.671v52.3l29.774,11.911-2.419,6.053-27.354-10.943v8.145l42.612,18.528c3.178-7.327,6.385-14.707,9.593-22.071l-33.807-17.136,2.949-5.814Z" transform="translate(0 -113.03)" fill="#e0dbd5"/>
              <path id="Path_13430" data-name="Path 13430" d="M1501.67,1816.06c-8.115-1.188-16.2-2.578-24.271-4.055-2,16.575-3.707,31.133-4.846,41.663-5.95,54.776-26.453,101.509-26.59,101.883-.011.027-3.523,7.943-9.342,21.116l35.625,10.814,1.131-4.468,2.894-62.948,16.68-96.442,4.282.739-6.6,38.182,21.023,2.955.123-.573,5.065-39.041,4.3.561-5.075,39.162-.109.5,15.06,2.118,6.107-36.62,4.288.715-6.087,36.51.8.113,41.021,13.234,8.517-43.393v0l4.263.833-7.161,36.48,53.667,20.246,5.289-49.324c-18.158-4.667-35.916-10.484-54.107-15.549C1559.4,1823.615,1530.562,1820.288,1501.67,1816.06Z" transform="translate(-21.647 -73.235)" fill="#e0dbd5"/>
              <path id="Path_13431" data-name="Path 13431" d="M1732.313,1864.354q-14.626-2.786-29.274-5.44c-6.312-1.135-12.534-2.507-18.7-4.021l-5.311,49.578-.009.254,53.3,20.106Z" transform="translate(-60.011 -80.023)" fill="#e0dbd5"/>
              <path id="Path_13432" data-name="Path 13432" d="M1736.824,1989.283l-29.308,88.623,24.121,8.861,5.188-14.473Z" transform="translate(-64.522 -101.293)" fill="#e0dbd5"/>
              <path id="Path_13433" data-name="Path 13433" d="M1701.832,1835.694l-1.239-.479c-21.81-8.533-84.931-25.41-129.069-31.306-32.4-4.35-67.295-10.4-84.038-13.4q-.538,4.389-1.059,8.659c15.3,2.9,30.614,5.676,46.067,7.738,25.767,3.442,51.648,7.015,76.683,14.246,27.119,7.833,53.44,16.334,81.274,21.415,3.8.693,7.587,1.408,11.381,2.114Z" transform="translate(-29.53 -69.832)" fill="#e0dbd5"/>
              <path id="Path_13434" data-name="Path 13434" d="M1684.058,1349.285h-.626l-1.963,3.7,40.834,41.143,10.4-6.113v-10.39l-13.089,7.212Z" transform="translate(-60.399)" fill="#e0dbd5"/>
              <path id="Path_13435" data-name="Path 13435" d="M1299.85,1995.342v50.632l44.9,10.271,1.967-55.067Z" transform="translate(0 -102.252)" fill="#e0dbd5"/>
              <path id="Path_13436" data-name="Path 13436" d="M1426.961,2020.741c-5.084,11.516-11.214,25.424-17.934,40.718l45.612,10.424,11.639-45.985-36.677-11.135Z" transform="translate(-17.28 -105.326)" fill="#e0dbd5"/>
              <path id="Path_13437" data-name="Path 13437" d="M1328.941,2194.762c3.549-8.253,7.208-16.731,10.933-25.336l-19.468-8.462-9.069,22.43-6.04-2.44,9.128-22.591-14.575-6.337v31.345L1317,2194.762Z" transform="translate(0 -127.051)" fill="#e0dbd5"/>
              <path id="Path_13438" data-name="Path 13438" d="M1578.921,1349.285l35.379,29.579,13.189-10.551-18.648-19.028Z" transform="translate(-44.169)" fill="#dcd8ba"/>
              <path id="Path_13439" data-name="Path 13439" d="M1684.545,1349.285l35.554,35.554,13.089-7.212v-26.052l-1.665-2.289Z" transform="translate(-60.886)" fill="#ccc2b8"/>
              <path id="Path_13440" data-name="Path 13440" d="M1593.875,2055.252l12.054,3.659-11.877-4.281Z" transform="translate(-46.536 -111.636)" fill="#ccc2b8"/>
              <path id="Path_13441" data-name="Path 13441" d="M1470.854,2066.61l18.835,6.28a27.878,27.878,0,0,1,19.279-7.327,42.547,42.547,0,0,1,18.459,4.579l34.424,12.1,6.741-25.837-86.935-26.394-7.538,23.691Z" transform="translate(-27.065 -107.739)" fill="#ccc2b8"/>
              <path id="Path_13442" data-name="Path 13442" d="M1577.868,2109.215l46.043,15.812,4.666-9.813-47.006-16.52Z" transform="translate(-44.002 -118.61)" fill="#ccc2b8"/>
              <path id="Path_13443" data-name="Path 13443" d="M1560.3,2042.5l-25.675-9.253-.65,3.315,25.493,7.74Z" transform="translate(-37.056 -108.251)" fill="#ccc2b8"/>
              <path id="Path_13444" data-name="Path 13444" d="M1631.4,2105.6l12.61-26.524-53.377-16.206-6.788,26.018Z" transform="translate(-44.948 -112.939)" fill="#ccc2b8"/>
              <path id="Path_13445" data-name="Path 13445" d="M1586.062,2051.789l-16.07-5.792-.737,1.6,16.569,5.031Z" transform="translate(-42.639 -110.27)" fill="#ccc2b8"/>
              <path id="Path_13446" data-name="Path 13446" d="M1498.4,2020.26l-10.7-3.857-1.668,5.241,10.792,3.278Z" transform="translate(-29.468 -105.586)" fill="#ccc2b8"/>
              <path id="Path_13447" data-name="Path 13447" d="M1572.9,2095.675l-19.769-6.947.134.055-4.3,10.5,20.225,6.946Z" transform="translate(-39.427 -117.033)" fill="#ccc2b8"/>
              <path id="Path_13448" data-name="Path 13448" d="M1526.224,2118.762l.8-1.414,13.035-31.805-11.116-3.906-.152-.083a36.028,36.028,0,0,0-4.855-2.055,36.474,36.474,0,0,0-11.708-2.089,23.4,23.4,0,0,0-17.715,7.55l-3.054,20.766Z" transform="translate(-30.327 -115.241)" fill="#ccc2b8"/>
              <path id="Path_13449" data-name="Path 13449" d="M1525.714,2030.091l-20.4-7.353-1.5,4.449,21.214,6.442Z" transform="translate(-32.28 -106.588)" fill="#ccc2b8"/>
              <path id="Path_13450" data-name="Path 13450" d="M1603.754,2148.135l-21.727-8.691-7.967,15.209,22.453,10.864Z" transform="translate(-43.399 -125.06)" fill="#ccc2b8"/>
              <path id="Path_13451" data-name="Path 13451" d="M1672.721,2199.035l-39.378-20.013-.455.976,37.833,19.036Z" transform="translate(-52.71 -131.324)" fill="#ccc2b8"/>
              <path id="Path_13452" data-name="Path 13452" d="M1660.183,2199.959l-30-15.1-2.774,5.946,20.057,9.149Z" transform="translate(-51.843 -132.248)" fill="#ccc2b8"/>
              <path id="Path_13453" data-name="Path 13453" d="M1735.265,1707.047l-19.607-6.417-15.435,39.951-2.557,8,19.85,6.5,17.749,5.4Z" transform="translate(-62.963 -55.608)" fill="#b4cd9b"/>
              <path id="Path_13454" data-name="Path 13454" d="M1325.7,1836.3a115.624,115.624,0,0,0-25.85-12.923v70.883C1321.753,1888.942,1338.535,1872.394,1325.7,1836.3Z" transform="translate(0 -75.035)" fill="#b4cd9b"/>
              <path id="Path_13455" data-name="Path 13455" d="M1418.075,1786.744c-25.983-4.568-50.111-13.962-75.617-20.157-14.112-3.428-28.391-5.883-42.608-8.642v9.682c8.435,1.606,16.874,3.213,25.278,5.045,26.832,5.852,52.1,16.1,79.264,20.993,12.857,2.317,25.679,4.9,38.519,7.376q.561-4.644,1.15-9.475C1435.41,1789.912,1426.755,1788.268,1418.075,1786.744Z" transform="translate(0 -64.679)" fill="#8bbbb9"/>
              <path id="Path_13456" data-name="Path 13456" d="M1737.337,1431.218l-12.16-12.4-14.422,8.674,26.582,27.23Z" transform="translate(-65.034 -11.006)" fill="#8095b2"/>
              <path id="Path_13457" data-name="Path 13457" d="M1655.655,1353.159a2.694,2.694,0,0,0,.673-1.129c.081-.3.187-.58.272-.875l-1.856-1.87h-22.208l58.035,59.221,14.284-8.59C1688.029,1384.681,1671.208,1369.626,1655.655,1353.159Z" transform="translate(-52.655)" fill="#8bbbb9"/>
              <path id="Path_13458" data-name="Path 13458" d="M1701.617,1846.306c-3.794-.706-7.586-1.422-11.381-2.114-27.834-5.082-54.155-13.582-81.274-21.415-25.035-7.231-50.916-10.8-76.683-14.246-15.453-2.062-30.768-4.839-46.067-7.738q-.587,4.813-1.146,9.438c8.071,1.477,16.156,2.868,24.271,4.055,28.892,4.229,57.727,7.555,85.941,15.412,18.192,5.066,35.949,10.884,54.107,15.55l.047-.44,4.318.462-.114,1.061c6.171,1.514,12.393,2.886,18.7,4.021q14.652,2.633,29.274,5.44Z" transform="translate(-29.314 -71.461)" fill="#8bbbb9"/>
              <path id="Path_13459" data-name="Path 13459" d="M1374.962,1349.285l-75.112,165.506v21.022l84.654-186.528Z" transform="translate(0)" fill="#fff"/>
              <path id="Path_13460" data-name="Path 13460" d="M1329.624,2137.479l-29.774-11.911v7.02l27.355,10.944Z" transform="translate(0 -122.863)" fill="#fff"/>
              <path id="Path_13461" data-name="Path 13461" d="M1317,2200.656l-17.151-11.392v7.823l5.372,3.568Z" transform="translate(0 -132.945)" fill="#fff"/>
              <path id="Path_13462" data-name="Path 13462" d="M1621.07,1352.988l1.963-3.7h-20.944l1.856,1.87,48.343,48.71-.087.052-14.284,8.59-58.035-59.221h-15.208l18.647,19.028,3.675,3.751-80.571,82.19,4.646,4.574,35.051-35.557c3.3,5.579,10.027,16.97,17.594,29.859l-51.936,31.233-73.145-71.086,15.212-29.773,33.262-34.22h-9.093l-29.523,30.371-14.827,29.02c-3.531-3.663-8.655-10.406-8.532-17.812a18.5,18.5,0,0,1,2.3-8.842c9.767-18.45,9.877-19.219,11.443-22.342a16.394,16.394,0,0,0,1.207-6.837,27.566,27.566,0,0,0-.24-3.559h-6.6a19.463,19.463,0,0,1,.322,3.559,11.652,11.652,0,0,1-.522,3.922c-1.7,3.4-1.583,3.708-11.373,22.2a25.171,25.171,0,0,0-3.064,11.9c.178,11.666,7.944,20.183,11.956,23.875l-17.139,33.547-49-25.789,33.023-73.213h-9.532l-88.071,195.257v21.133l12.742-28.25,36.869,15.936-5.5,21.989L1299.85,1597.8v23.772l122.829-74.077,8.948-4.55,8.6,13.3-3.577,45.22-24.562-8.932-2.227,6.125,26.257,9.548L1434.712,1626l-134.862,3.359v10.871l133.9-3.336-6.583,69.567-127.321-34.69v6.756l145.286,39.581q-.548,4.451-1.076,8.784-.59,4.828-1.15,9.475c-2.051,16.957-3.8,31.88-4.968,42.667-2.828,26.191-9.231,50.806-14.937,68.8-2.852,9-5.521,16.352-7.473,21.428s-3.149,7.8-3.149,7.8-3.944,8.893-10.4,23.5l.163-1.311-102.3-12.734v6.57l46.865,5.835-1.967,55.067-44.9-10.27v6.687l72.857,16.671c-5.8,13.233-11.9,27.167-18.042,41.258l-33.467-16.96-2.949,5.814,33.807,17.136c-3.208,7.364-6.415,14.744-9.593,22.071l-42.612-18.528v7.1l14.575,6.337L1305.3,2053.9l6.04,2.44,9.069-22.43,19.468,8.462c-3.726,8.6-7.385,17.083-10.933,25.336h14.19l.919-2.135,3.616,2.135h12.819l-13.834-8.167c9.412-21.806,19.4-44.755,28.971-66.633,4.621-10.567,9.14-20.879,13.454-30.7l47.127,10.768-8.793,84.577-50.743-26.274-1.992,3.862h0l52.366,27.115-.186,5.453h4.347l.11-3.24,6.258,3.24h9.455l-15.469-8.01,4.025-38.68,70.866,34.453-4.305,12.236h4.6l3.634-10.326,21.243,10.326h9.938l-29.729-14.452,17.2-48.875,53.389,19.568-19.525,43.758h4.761l7.46-16.722,3.233,1.626,30,15.1h9.669l-37.833-19.037-3.3-1.659,9.656-21.647,55.8,17.662-10.8,24.68h7.118l9.939-22.7,12.818,4.059a188.427,188.427,0,0,1-5.621,18.645h6.9c2-5.846,3.689-11.462,4.95-16.676l4.672,1.479v-4.555l-21.967-6.953,8.078-18.452,13.889,4.881v-4.608l-12.141-4.267,9.951-22.731,2.19.8V1971l-5.187,14.473-24.121-8.861,29.308-88.622v-20.756l-35.427,107.132-8.667-3.183,20.685-59.3-6.157-2.142-20.647,59.19-8.12-2.981,4.871-136.669,53.463,20.169v-4.644L1619,1824.7l.009-.254,5.311-49.578.114-1.061-4.318-.462-.047.44-5.289,49.324-53.667-20.246,7.162-36.48-4.263-.833v0l-8.517,43.393-41.021-13.234-.8-.113,6.087-36.51-4.288-.715-6.107,36.62-15.06-2.118.109-.5,5.075-39.162-4.3-.561-5.065,39.042-.123.572-21.023-2.956,6.6-38.181-4.282-.739-16.68,96.442-2.894,62.948-1.131,4.468-35.625-10.814c5.82-13.172,9.332-21.089,9.343-21.116.137-.374,20.64-47.106,26.59-101.883,1.139-10.53,2.843-25.089,4.846-41.664q.559-4.622,1.146-9.437.519-4.268,1.059-8.659c16.744,3,51.643,9.054,84.038,13.4,44.138,5.9,107.259,22.773,129.069,31.306l1.239.479v-6.978c-20.393-7.735-69.113-20.991-110.52-28.3l8.994-43.849-22.845-2.659,8.627-28.839-.5-21.4,19.5-.484-7.015,42.09,6.432,1.071,7.22-43.327,34.151-.853-24.913,89.482,6.278,1.748,25.447-91.4,24.318-.605-19.141,59.931-.046-.013-12.035,37.833-.344,1.076,0,0,0,0,6.206,1.981,10.469-32.778,39.716,12.087v-6.812l-17.749-5.4-19.983-6.082.133-.415,2.556-8,17.111-53.581,17.931-.448v-10.868l-4.81.12.393-12.58,1.351-3.713,3.066.569v-6.63l-.806-.15.806-2.216v-5.989l-4.2-1.525-.007-.005-6.7,18.419-.433,13.983-18.054.45-18.632-21.968,35.422-79.862,12.6,5.58v-7.129l-9.962-4.41,9.962-22.458v-16.079l-11.713,26.4-4.853-.933,13.5-29.567-5.931-2.709-13.867,30.374-23.323-13.894-3.338,5.6,23.935,14.261-13.543,29.661c-11.1-6.755-25.954-17.388-31.392-27.639-3.527-6.495-10.66-18.9-18.551-32.455l65.979-37.976,23.1,23.659V1443.72l-26.582-27.231,14.422-8.674,12.159,12.4V1404.7l-2.538-2.587,2.538-1.491v-12.6l-10.4,6.113ZM1375.374,1961l-25.088-5.74.938.035,1.986-55.56,46.582,5.8C1393.31,1920.209,1384.8,1939.517,1375.374,1961Zm151.01,37.793-20.33-7.452-1.491,4.08,20.378,7.469-17.047,48.46-42.1-20.467,8.161-17.009-3.917-1.88-8.156,16.984-25.824-12.552,4.348-41.782,13.7,6.577-1.554,7.761a10.709,10.709,0,0,0-1.251,5.08c-.046,3.569,1.88,8.3,8.033,12.4,5.857,3.954,15.527,7.653,31.631,10.39l-6.572,23.009,4.178,1.194,7.222-25.279,13.743-33.525,4.3-10.5-.133-.055,19.769,6.947-3.714,10.552Zm-70.741-4.729a6.587,6.587,0,0,1,.428-2.355,5.992,5.992,0,0,1,.275-.619c.068-.119.076-.119.068-.119l.244-.369,2.911-14.555a33.285,33.285,0,0,1,4.618-6.326,23.4,23.4,0,0,1,17.715-7.549,36.454,36.454,0,0,1,11.708,2.089,35.83,35.83,0,0,1,4.855,2.055l.152.083,11.116,3.906-13.035,31.805-4.336,10.58c-16.168-2.68-25.492-6.357-30.6-9.824C1456.486,1999.226,1455.686,1996.163,1455.644,1994.062Zm128.578,25.928-53.762-19.706,3.406-9.68,3.7-10.522,47.007,16.52,9.147,3.215Zm-86.651-95,7.614-38.8,32.752,16.211-14.692,31.841-.832,1.8-25.493-7.74Zm-4.137-1.491-.7,3.538-21.214-6.442,1.5-4.449,13.288-39.294,14.831,7.341Zm82.114-8.508,9.08-25.432,26.923,13.066.353-.723-1.046,29.332Zm35.141,20.946-.949,26.618-50.348-15.284-12.053-3.659.177-.621,9.123-31.917Zm-39.107-22.771-13.666-6.286,8.687-26.067,14.091,6.838Zm-17.637-8.113-10.717-4.929,4.942-28.256,14.49,7.032Zm-14.788-6.891-33.1-16.387,5.366-27.344,1.81.482L1544.1,1869.9Zm-11.805,37.562,14.51-31.448,10.782,4.961-9.222,32.278-.239.837-16.569-5.031Zm18.332,14.2,53.376,16.206,9.205,2.795-12.684,26.938-9.131-3.209-47.554-16.713Zm98.4,89.1-55.718-17.637,9.476-20.123,54.4,19.12Zm19.9-45.449-9.987,22.816-54.29-19.079L1610.681,1974Zm-103.713-186.392,54.281,20.478-2.508,70.376-25.824-12.533,16.67-36.8-3.954-1.791h-.005l-16.62,36.7-14.146-6.866,17.335-37.437-3.94-1.827h0l-17.3,37.368-15.3-7.427,4.125-23.586Zm-47.3-7.3.556.078,41.135,13.27-4.339,22.1-42.489-4.649Zm-44.724-6.289,20.845,2.932-6.9,31.992,4.246.917,6.964-32.3,15.262,2.147-5.874,35.228,46.692,5.107-.673,3.429-3.921,22.4-30.119-14.617-53.935-14.379Zm-9.293,53.732,1.138-6.58,47.129,12.565-5.2,26.47-34.127-16.892-11.048,30.232Zm-2.9,63.079.3-6.465,1.033.378,12.932-35.387,12.077,5.979-13.45,39.764-1.577,4.662-10.791-3.278-1.812-.551Zm-2.891,11.428,1.436.436,86.935,26.394-6.74,25.837-34.424-12.1a42.548,42.548,0,0,0-18.459-4.579,27.88,27.88,0,0,0-19.279,7.327,34.766,34.766,0,0,0-7.017,9.065l-.162.293-.023.117-13.927-6.686,2.294-9.069,3.266-12.911Zm-4.158-1.263-11.639,45.985-45.613-10.424c6.72-15.294,12.85-29.2,17.934-40.718l2.64-5.979Zm101.769-502.245,40.788-41.609,36.793,37.545-59.049,35.511C1560.912,1435.486,1553.558,1423.042,1550.768,1418.326Zm-36.749,77.369,39.616,39.151-29.12,88.911-34.424.857,3.1-37.154-17.531-6.816c.726-5.619,1.183-9.141,1.284-9.935a51.321,51.321,0,0,0-5.092-31.693c-1.426-2.567-4.191-7.326-7.715-13.321Zm-27.732,96.078-2.749,33-13.586.34c1.923-15.065,3.609-28.205,4.846-37.814Zm-50.755-172.423L1506,1487.838l-47.393,28.5c-15.345-25.934-37.543-62.927-37.566-62.971l-.94-1.563-.907-.478Zm-120.257,112.131,43.786-97.077,39.034,20.544L1352.11,1547.4Zm36.391,39.95,3.862-15.449,14.328,6.194Zm65.775-33.467-40.036,20.371-19.3-8.342,45.755-92.01,6.942,3.653c2.877,4.8,11.967,19.962,21.687,36.266,4.577,7.672,9.3,15.6,13.565,22.808Zm28.5,173.607-12.385-3.375,6.761-71.47,15.064-.376C1452.382,1659.936,1449.007,1686.722,1445.94,1711.572Zm10.828-86.126-15.506.386,5.642-71.278-9.438-14.587,15.349-7.808c3.533,6.011,6.285,10.745,7.639,13.183a35.791,35.791,0,0,1,4.093,17.181,39.457,39.457,0,0,1-.24,4.472c-.061.528-.119.92-.157,1.17s-.049.263-.044.263l-.046.226-.023.21C1464.033,1568.878,1460.912,1592.949,1456.769,1625.446Zm1.984,88.751c2.364-19.17,4.918-39.557,7.347-58.761.84-6.65,1.666-13.151,2.461-19.414l14.068-.35-6.79,81.524C1469.058,1716.03,1463.229,1715,1458.752,1714.2Zm82.605-30.885-.2-.023-9.964,33.993-.04.131h0l-.007.017,6.247,1.853,0-.015.023-.076,8.606-28.776,16.928,1.969-7.609,37.1c-4.28-.7-8.46-1.334-12.494-1.878-20.993-2.813-43.1-6.358-60.573-9.315l6.9-82.786,48.835-1.218-2.054,17.67-8.07,27.45,6.256,1.842,8.223-27.98,2.226-19.145,4.412-.11.539.108.469,20.229Zm93.183-62.3-103.108,2.57,27.383-83.617,43.145,42.639Zm18.408-114.961,4.929.947-14.416,32.5c-.747-.393-1.6-.85-2.574-1.381-.645-.347-1.337-.725-2.065-1.132Zm-16.834,36.868c1.863,1.042,3.457,1.9,4.7,2.546l-21.222,47.849-4.218-4.975Zm-40.06-33.774c5.747,10.466,17.595,19.607,28.031,26.5,2.209,1.449,4.35,2.78,6.364,3.991l-19.735,43.215-3.976-4.689-34.854-34.443,15.137-14.192-4.452-4.754-15.324,14.362-11-10.871,21.078-21.079-4.611-4.61-21.1,21.105-31.828-31.451,49.43-29.728c1.7,2.895,3.4,5.805,5.086,8.7l-17.744,10.213,3.252,5.651,17.775-10.23C1585.465,1490.386,1592.591,1502.768,1596.055,1509.149Zm-16.112-41.2c-1.71-2.929-3.433-5.878-5.148-8.807l61.36-36.9,8.347,8.549Z" transform="translate(0)" fill="#fff"/>
              <path id="Path_13463" data-name="Path 13463" d="M1363.315,1349.285l-26.2,56.955-37.261-20.219V1405.8l29.979,16.268-29.979,65.161v20.786l73.03-158.728Z" transform="translate(0)" fill="#fff"/>
              <path id="Path_13464" data-name="Path 13464" d="M1741.538,1810.015v-14.35l-4.239,12.964Z" transform="translate(-69.236 -70.649)" fill="#fff"/>
            </g>
          </g>
        </g>
        <g id="Group_2337" data-name="Group 2337" transform="translate(6398.68 12061.42)">
          <g id="Group_2336" data-name="Group 2336">
            <g id="Group_2335" data-name="Group 2335">
              <g id="Group_2334" data-name="Group 2334">
                <path id="Path_13334" data-name="Path 13334" d="M125.419,1673.1c0,18.928-33.608,68.871-33.608,68.871S58.2,1692.024,58.2,1673.1s15.047-34.272,33.608-34.272S125.419,1654.168,125.419,1673.1Z" transform="translate(-58.203 -1638.824)" fill="#1762e1"/>
              </g>
            </g>
          </g>
        </g>
        <g id="Group_2346" data-name="Group 2346" transform="translate(6308.5 11993.499)">
          <g id="Group_2345" data-name="Group 2345" transform="translate(0)">
            <g id="Group_2344" data-name="Group 2344">
              <g id="Group_2343" data-name="Group 2343">
                <path id="Path_13338" data-name="Path 13338" d="M-51.122,1545.171c0,13.1-23.251,47.647-23.251,47.647s-23.251-34.552-23.251-47.647a23.484,23.484,0,0,1,23.251-23.711A23.484,23.484,0,0,1-51.122,1545.171Z" transform="translate(97.624 -1521.46)" fill="#1762e1"/>
                <path id="Path_13339" data-name="Path 13339" d="M-54.473,1552.512a11.039,11.039,0,0,1-10.93,11.146,11.039,11.039,0,0,1-10.929-11.146A11.039,11.039,0,0,1-65.4,1541.367,11.039,11.039,0,0,1-54.473,1552.512Z" transform="translate(88.654 -1529.846)" fill="#fff"/>
              </g>
            </g>
          </g>
        </g>
        <g id="Group_2354" data-name="Group 2354" transform="translate(6305.618 12183.432)">
          <g id="Group_2353" data-name="Group 2353" transform="translate(0)">
            <g id="Group_2352" data-name="Group 2352">
              <g id="Group_2351" data-name="Group 2351">
                <path id="Path_13342" data-name="Path 13342" d="M-43.613,1879.735c0,16.612-29.5,60.444-29.5,60.444s-29.5-43.832-29.5-60.444,13.206-30.079,29.5-30.079S-43.613,1863.123-43.613,1879.735Z" transform="translate(102.604 -1849.656)" fill="#1762e1"/>
                <path id="Path_13343" data-name="Path 13343" d="M-47.865,1889.048a14,14,0,0,1-13.865,14.139,14,14,0,0,1-13.864-14.139,14,14,0,0,1,13.864-14.139A14,14,0,0,1-47.865,1889.048Z" transform="translate(91.225 -1860.295)" fill="#fff"/>
              </g>
            </g>
          </g>
        </g>
      </g>
      <g id="Group_2360" data-name="Group 2360" transform="translate(6353.122 12147.068)">
        <ellipse id="Ellipse_188" data-name="Ellipse 188" cx="14.241" cy="3.448" rx="14.241" ry="3.448" transform="translate(64.924 14.356)" fill="none" stroke="#1762e1" stroke-miterlimit="10" stroke-width="0.978"/>
        <ellipse id="Ellipse_189" data-name="Ellipse 189" cx="20.143" cy="5.42" rx="20.143" ry="5.42" transform="translate(59.022 13.051)" fill="none" stroke="#1762e1" stroke-miterlimit="10" stroke-width="0.898" opacity="0.909"/>
        <ellipse id="Ellipse_190" data-name="Ellipse 190" cx="26.045" cy="7.392" rx="26.045" ry="7.392" transform="translate(53.12 11.746)" fill="none" stroke="#1762e1" stroke-miterlimit="10" stroke-width="0.818" opacity="0.818"/>
        <ellipse id="Ellipse_191" data-name="Ellipse 191" cx="31.948" cy="9.364" rx="31.948" ry="9.364" transform="translate(47.218 10.441)" fill="none" stroke="#1762e1" stroke-miterlimit="10" stroke-width="0.737" opacity="0.727"/>
        <ellipse id="Ellipse_192" data-name="Ellipse 192" cx="37.85" cy="11.336" rx="37.85" ry="11.336" transform="translate(41.315 9.136)" fill="none" stroke="#1762e1" stroke-miterlimit="10" stroke-width="0.657" opacity="0.636"/>
        <ellipse id="Ellipse_193" data-name="Ellipse 193" cx="43.752" cy="13.308" rx="43.752" ry="13.308" transform="translate(35.413 7.831)" fill="none" stroke="#1762e1" stroke-miterlimit="10" stroke-width="0.577" opacity="0.545"/>
        <ellipse id="Ellipse_194" data-name="Ellipse 194" cx="49.654" cy="15.28" rx="49.654" ry="15.28" transform="translate(29.511 6.526)" fill="none" stroke="#1762e1" stroke-miterlimit="10" stroke-width="0.497" opacity="0.455"/>
        <ellipse id="Ellipse_195" data-name="Ellipse 195" cx="55.556" cy="17.252" rx="55.556" ry="17.252" transform="translate(23.609 5.22)" fill="none" stroke="#1762e1" stroke-miterlimit="10" stroke-width="0.417" opacity="0.364"/>
        <ellipse id="Ellipse_196" data-name="Ellipse 196" cx="61.459" cy="19.224" rx="61.459" ry="19.224" transform="translate(17.707 3.915)" fill="none" stroke="#1762e1" stroke-miterlimit="10" stroke-width="0.337" opacity="0.273"/>
        <ellipse id="Ellipse_197" data-name="Ellipse 197" cx="67.361" cy="21.196" rx="67.361" ry="21.196" transform="translate(11.804 2.61)" fill="none" stroke="#1762e1" stroke-miterlimit="10" stroke-width="0.257" opacity="0.182"/>
        <ellipse id="Ellipse_198" data-name="Ellipse 198" cx="73.263" cy="23.168" rx="73.263" ry="23.168" transform="translate(5.902 1.305)" fill="none" stroke="#1762e1" stroke-miterlimit="10" stroke-width="0.177" opacity="0.091"/>
        <ellipse id="Ellipse_199" data-name="Ellipse 199" cx="79.165" cy="25.14" rx="79.165" ry="25.14" transform="translate(0)" fill="none" stroke="#1762e1" stroke-miterlimit="10" stroke-width="0.097" opacity="0"/>
      </g>
    </g>
    <g id="local_mall_black_24dp_1_" data-name="local_mall_black_24dp (1)" transform="translate(982.12 4407.97)">
      <path id="Path_14132" data-name="Path 14132" d="M0,0H35.5V35.5H0Z" fill="none"/>
      <path id="Path_14133" data-name="Path 14133" d="M26.667,8.4H23.708a7.4,7.4,0,0,0-14.792,0H5.958a2.954,2.954,0,0,0-2.944,2.958L3,29.1a2.967,2.967,0,0,0,2.958,2.958H26.667A2.967,2.967,0,0,0,29.625,29.1V11.354A2.967,2.967,0,0,0,26.667,8.4ZM16.312,3.958A4.432,4.432,0,0,1,20.75,8.4H11.875A4.432,4.432,0,0,1,16.312,3.958Zm0,14.792a7.4,7.4,0,0,1-7.4-7.4h2.958a4.437,4.437,0,1,0,8.875,0h2.958A7.4,7.4,0,0,1,16.312,18.75Z" transform="translate(1.437 0.479)" fill="#fff"/>
    </g>
  </g>
</svg>
