<svg xmlns="http://www.w3.org/2000/svg" width="684.599" height="411.231" viewBox="0 0 684.599 411.231">
  <g id="Group_8194" data-name="Group 8194" transform="translate(0 -447.575)">
    <path id="Path_13829" data-name="Path 13829" d="M387.383,641.881s101.722,197,369.8,225.429,314.8,132.009,314.8,132.009h-684.6Z" transform="translate(-387.383 -194.306)" fill="#1864e6"/>
    <path id="Path_13831" data-name="Path 13831" d="M1499.866,535.291l-.093-.244-.138-.312c-.087-.213-.169-.419-.275-.638-.206-.437-.4-.875-.612-1.312-.45-.875-.875-1.757-1.369-2.625-.475-.869-.956-1.744-1.481-2.6s-1.013-1.732-1.575-2.569l-1.644-2.544-1.744-2.487-.875-1.244-.919-1.219-1.831-2.431a173.714,173.714,0,0,0-16.437-18.175c-.738-.719-1.457-1.45-2.207-2.15l-2.275-2.081-2.268-2.075c-.757-.694-1.513-1.388-2.307-2.044l-4.343-3.687-.363-.307-1.175-1-1.212-.956-4.85-3.825c-.807-.637-1.607-1.288-2.45-1.881l-4.988-3.656-2.5-1.825-2.556-1.744-5.119-3.481a382.411,382.411,0,0,0-43.1-24.557c-3.675-1.906-7.469-3.581-11.225-5.337l-5.644-2.607c-1.887-.85-3.806-1.637-5.712-2.456l-5.725-2.437c-1.913-.807-3.8-1.656-5.744-2.388l-11.594-4.537c-15.556-5.794-31.268-11.225-47.243-15.85l-5.975-1.781-2.988-.888c-.994-.287-2.006-.55-3.006-.819l-12.044-3.25-6.025-1.612-6.062-1.469-12.125-2.944-3.032-.731-3.05-.662-6.1-1.326-12.193-2.643c-8.157-1.644-16.344-3.163-24.513-4.75-16.462-2.994-32.831-6.594-48.987-10.969a524.634,524.634,0,0,1-93.832-35.269,499.769,499.769,0,0,1-43.812-24.419c-3.525-2.243-7.069-4.456-10.531-6.8-3.507-2.282-6.932-4.676-10.369-7.05-6.825-4.826-13.581-9.744-20.144-14.919a477.965,477.965,0,0,1-71.994-69.475,449.516,449.516,0,0,1-30.018-40.057Q864.5,166.707,859.86,159q-1.818-3.028-3.587-6.088c-4.144-7.238-8.119-14.588-11.538-22.194,3.488,7.575,7.531,14.881,11.738,22.081q2.764,4.7,5.675,9.313,3.75,5.972,7.712,11.806a449.28,449.28,0,0,0,30.35,39.706,476.044,476.044,0,0,0,72.419,68.594c6.587,5.094,13.362,9.931,20.2,14.675,3.45,2.332,6.881,4.681,10.387,6.919,3.469,2.3,7.019,4.475,10.55,6.675,14.182,8.706,28.832,16.631,43.807,23.875a521.3,521.3,0,0,0,93.568,34.175c16.088,4.2,32.357,7.619,48.75,10.437,8.219,1.519,16.45,2.963,24.657,4.538l12.281,2.544,6.137,1.275,3.069.637,3.056.706,12.219,2.844,6.106,1.419,6.075,1.569,12.15,3.15c1.013.269,2.025.518,3.032.8l3.018.862,6.032,1.738c16.118,4.506,32.012,9.831,47.762,15.531l11.75,4.475c1.969.719,3.894,1.562,5.831,2.356l5.807,2.407c1.937.812,3.881,1.587,5.806,2.431l5.737,2.587c3.819,1.738,7.669,3.4,11.419,5.3a388.978,388.978,0,0,1,44.031,24.544l5.257,3.506,2.625,1.757,2.568,1.837,5.138,3.694c.869.606,1.694,1.256,2.531,1.906l2.506,1.938,3.75,2.906,1.219,1.012,4.875,4.063c.613.494,1.206,1.012,1.794,1.544.2.174.4.356.6.537l2.362,2.119,2.363,2.118c.781.719,1.531,1.469,2.3,2.2a181.174,181.174,0,0,1,17.269,18.75l1.956,2.543.975,1.269.937,1.306,1.869,2.619,1.781,2.694c.607.887,1.15,1.831,1.719,2.75s1.106,1.862,1.638,2.818c.543.938,1.043,1.925,1.55,2.907.25.493.481,1.012.725,1.512.125.25.237.532.356.794l.175.406.194.481Z" transform="translate(-844.735 323.515)" fill="#fff"/>
  </g>
</svg>
